<svg xml:space="preserve" style="max-height: 500px" viewBox="8 11 488 444" y="0px" x="0px" xmlns:xlink="http://www.w3.org/1999/xlink" xmlns="http://www.w3.org/2000/svg" version="1.1" width="488" height="444">
<g id="BACKGROUND">
	<rect height="500" width="500" style="fill:#FFFFFF;"/>
</g>
<g id="OBJECTS">
	<g>
		<path d="M94.434,343.16c0,0-64.1,70.871-56.767,74.689c7.333,3.818,61.682,12.107,62.174-7.249&#10;&#9;&#9;&#9;c23.159,0.4,33.369,0,33.369,0s-38.279,22.638-10.244,26.852c28.035,4.215,69.711,0.87,57.54-8.124&#10;&#9;&#9;&#9;c-12.172-8.994-13.185-18.728-13.185-18.728l173.852-2.625c0,0,17.246,15.998,4.537,18.511&#10;&#9;&#9;&#9;C333,429,305.314,441.516,356.491,439.925s24.624-29.902,16.234-32.08c31.609,0.488,66.945,1.771,73.61,0.13&#10;&#9;&#9;&#9;c6.665-1.642-13.899-7.217-26.95-24.763C406.333,365.667,94.434,343.16,94.434,343.16z" style="fill:#E0E0E0;"/>
		<path d="M467.71,323.292c0,0,13.737-77.098-15.167-88.744s6.008-85.813-49.774-98.976&#10;&#9;&#9;&#9;c-55.782-13.163-29.167-95.883-123.921-72.629s-128.05,11.065-172.378,73.496c-44.328,62.431-4.139,91.325-36.619,99.934&#10;&#9;&#9;&#9;c-32.48,8.609-47.913,29.971-30.238,86.919C218.901,323.292,467.71,323.292,467.71,323.292z" style="fill:#CCB6F3;"/>
		<g>
			
				<linearGradient gradientTransform="matrix(1.1702 0.1762 -0.1962 1.3028 -30.3057 -116.6117)" y2="215.4519" x2="417.5982" y1="215.4519" x1="355.2354" gradientUnits="userSpaceOnUse" id="SVGID_1_">
				<stop style="stop-color:#268DA6" offset="0"/>
				<stop style="stop-color:#2ABFD4" offset="1"/>
			</linearGradient>
			<path d="M336.701,303.267c-4.879-38.754,7.105-69.646,18.763-53.443&#10;&#9;&#9;&#9;&#9;c11.658,16.203,3.695-24.536,6.494-43.124c2.799-18.588,12.061-16.433,16.559-5.11c4.498,11.323,11.39-11.972,19.815-30.473&#10;&#9;&#9;&#9;&#9;c8.425-18.501,28.604-13.942,24.03,8.941c-4.574,22.883-20.797,25.763-12.319,33.123c8.478,7.36,13.519,22.566-7.244,33.127&#10;&#9;&#9;&#9;&#9;c-20.764,10.56-12.854,25.438-6.461,27.922c6.393,2.484,12.753,20.17-12.767,36.097&#10;&#9;&#9;&#9;&#9;C363.169,307.253,336.701,303.267,336.701,303.267z" style="fill:url(#SVGID_1_);"/>
			<g>
				<path d="M407.578,180.872c0,0-1.03,1.842-2.729,5.12c-0.835,1.646-1.863,3.638-2.984,5.952&#10;&#9;&#9;&#9;&#9;&#9;c-1.148,2.3-2.369,4.932-3.747,7.78c-1.323,2.874-2.799,5.968-4.254,9.289c-0.734,1.657-1.488,3.36-2.259,5.1&#10;&#9;&#9;&#9;&#9;&#9;c-0.745,1.752-1.505,3.541-2.279,5.361c-1.571,3.63-3.065,7.434-4.628,11.281c-1.552,3.851-3.017,7.808-4.542,11.74&#10;&#9;&#9;&#9;&#9;&#9;c-1.463,3.956-2.925,7.913-4.365,11.808c-1.365,3.922-2.708,7.781-4.008,11.517c-1.228,3.759-2.415,7.394-3.541,10.84&#10;&#9;&#9;&#9;&#9;&#9;c-1.144,3.441-2.075,6.741-3.014,9.763c-0.903,3.033-1.803,5.792-2.486,8.271c-0.708,2.472-1.325,4.627-1.834,6.402&#10;&#9;&#9;&#9;&#9;&#9;c-1.017,3.55-1.598,5.578-1.598,5.578s0.548-2.038,1.506-5.604c0.479-1.783,1.061-3.949,1.729-6.432&#10;&#9;&#9;&#9;&#9;&#9;c0.639-2.492,1.492-5.266,2.39-8.302c0.923-3.028,1.836-6.336,2.96-9.784c1.107-3.455,2.274-7.098,3.482-10.866&#10;&#9;&#9;&#9;&#9;&#9;c1.28-3.745,2.602-7.615,3.946-11.547c1.42-3.906,2.862-7.873,4.304-11.841c1.549-3.928,3.037-7.879,4.612-11.725&#10;&#9;&#9;&#9;&#9;&#9;c1.586-3.841,3.103-7.64,4.695-11.263c0.784-1.817,1.556-3.603,2.31-5.352c0.781-1.737,1.545-3.437,2.289-5.091&#10;&#9;&#9;&#9;&#9;&#9;c1.474-3.315,2.969-6.403,4.309-9.271c2.741-5.709,5.186-10.386,6.923-13.645C406.518,182.697,407.578,180.872,407.578,180.872z" style="fill:#401A4C;"/>
			</g>
			<g>
				<path d="M371.216,210.755c0,0-0.012,0.207-0.034,0.596c-0.023,0.388-0.059,0.958-0.067,1.683&#10;&#9;&#9;&#9;&#9;&#9;c-0.035,1.449,0.013,3.525,0.291,5.988c0.266,2.464,0.847,5.315,1.924,8.206c0.557,1.436,1.256,2.873,2.145,4.214&#10;&#9;&#9;&#9;&#9;&#9;c0.89,1.337,1.97,2.588,3.268,3.569c2.571,2.015,5.923,2.824,8.976,2.596c1.535-0.063,2.999-0.369,4.376-0.688&#10;&#9;&#9;&#9;&#9;&#9;c0.678-0.203,1.338-0.401,1.977-0.592c0.625-0.235,1.229-0.462,1.808-0.68c0.582-0.214,1.111-0.488,1.632-0.707&#10;&#9;&#9;&#9;&#9;&#9;c0.519-0.225,1.013-0.436,1.458-0.675c0.894-0.466,1.7-0.828,2.32-1.206c1.261-0.719,1.982-1.13,1.982-1.13&#10;&#9;&#9;&#9;&#9;&#9;s-0.703,0.441-1.934,1.213c-0.605,0.404-1.396,0.8-2.275,1.305c-0.883,0.497-1.921,0.984-3.061,1.494&#10;&#9;&#9;&#9;&#9;&#9;c-0.58,0.234-1.184,0.477-1.81,0.729c-0.642,0.209-1.306,0.425-1.989,0.647c-0.7,0.163-1.413,0.364-2.156,0.504&#10;&#9;&#9;&#9;&#9;&#9;c-0.749,0.107-1.51,0.264-2.301,0.276c-1.57,0.128-3.225-0.012-4.834-0.437c-1.61-0.421-3.169-1.171-4.516-2.202&#10;&#9;&#9;&#9;&#9;&#9;c-1.347-1.036-2.457-2.342-3.362-3.726c-0.905-1.389-1.608-2.865-2.164-4.333c-1.077-2.956-1.559-5.861-1.78-8.346&#10;&#9;&#9;&#9;&#9;&#9;c-0.124-1.243-0.149-2.39-0.151-3.403c0.004-1.014,0.029-1.897,0.082-2.622c0.037-0.727,0.097-1.294,0.137-1.681&#10;&#9;&#9;&#9;&#9;&#9;C371.196,210.961,371.216,210.755,371.216,210.755z" style="fill:#401A4C;"/>
			</g>
			<g>
				<path d="M349.085,265.972c0,0,0.015,0.24,0.042,0.69c0.034,0.449,0.052,1.112,0.134,1.949&#10;&#9;&#9;&#9;&#9;&#9;c0.081,0.837,0.17,1.853,0.347,3.011c0.07,0.581,0.179,1.194,0.3,1.838c0.107,0.647,0.241,1.322,0.405,2.022&#10;&#9;&#9;&#9;&#9;&#9;c0.296,1.407,0.741,2.9,1.277,4.452c0.572,1.54,1.285,3.119,2.166,4.673c0.903,1.539,2.014,3.026,3.337,4.343&#10;&#9;&#9;&#9;&#9;&#9;c1.322,1.318,2.865,2.452,4.552,3.314c1.677,0.883,3.5,1.479,5.339,1.82c1.838,0.335,3.688,0.494,5.476,0.423&#10;&#9;&#9;&#9;&#9;&#9;c1.787-0.053,3.514-0.231,5.134-0.513c1.622-0.272,3.141-0.625,4.526-1.01c1.39-0.372,2.642-0.789,3.757-1.147&#10;&#9;&#9;&#9;&#9;&#9;c1.104-0.387,2.062-0.743,2.849-1.038c1.558-0.636,2.448-1,2.448-1s-0.877,0.396-2.412,1.088&#10;&#9;&#9;&#9;&#9;&#9;c-0.777,0.324-1.723,0.714-2.816,1.143c-1.103,0.401-2.346,0.866-3.739,1.261c-1.385,0.416-2.908,0.802-4.541,1.111&#10;&#9;&#9;&#9;&#9;&#9;c-1.63,0.317-3.376,0.541-5.193,0.597c-1.817,0.084-3.704-0.064-5.589-0.395c-1.884-0.337-3.765-0.935-5.499-1.836&#10;&#9;&#9;&#9;&#9;&#9;c-1.733-0.9-3.317-2.081-4.666-3.444c-1.351-1.363-2.477-2.894-3.389-4.47c-0.898-1.586-1.58-3.212-2.13-4.782&#10;&#9;&#9;&#9;&#9;&#9;c-0.511-1.583-0.929-3.099-1.199-4.522c-0.148-0.709-0.278-1.39-0.361-2.045c-0.099-0.652-0.185-1.271-0.235-1.857&#10;&#9;&#9;&#9;&#9;&#9;c-0.136-1.167-0.189-2.19-0.24-3.031c-0.052-0.841-0.046-1.502-0.065-1.953C349.091,266.212,349.085,265.972,349.085,265.972z" style="fill:#401A4C;"/>
			</g>
			<g>
				<path d="M367.192,237.476c0,0-0.033,1.463,0.078,3.643c0.044,1.09,0.156,2.358,0.308,3.709&#10;&#9;&#9;&#9;&#9;&#9;c0.152,1.351,0.38,2.784,0.715,4.191c0.315,1.41,0.736,2.796,1.267,4.036c0.53,1.24,1.135,2.353,1.797,3.207&#10;&#9;&#9;&#9;&#9;&#9;c0.335,0.422,0.647,0.809,0.962,1.117c0.296,0.329,0.604,0.56,0.841,0.772c0.502,0.386,0.805,0.596,0.805,0.596&#10;&#9;&#9;&#9;&#9;&#9;s-0.079-0.045-0.229-0.128c-0.146-0.089-0.378-0.195-0.641-0.379c-0.257-0.192-0.591-0.4-0.921-0.707&#10;&#9;&#9;&#9;&#9;&#9;c-0.35-0.284-0.704-0.651-1.066-1.071c-0.716-0.847-1.436-1.941-1.999-3.209c-0.568-1.265-1.025-2.675-1.369-4.107&#10;&#9;&#9;&#9;&#9;&#9;c-0.316-1.439-0.521-2.897-0.651-4.267c-0.133-1.37-0.14-2.656-0.138-3.753C366.978,238.926,367.192,237.476,367.192,237.476z" style="fill:#401A4C;"/>
			</g>
			<g>
				<path d="M365.869,283.642c0,0,1.573,0.481,3.989,0.877c1.206,0.207,2.625,0.352,4.145,0.428&#10;&#9;&#9;&#9;&#9;&#9;c1.52,0.068,3.147,0.01,4.745-0.232c0.798-0.123,1.593-0.269,2.357-0.486c0.767-0.204,1.505-0.467,2.196-0.772&#10;&#9;&#9;&#9;&#9;&#9;c1.385-0.602,2.599-1.348,3.533-2.125c0.484-0.369,0.867-0.777,1.239-1.106c0.332-0.366,0.636-0.677,0.865-0.951&#10;&#9;&#9;&#9;&#9;&#9;c0.447-0.559,0.703-0.879,0.703-0.879s-0.224,0.344-0.616,0.946c-0.208,0.293-0.488,0.629-0.797,1.027&#10;&#9;&#9;&#9;&#9;&#9;c-0.347,0.362-0.707,0.809-1.187,1.205c-0.454,0.424-0.992,0.834-1.581,1.236c-0.593,0.397-1.245,0.782-1.959,1.096&#10;&#9;&#9;&#9;&#9;&#9;c-0.708,0.326-1.466,0.609-2.253,0.832c-0.784,0.236-1.6,0.401-2.418,0.537c-1.646,0.223-3.308,0.255-4.854,0.162&#10;&#9;&#9;&#9;&#9;&#9;c-1.547-0.099-2.972-0.351-4.179-0.606C367.384,284.295,365.869,283.642,365.869,283.642z" style="fill:#401A4C;"/>
			</g>
			<g>
				<path d="M393.766,192.085c0,0-0.342,1.152-0.784,2.891c-0.231,0.867-0.453,1.889-0.692,2.98&#10;&#9;&#9;&#9;&#9;&#9;c-0.239,1.092-0.448,2.266-0.589,3.445c-0.166,1.176-0.265,2.36-0.257,3.469c0.012,1.107,0.095,2.141,0.307,3&#10;&#9;&#9;&#9;&#9;&#9;c0.102,0.43,0.226,0.816,0.351,1.153c0.134,0.334,0.27,0.619,0.407,0.84c0.119,0.233,0.253,0.389,0.329,0.508&#10;&#9;&#9;&#9;&#9;&#9;c0.081,0.116,0.124,0.177,0.124,0.177s-0.051-0.055-0.147-0.158c-0.09-0.108-0.255-0.243-0.397-0.467&#10;&#9;&#9;&#9;&#9;&#9;c-0.163-0.21-0.333-0.484-0.507-0.814c-0.167-0.331-0.338-0.717-0.467-1.156c-0.265-0.875-0.459-1.935-0.491-3.075&#10;&#9;&#9;&#9;&#9;&#9;c-0.032-1.139,0.041-2.352,0.187-3.553c0.17-1.198,0.407-2.382,0.672-3.48c0.263-1.099,0.589-2.103,0.866-2.961&#10;&#9;&#9;&#9;&#9;&#9;C393.254,193.175,393.766,192.085,393.766,192.085z" style="fill:#401A4C;"/>
			</g>
			<g>
				<path d="M401.117,193.192c0,0,0.317,0.036,0.869,0.037c0.276-0.013,0.611-0.005,0.992-0.056&#10;&#9;&#9;&#9;&#9;&#9;c0.382-0.029,0.806-0.109,1.269-0.185c0.456-0.105,0.957-0.202,1.461-0.384c0.253-0.088,0.513-0.178,0.778-0.27&#10;&#9;&#9;&#9;&#9;&#9;c0.257-0.113,0.52-0.229,0.787-0.346c0.546-0.209,1.046-0.558,1.589-0.838c0.493-0.363,1.031-0.682,1.5-1.092&#10;&#9;&#9;&#9;&#9;&#9;c0.465-0.413,0.985-0.767,1.392-1.231c0.415-0.452,0.883-0.846,1.226-1.325c0.369-0.458,0.726-0.9,1.064-1.319&#10;&#9;&#9;&#9;&#9;&#9;c0.305-0.447,0.592-0.869,0.858-1.259c0.553-0.769,0.897-1.484,1.194-1.952c0.287-0.476,0.451-0.748,0.451-0.748&#10;&#9;&#9;&#9;&#9;&#9;s-0.128,0.29-0.352,0.798c-0.116,0.253-0.256,0.561-0.418,0.913c-0.153,0.358-0.343,0.753-0.603,1.156&#10;&#9;&#9;&#9;&#9;&#9;c-0.245,0.412-0.511,0.858-0.792,1.329c-0.305,0.456-0.659,0.918-1.024,1.395c-0.342,0.497-0.813,0.913-1.231,1.387&#10;&#9;&#9;&#9;&#9;&#9;c-0.411,0.484-0.938,0.865-1.413,1.299c-0.494,0.414-1.059,0.737-1.578,1.1c-0.57,0.282-1.095,0.63-1.666,0.837&#10;&#9;&#9;&#9;&#9;&#9;c-0.28,0.113-0.556,0.223-0.826,0.332c-0.28,0.078-0.554,0.155-0.821,0.23c-0.531,0.156-1.053,0.224-1.526,0.303&#10;&#9;&#9;&#9;&#9;&#9;c-0.479,0.056-0.918,0.091-1.31,0.081c-0.39,0.013-0.729-0.029-1.007-0.044C401.424,193.277,401.117,193.192,401.117,193.192z" style="fill:#401A4C;"/>
			</g>
		</g>
		<path d="M82.522,231.809c-11.131-20.442-11.675-31.415-2.776-40.74C68.333,176,75.601,150,88.258,142.573&#10;&#9;&#9;&#9;C77.333,117.667,96.938,104,106.469,105c3.864-30.667,39.982-28.741,47.257-16.87C164,77.333,190,93,180.018,109.112&#10;&#9;&#9;&#9;C191,105,204.853,123.427,197.427,133c8.573-1.667,18.611,15.181,10.092,24.59c11.481,18.41,6.849,89.437-22.008,97.415&#10;&#9;&#9;&#9;C156.655,262.983,89.496,283.604,82.522,231.809z" style="fill:#E2469A;"/>
		<path d="M177.111,278.043c8.424-16.232,8.836-24.946,2.101-32.35c8.637-11.966,3.137-32.611-6.441-38.509&#10;&#9;&#9;&#9;c8.267-19.777-6.569-30.629-13.782-29.835c-2.924-24.351-30.258-22.822-35.763-13.396c-7.775-8.573-27.452,3.867-19.897,16.661&#10;&#9;&#9;&#9;c-8.311-3.265-18.795,11.367-13.174,18.969c-6.488-1.324-14.085,12.055-7.638,19.526c-8.689,14.618-5.183,71.019,16.655,77.354&#10;&#9;&#9;&#9;C121.009,302.798,171.833,319.172,177.111,278.043z" style="fill:#CF2F89;"/>
		<path d="M227.048,124.908h37.207c0,0,0.584-6.866-7.352-4.567c-7.936,2.299-2.711-7.778-16.537-7.149&#10;&#9;&#9;&#9;C226.67,113.816,219.49,113.193,227.048,124.908z" style="fill:#FFFFFF;"/>
		
			<linearGradient y2="309.2437" x2="146.1801" y1="309.2437" x1="15.2467" gradientUnits="userSpaceOnUse" id="SVGID_00000026133428504007834030000018351203889211862432_">
			<stop style="stop-color:#E2469A" offset="0"/>
			<stop style="stop-color:#DE4397" offset="0.211"/>
			<stop style="stop-color:#D2398F" offset="0.4277"/>
			<stop style="stop-color:#BD2982" offset="0.6465"/>
			<stop style="stop-color:#B4227C" offset="0.7234"/>
		</linearGradient>
		<path d="M17.793,335.478h127.354&#10;&#9;&#9;&#9;c0,0,7.119-22.008-16.018-14.737c-11.313,3.555,9.068-30.99-18.391-24.464c-19.106,4.541-25.807-13.548-39.749-13.264&#10;&#9;&#9;&#9;c-36.651,0.748-11.865,29.769-34.211,27.117C18.644,307.977,10.773,322.509,17.793,335.478z" style="fill:url(#SVGID_00000026133428504007834030000018351203889211862432_);"/>
		
			<linearGradient gradientTransform="matrix(0.9241 0.2908 -0.2547 0.8092 184.0749 -53.2447)" y2="321.2434" x2="411.0241" y1="321.2434" x1="392.0435" gradientUnits="userSpaceOnUse" id="SVGID_00000053532055688436704990000000444245791646800290_">
			<stop style="stop-color:#9061E2" offset="0"/>
			<stop style="stop-color:#8D5DE2" offset="0.2942"/>
			<stop style="stop-color:#8551E2" offset="0.596"/>
			<stop style="stop-color:#8049E2" offset="0.7234"/>
		</linearGradient>
		<path d="M460.19,334.888&#10;&#9;&#9;&#9;c0,0,2.182-10.159,6.172-9.734c3.688,0.393,3.676-8.111,7.857-7.195c3.827,0.838,1.989-7.92,5.894-6.759&#10;&#9;&#9;&#9;c3.572,1.062,3.236-5.657,5.7-3.989c2.336,1.581-1.232,6.028-0.517,7.99c0.715,1.964-4.777,5.659-4.243,7.033&#10;&#9;&#9;&#9;c0.534,1.373-2.313,6.7-5.246,9.014c-3.217,2.538,1.57,6.813-4.772,10.366C465.266,342.52,460.112,339.652,460.19,334.888z" style="fill:url(#SVGID_00000053532055688436704990000000444245791646800290_);"/>
		<g>
			<path d="M485.697,308.837c0,0-0.368,0.448-1.013,1.231c-0.645,0.783-1.527,1.934-2.602,3.299&#10;&#9;&#9;&#9;&#9;c-1.068,1.371-2.289,2.989-3.569,4.742c-1.296,1.742-2.614,3.645-3.905,5.565c-1.289,1.921-2.539,3.869-3.639,5.738&#10;&#9;&#9;&#9;&#9;c-0.527,0.947-1.089,1.834-1.557,2.711c-0.466,0.877-0.926,1.699-1.317,2.473c-0.381,0.78-0.73,1.495-1.04,2.129&#10;&#9;&#9;&#9;&#9;c-0.324,0.629-0.532,1.208-0.742,1.67c-0.399,0.933-0.628,1.467-0.628,1.467s0.196-0.546,0.539-1.501&#10;&#9;&#9;&#9;&#9;c0.182-0.474,0.357-1.069,0.643-1.717c0.28-0.651,0.596-1.385,0.94-2.186c0.367-0.791,0.8-1.63,1.24-2.528&#10;&#9;&#9;&#9;&#9;c0.441-0.897,0.968-1.81,1.497-2.764c1.085-1.891,2.317-3.863,3.593-5.807c1.318-1.915,2.663-3.81,3.982-5.543&#10;&#9;&#9;&#9;&#9;c1.302-1.746,2.61-3.304,3.716-4.648C484.083,310.506,485.697,308.837,485.697,308.837z" style="fill:#401A4C;"/>
		</g>
		
			<linearGradient gradientTransform="matrix(0.9964 0.0847 -0.0847 0.9964 48.3141 -49.0275)" y2="326.7707" x2="459.8246" y1="326.7707" x1="436.2165" gradientUnits="userSpaceOnUse" id="SVGID_00000178183438033652678370000015908052273065851047_">
			<stop style="stop-color:#9061E2" offset="0"/>
			<stop style="stop-color:#8D5DE2" offset="0.2942"/>
			<stop style="stop-color:#8551E2" offset="0.596"/>
			<stop style="stop-color:#8049E2" offset="0.7234"/>
		</linearGradient>
		<path d="M453.499,335.585&#10;&#9;&#9;&#9;c0,0-0.046-9.954,3.805-10.972c3.852-1.017,2.22-10.3,7.162-11.493c4.942-1.193,0.981-11.212,6.466-12.628&#10;&#9;&#9;&#9;c5.485-1.416,3.899-11.233,8.194-11.137s-1.152,10.391,0.268,12.663c1.421,2.272-6.316,11.027-5.361,12.453&#10;&#9;&#9;&#9;c0.955,1.426-2.102,9.234-5.393,12.988c-3.291,3.754,2.926,6.703-3.698,11.788C459.391,341.195,454.311,339.688,453.499,335.585z" style="fill:url(#SVGID_00000178183438033652678370000015908052273065851047_);"/>
		<g>
			<path d="M479.166,292.047c0,0-0.366,0.707-1.005,1.944c-0.626,1.243-1.521,3.02-2.594,5.152&#10;&#9;&#9;&#9;&#9;c-1.078,2.129-2.287,4.636-3.591,7.318c-0.638,1.347-1.324,2.727-1.973,4.151c-0.659,1.42-1.333,2.86-1.971,4.316&#10;&#9;&#9;&#9;&#9;c-0.666,1.444-1.312,2.896-1.925,4.335c-0.635,1.431-1.211,2.858-1.77,4.238c-0.574,1.375-1.071,2.726-1.566,3.999&#10;&#9;&#9;&#9;&#9;c-0.511,1.268-0.895,2.5-1.293,3.623c-0.406,1.121-0.696,2.174-0.983,3.099c-0.293,0.924-0.525,1.736-0.665,2.417&#10;&#9;&#9;&#9;&#9;c-0.318,1.355-0.5,2.13-0.5,2.13s0.148-0.782,0.407-2.151c0.111-0.69,0.308-1.513,0.561-2.451c0.245-0.94,0.49-2.011,0.877-3.143&#10;&#9;&#9;&#9;&#9;c0.371-1.136,0.727-2.384,1.208-3.667c0.465-1.288,0.925-2.66,1.498-4.039c0.55-1.389,1.116-2.826,1.741-4.264&#10;&#9;&#9;&#9;&#9;c0.603-1.448,1.237-2.91,1.895-4.361c0.651-1.454,1.338-2.891,2.009-4.308c0.662-1.421,1.36-2.798,2.01-4.142&#10;&#9;&#9;&#9;&#9;c1.325-2.676,2.629-5.139,3.75-7.248c1.122-2.108,2.109-3.837,2.793-5.05C478.771,292.738,479.166,292.047,479.166,292.047z" style="fill:#401A4C;"/>
		</g>
		
			<linearGradient gradientTransform="matrix(0.9621 0.1136 -0.1142 0.9673 85.2268 -44.1286)" y2="317.1818" x2="434.6548" y1="317.1818" x1="410.074" gradientUnits="userSpaceOnUse" id="SVGID_00000118377035106428263760000017875305394709780393_">
			<stop style="stop-color:#9061E2" offset="0"/>
			<stop style="stop-color:#8D5DE2" offset="0.2942"/>
			<stop style="stop-color:#8551E2" offset="0.596"/>
			<stop style="stop-color:#8049E2" offset="0.7234"/>
		</linearGradient>
		<path d="M441.087,331.18&#10;&#9;&#9;&#9;c0,0,0.559-15.423,5.756-15.996c4.803-0.529,2.919-12.891,8.468-12.807c5.079,0.077,0.804-12.11,6.053-11.587&#10;&#9;&#9;&#9;c4.802,0.478,2.896-9.191,6.414-7.502c3.335,1.602-0.251,9.133,1.095,11.773c1.346,2.642-4.867,9.655-3.881,11.492&#10;&#9;&#9;&#9;c0.985,1.837-1.486,10.433-4.729,14.673c-3.558,4.65,3.505,9.438-3.825,16.498C449.257,340.761,442.034,338.129,441.087,331.18z" style="fill:url(#SVGID_00000118377035106428263760000017875305394709780393_);"/>
		<g>
			<path d="M467.988,285.686c0,0-0.381,0.764-1.047,2.102c-0.665,1.338-1.563,3.275-2.651,5.592&#10;&#9;&#9;&#9;&#9;c-1.077,2.322-2.303,5.046-3.562,7.986c-1.282,2.931-2.553,6.097-3.787,9.277c-0.593,1.599-1.214,3.187-1.778,4.768&#10;&#9;&#9;&#9;&#9;c-0.54,1.589-1.119,3.137-1.593,4.664c-0.463,1.53-0.984,2.986-1.377,4.398c-0.396,1.41-0.801,2.737-1.12,3.975&#10;&#9;&#9;&#9;&#9;c-0.308,1.242-0.59,2.38-0.84,3.389c-0.264,1.007-0.4,1.904-0.561,2.633c-0.294,1.465-0.463,2.302-0.463,2.302&#10;&#9;&#9;&#9;&#9;s0.134-0.843,0.369-2.319c0.131-0.736,0.23-1.642,0.454-2.659c0.218-1.019,0.463-2.169,0.731-3.423&#10;&#9;&#9;&#9;&#9;c0.292-1.249,0.667-2.587,1.032-4.011c0.362-1.425,0.844-2.899,1.307-4.435c0.464-1.535,1.033-3.092,1.563-4.69&#10;&#9;&#9;&#9;&#9;c0.554-1.59,1.163-3.188,1.748-4.795c1.261-3.179,2.56-6.343,3.866-9.27c1.282-2.938,2.604-5.622,3.725-7.927&#10;&#9;&#9;&#9;&#9;C466.288,288.652,467.988,285.686,467.988,285.686z" style="fill:#401A4C;"/>
		</g>
		
			<linearGradient y2="306.0316" x2="459.3109" y1="306.0316" x1="428.7388" gradientUnits="userSpaceOnUse" id="SVGID_00000044173900895220773690000005204009840518935975_">
			<stop style="stop-color:#9061E2" offset="0"/>
			<stop style="stop-color:#8D5DE2" offset="0.2942"/>
			<stop style="stop-color:#8551E2" offset="0.596"/>
			<stop style="stop-color:#8049E2" offset="0.7234"/>
		</linearGradient>
		<path d="M428.858,334.705&#10;&#9;&#9;&#9;c0,0-1.151-12.839,3.707-14.574c4.858-1.735,1.735-13.533,7.981-15.615c6.246-2.082,0.036-14.574,6.958-17.003&#10;&#9;&#9;&#9;c6.922-2.429,3.799-14.921,9.351-15.268c5.552-0.347-0.347,13.533,1.735,16.309c2.082,2.776-6.94,14.921-5.552,16.656&#10;&#9;&#9;&#9;c1.388,1.735-1.699,12.145-5.534,17.35c-3.835,5.205,4.511,8.328-3.479,15.615C437.076,341.298,430.356,339.91,428.858,334.705z" style="fill:url(#SVGID_00000044173900895220773690000005204009840518935975_);"/>
		<g>
			<path d="M457.202,275.713c0,0-0.399,0.95-1.096,2.613c-0.679,1.67-1.649,4.056-2.813,6.919&#10;&#9;&#9;&#9;&#9;c-1.164,2.863-2.464,6.225-3.855,9.828c-0.678,1.808-1.413,3.663-2.096,5.572c-0.696,1.904-1.41,3.835-2.075,5.784&#10;&#9;&#9;&#9;&#9;c-0.7,1.937-1.372,3.882-2.004,5.808c-0.66,1.917-1.246,3.823-1.815,5.667c-0.59,1.838-1.077,3.638-1.572,5.336&#10;&#9;&#9;&#9;&#9;c-0.515,1.694-0.872,3.327-1.258,4.822c-0.398,1.493-0.65,2.885-0.913,4.112c-0.128,0.614-0.247,1.189-0.358,1.721&#10;&#9;&#9;&#9;&#9;c-0.097,0.534-0.152,1.03-0.22,1.475c-0.253,1.785-0.398,2.805-0.398,2.805s0.11-1.025,0.304-2.818&#10;&#9;&#9;&#9;&#9;c0.053-0.448,0.092-0.947,0.171-1.485c0.093-0.536,0.193-1.115,0.3-1.735c0.22-1.238,0.425-2.645,0.803-4.146&#10;&#9;&#9;&#9;&#9;c0.358-1.505,0.686-3.152,1.169-4.858c0.463-1.711,0.912-3.529,1.5-5.371c0.559-1.852,1.134-3.766,1.783-5.69&#10;&#9;&#9;&#9;&#9;c0.621-1.934,1.281-3.888,1.972-5.831c0.678-1.948,1.406-3.878,2.115-5.78c0.697-1.907,1.444-3.76,2.134-5.565&#10;&#9;&#9;&#9;&#9;c1.413-3.599,2.812-6.925,4.019-9.772c1.209-2.846,2.276-5.192,3.02-6.835C456.772,276.65,457.202,275.713,457.202,275.713z" style="fill:#401A4C;"/>
		</g>
		
			<linearGradient y2="320.7393" x2="369.8587" y1="320.7393" x1="491.7553" gradientUnits="userSpaceOnUse" id="SVGID_00000011013257806912868850000018388056097070696368_">
			<stop style="stop-color:#E2469A" offset="0"/>
			<stop style="stop-color:#DE4397" offset="0.211"/>
			<stop style="stop-color:#D2398F" offset="0.4277"/>
			<stop style="stop-color:#BD2982" offset="0.6465"/>
			<stop style="stop-color:#B4227C" offset="0.7234"/>
		</linearGradient>
		<path d="M372.229,345.163h118.564&#10;&#9;&#9;&#9;c0,0,6.628-20.489-14.913-13.72c-10.532,3.31,8.442-28.851-17.122-22.776c-17.788,4.228-24.026-12.613-37.005-12.348&#10;&#9;&#9;&#9;c-34.122,0.696-11.046,27.715-31.85,25.245C373.022,319.56,365.693,333.089,372.229,345.163z" style="fill:url(#SVGID_00000011013257806912868850000018388056097070696368_);"/>
		<g>
			
				<linearGradient y2="275.9831" x2="455.2341" y1="275.9831" x1="371.1261" gradientUnits="userSpaceOnUse" id="SVGID_00000169544993871254780330000006020331521970015922_">
				<stop style="stop-color:#268DA6" offset="0"/>
				<stop style="stop-color:#2ABFD4" offset="1"/>
			</linearGradient>
			<path d="M376.893,354.499&#10;&#9;&#9;&#9;&#9;c-12.075-38.487-3.813-71.585,12.075-56.96c15.888,14.625,0-25.401,0-44.644c0-19.243,10.804-18.473,17.795-7.697&#10;&#9;&#9;&#9;&#9;c6.991,10.776,10.804-13.855,17.159-33.868s29.87-18.474,28.599,5.388c-1.271,23.862-19.066,29.25-8.262,35.408&#10;&#9;&#9;&#9;&#9;c10.804,6.158,19.066,20.783-2.542,34.638c-21.608,13.855-10.168,27.71-2.542,29.25c7.626,1.539,17.795,18.474-8.262,38.487&#10;&#9;&#9;&#9;&#9;C407.398,354.499,376.893,354.499,376.893,354.499z" style="fill:url(#SVGID_00000169544993871254780330000006020331521970015922_);"/>
			<g>
				<path d="M435.997,219.796c0,0-0.843,2.003-2.197,5.556c-0.658,1.784-1.479,3.941-2.348,6.442&#10;&#9;&#9;&#9;&#9;&#9;c-0.901,2.49-1.833,5.328-2.897,8.407c-1.006,3.099-2.135,6.444-3.216,10.018c-0.545,1.785-1.105,3.619-1.678,5.494&#10;&#9;&#9;&#9;&#9;&#9;c-0.543,1.883-1.097,3.807-1.661,5.764c-1.153,3.906-2.201,7.983-3.306,12.113c-1.104,4.131-2.08,8.365-3.135,12.579&#10;&#9;&#9;&#9;&#9;&#9;c-0.979,4.232-1.958,8.464-2.922,12.63c-0.873,4.186-1.732,8.306-2.563,12.293c-0.748,4.004-1.471,7.874-2.156,11.544&#10;&#9;&#9;&#9;&#9;&#9;c-0.711,3.666-1.197,7.164-1.744,10.376c-0.503,3.219-1.05,6.158-1.397,8.783c-0.377,2.621-0.706,4.906-0.976,6.788&#10;&#9;&#9;&#9;&#9;&#9;c-0.541,3.764-0.851,5.915-0.851,5.915s0.275-2.156,0.756-5.928c0.241-1.886,0.533-4.177,0.868-6.804&#10;&#9;&#9;&#9;&#9;&#9;c0.301-2.633,0.801-5.58,1.298-8.802c0.53-3.217,0.997-6.72,1.688-10.391c0.666-3.676,1.368-7.553,2.094-11.563&#10;&#9;&#9;&#9;&#9;&#9;c0.81-3.995,1.647-8.122,2.497-12.316c0.942-4.175,1.9-8.416,2.857-12.657c1.079-4.212,2.08-8.444,3.207-12.573&#10;&#9;&#9;&#9;&#9;&#9;c1.13-4.128,2.2-8.202,3.375-12.105c0.575-1.955,1.14-3.878,1.694-5.759c0.583-1.873,1.154-3.705,1.709-5.489&#10;&#9;&#9;&#9;&#9;&#9;c1.101-3.57,2.249-6.912,3.273-10.007c1.07-3.08,2.051-5.903,2.994-8.379c0.909-2.488,1.764-4.634,2.451-6.407&#10;&#9;&#9;&#9;&#9;&#9;C435.122,221.786,435.997,219.796,435.997,219.796z" style="fill:#401A4C;"/>
			</g>
			<g>
				<path d="M400.09,255.588c0,0,0.022,0.224,0.064,0.644c0.037,0.42,0.101,1.037,0.219,1.814&#10;&#9;&#9;&#9;&#9;&#9;c0.108,0.778,0.268,1.722,0.507,2.789c0.222,1.072,0.547,2.264,0.937,3.55c0.799,2.56,2.006,5.494,3.888,8.261&#10;&#9;&#9;&#9;&#9;&#9;c0.937,1.381,2.038,2.723,3.34,3.891c1.307,1.159,2.807,2.138,4.435,2.822c1.622,0.695,3.365,1.11,5.107,1.222&#10;&#9;&#9;&#9;&#9;&#9;c1.743,0.078,3.47-0.054,5.105-0.401c0.82-0.156,1.605-0.409,2.386-0.604c0.759-0.269,1.515-0.499,2.229-0.783&#10;&#9;&#9;&#9;&#9;&#9;c0.706-0.304,1.402-0.582,2.06-0.884c0.648-0.325,1.274-0.639,1.875-0.941c0.597-0.31,1.143-0.654,1.681-0.951&#10;&#9;&#9;&#9;&#9;&#9;c0.536-0.299,1.042-0.588,1.497-0.893c0.916-0.6,1.744-1.082,2.373-1.555c1.284-0.912,2.018-1.433,2.018-1.433&#10;&#9;&#9;&#9;&#9;&#9;s-0.714,0.549-1.963,1.51c-0.612,0.499-1.422,1.012-2.318,1.649c-0.895,0.639-1.97,1.263-3.136,1.952&#10;&#9;&#9;&#9;&#9;&#9;c-0.599,0.317-1.223,0.648-1.869,0.99c-0.658,0.319-1.355,0.615-2.063,0.939c-0.717,0.302-1.479,0.553-2.244,0.843&#10;&#9;&#9;&#9;&#9;&#9;c-0.788,0.223-1.59,0.473-2.425,0.642c-1.667,0.365-3.439,0.516-5.237,0.447c-1.798-0.103-3.609-0.517-5.297-1.229&#10;&#9;&#9;&#9;&#9;&#9;c-1.685-0.722-3.23-1.748-4.566-2.951c-1.331-1.212-2.448-2.594-3.394-4.01c-0.957-1.411-1.707-2.885-2.315-4.317&#10;&#9;&#9;&#9;&#9;&#9;c-0.626-1.426-1.091-2.825-1.47-4.126c-0.373-1.303-0.651-2.516-0.832-3.601c-0.199-1.082-0.323-2.033-0.402-2.818&#10;&#9;&#9;&#9;&#9;&#9;c-0.088-0.784-0.129-1.402-0.15-1.823C400.103,255.813,400.09,255.588,400.09,255.588z" style="fill:#401A4C;"/>
			</g>
			<g>
				<path d="M384.519,314.858c0,0,0.06,0.256,0.173,0.737c0.123,0.478,0.254,1.193,0.512,2.077&#10;&#9;&#9;&#9;&#9;&#9;c0.123,0.443,0.259,0.934,0.407,1.469c0.17,0.528,0.354,1.099,0.551,1.708c0.413,1.213,0.933,2.561,1.564,4.003&#10;&#9;&#9;&#9;&#9;&#9;c0.657,1.428,1.418,2.958,2.403,4.464c0.957,1.521,2.116,3.033,3.486,4.429c1.363,1.4,2.94,2.685,4.702,3.73&#10;&#9;&#9;&#9;&#9;&#9;c1.757,1.056,3.71,1.836,5.727,2.342c2.016,0.52,4.098,0.764,6.152,0.801c2.057,0.018,4.077-0.2,6.015-0.506&#10;&#9;&#9;&#9;&#9;&#9;c1.926-0.372,3.784-0.783,5.505-1.325c0.865-0.254,1.701-0.52,2.496-0.82c0.802-0.279,1.573-0.56,2.299-0.869&#10;&#9;&#9;&#9;&#9;&#9;c1.469-0.574,2.779-1.186,3.952-1.704c1.151-0.566,2.155-1.059,2.981-1.466c1.625-0.871,2.553-1.368,2.553-1.368&#10;&#9;&#9;&#9;&#9;&#9;s-0.912,0.528-2.508,1.452c-0.814,0.434-1.802,0.961-2.936,1.566c-1.157,0.559-2.452,1.218-3.92,1.814&#10;&#9;&#9;&#9;&#9;&#9;c-0.723,0.324-1.493,0.621-2.295,0.917c-0.794,0.316-1.631,0.599-2.499,0.872c-1.724,0.578-3.592,1.036-5.542,1.414&#10;&#9;&#9;&#9;&#9;&#9;c-1.961,0.322-4.009,0.556-6.104,0.55c-2.092-0.025-4.221-0.259-6.289-0.781c-2.063-0.531-4.062-1.344-5.856-2.437&#10;&#9;&#9;&#9;&#9;&#9;c-1.8-1.082-3.404-2.406-4.786-3.843c-1.396-1.426-2.539-2.993-3.481-4.551c-0.97-1.544-1.71-3.104-2.346-4.556&#10;&#9;&#9;&#9;&#9;&#9;c-0.617-1.462-1.094-2.836-1.467-4.068c-0.177-0.618-0.343-1.197-0.497-1.732c-0.131-0.541-0.252-1.038-0.36-1.486&#10;&#9;&#9;&#9;&#9;&#9;c-0.229-0.894-0.336-1.611-0.444-2.094C384.571,315.116,384.519,314.858,384.519,314.858z" style="fill:#401A4C;"/>
			</g>
			<g>
				<path d="M400.09,283.252c0,0,0.202,1.526,0.702,3.767c0.237,1.123,0.586,2.416,0.997,3.785&#10;&#9;&#9;&#9;&#9;&#9;c0.412,1.369,0.925,2.808,1.565,4.186c0.613,1.389,1.344,2.727,2.166,3.885c0.418,0.573,0.839,1.115,1.271,1.602&#10;&#9;&#9;&#9;&#9;&#9;c0.436,0.483,0.882,0.907,1.311,1.282c0.445,0.354,0.853,0.679,1.245,0.929c0.376,0.274,0.748,0.44,1.034,0.615&#10;&#9;&#9;&#9;&#9;&#9;c0.607,0.286,0.953,0.45,0.953,0.45s-0.366-0.113-1-0.35c-0.301-0.151-0.693-0.289-1.097-0.534&#10;&#9;&#9;&#9;&#9;&#9;c-0.42-0.219-0.865-0.515-1.335-0.861c-0.458-0.361-0.938-0.773-1.412-1.247c-0.469-0.477-0.936-1.009-1.368-1.597&#10;&#9;&#9;&#9;&#9;&#9;c-0.864-1.176-1.637-2.532-2.284-3.941c-0.63-1.418-1.126-2.887-1.52-4.281c-0.397-1.394-0.646-2.724-0.838-3.862&#10;&#9;&#9;&#9;&#9;&#9;C400.111,284.795,400.09,283.252,400.09,283.252z" style="fill:#401A4C;"/>
			</g>
			<g>
				<path d="M406.434,330.187c0,0,1.816,0.242,4.547,0.28c2.721,0.029,6.385-0.138,9.882-1.08&#10;&#9;&#9;&#9;&#9;&#9;c1.753-0.435,3.452-1.079,4.935-1.889c0.373-0.199,0.732-0.406,1.073-0.627c0.35-0.208,0.682-0.427,0.99-0.662&#10;&#9;&#9;&#9;&#9;&#9;c0.319-0.221,0.618-0.451,0.89-0.694c0.28-0.234,0.552-0.46,0.785-0.706c0.495-0.465,0.898-0.938,1.264-1.353&#10;&#9;&#9;&#9;&#9;&#9;c0.347-0.429,0.626-0.824,0.863-1.145c0.428-0.674,0.672-1.059,0.672-1.059s-0.21,0.406-0.578,1.118&#10;&#9;&#9;&#9;&#9;&#9;c-0.214,0.338-0.468,0.756-0.789,1.215c-0.338,0.447-0.715,0.958-1.205,1.449c-0.228,0.262-0.495,0.504-0.771,0.755&#10;&#9;&#9;&#9;&#9;&#9;c-0.269,0.261-0.564,0.509-0.881,0.749c-0.616,0.503-1.316,0.972-2.075,1.39c-0.753,0.432-1.57,0.802-2.412,1.148&#10;&#9;&#9;&#9;&#9;&#9;c-0.848,0.327-1.724,0.625-2.617,0.858c-1.79,0.45-3.618,0.725-5.337,0.843c-1.72,0.124-3.329,0.086-4.701,0.006&#10;&#9;&#9;&#9;&#9;&#9;C408.221,330.609,406.434,330.187,406.434,330.187z" style="fill:#401A4C;"/>
			</g>
			<g>
				<path d="M422.335,233.252c0,0-0.204,1.225-0.418,3.065c-0.117,0.919-0.202,1.995-0.288,3.146&#10;&#9;&#9;&#9;&#9;&#9;c-0.086,1.15-0.121,2.381-0.079,3.606c0.019,1.225,0.11,2.45,0.323,3.573c0.212,1.122,0.497,2.155,0.89,2.979&#10;&#9;&#9;&#9;&#9;&#9;c0.189,0.415,0.399,0.778,0.601,1.089c0.202,0.313,0.409,0.564,0.592,0.761c0.17,0.21,0.342,0.336,0.442,0.442&#10;&#9;&#9;&#9;&#9;&#9;c0.106,0.1,0.163,0.153,0.163,0.153s-0.063-0.045-0.181-0.129c-0.111-0.092-0.31-0.191-0.501-0.387&#10;&#9;&#9;&#9;&#9;&#9;c-0.206-0.181-0.444-0.415-0.684-0.714c-0.242-0.296-0.499-0.65-0.716-1.07c-0.232-0.412-0.438-0.884-0.623-1.393&#10;&#9;&#9;&#9;&#9;&#9;c-0.189-0.508-0.345-1.058-0.465-1.635c-0.243-1.154-0.364-2.405-0.406-3.655c-0.016-1.251,0.046-2.498,0.156-3.66&#10;&#9;&#9;&#9;&#9;&#9;c0.108-1.163,0.298-2.237,0.463-3.154C421.953,234.436,422.335,233.252,422.335,233.252z" style="fill:#401A4C;"/>
			</g>
			<g>
				<path d="M430.807,233.252c0,0,1.393-0.028,3.343-0.64c0.49-0.138,1.003-0.347,1.542-0.564&#10;&#9;&#9;&#9;&#9;&#9;c0.527-0.25,1.088-0.495,1.632-0.822c0.566-0.287,1.096-0.673,1.641-1.052c0.543-0.381,1.031-0.854,1.549-1.285&#10;&#9;&#9;&#9;&#9;&#9;c0.464-0.49,0.967-0.945,1.396-1.453c0.406-0.527,0.845-1.019,1.201-1.545c0.338-0.538,0.683-1.048,1.008-1.535&#10;&#9;&#9;&#9;&#9;&#9;c0.277-0.516,0.538-1.003,0.78-1.453c0.246-0.449,0.464-0.866,0.617-1.254c0.167-0.383,0.312-0.716,0.431-0.991&#10;&#9;&#9;&#9;&#9;&#9;c0.247-0.549,0.388-0.863,0.388-0.863s-0.103,0.328-0.284,0.901c-0.094,0.286-0.209,0.634-0.34,1.033&#10;&#9;&#9;&#9;&#9;&#9;c-0.116,0.406-0.295,0.845-0.524,1.311c-0.22,0.469-0.445,0.985-0.708,1.519c-0.301,0.513-0.617,1.057-0.963,1.609&#10;&#9;&#9;&#9;&#9;&#9;c-0.354,0.546-0.795,1.06-1.203,1.609c-0.432,0.531-0.94,1.013-1.413,1.525c-0.543,0.438-1.057,0.915-1.626,1.299&#10;&#9;&#9;&#9;&#9;&#9;c-0.571,0.383-1.126,0.769-1.715,1.055c-0.564,0.335-1.162,0.547-1.715,0.773c-0.566,0.191-1.101,0.374-1.609,0.488&#10;&#9;&#9;&#9;&#9;&#9;C432.201,233.41,430.807,233.252,430.807,233.252z" style="fill:#401A4C;"/>
			</g>
		</g>
		<g>
			
				<linearGradient y2="278.6836" x2="40.3497" y1="278.6836" x1="143.2174" gradientUnits="userSpaceOnUse" id="SVGID_00000033360363718259635550000016116064043045267123_">
				<stop style="stop-color:#268DA6" offset="0"/>
				<stop style="stop-color:#2ABFD4" offset="1"/>
			</linearGradient>
			<path d="M135.341,346.15&#10;&#9;&#9;&#9;&#9;c13.38-31.365,9.155-64.226-8.45-52.307s-6.973-14.947-4.929-30.496c3.545-26.974-10.807-30.272-18.553-21.489&#10;&#9;&#9;&#9;&#9;c-7.746,8.782-10.183-4.705-17.225-21.015c-7.042-16.31-41.086-10.861-39.677,8.585c1.408,19.446,19.638,25.063,7.667,30.082&#10;&#9;&#9;&#9;&#9;c-11.972,5.018-23.943,17.286,0,28.578c23.943,11.291,15.784,18.501,7.333,19.755S46.611,329.84,75.484,346.15&#10;&#9;&#9;&#9;&#9;C101.539,346.15,135.341,346.15,135.341,346.15z" style="fill:url(#SVGID_00000033360363718259635550000016116064043045267123_);"/>
			<g>
				<path d="M69.85,236.373c0,0,0.932,1.56,2.453,4.352c0.737,1.408,1.665,3.102,2.649,5.086&#10;&#9;&#9;&#9;&#9;&#9;c1.017,1.968,2.097,4.221,3.255,6.689c1.138,2.476,2.361,5.165,3.594,8.035c1.218,2.876,2.52,5.902,3.748,9.081&#10;&#9;&#9;&#9;&#9;&#9;c1.287,3.156,2.503,6.46,3.737,9.819c0.635,1.673,1.233,3.374,1.807,5.091c0.585,1.713,1.173,3.433,1.761,5.153&#10;&#9;&#9;&#9;&#9;&#9;c1.127,3.456,2.143,6.947,3.204,10.364c0.957,3.447,1.9,6.84,2.812,10.123c0.862,3.296,1.611,6.504,2.367,9.535&#10;&#9;&#9;&#9;&#9;&#9;c0.787,3.023,1.318,5.931,1.913,8.59c0.554,2.668,1.133,5.1,1.475,7.289c0.381,2.181,0.713,4.083,0.986,5.649&#10;&#9;&#9;&#9;&#9;&#9;c0.547,3.131,0.859,4.92,0.859,4.92s-0.347-1.783-0.953-4.903c-0.303-1.56-0.671-3.454-1.094-5.626&#10;&#9;&#9;&#9;&#9;&#9;c-0.387-2.179-1.013-4.599-1.572-7.264c-0.612-2.653-1.162-5.554-1.968-8.57c-0.775-3.022-1.544-6.222-2.427-9.509&#10;&#9;&#9;&#9;&#9;&#9;c-0.932-3.273-1.896-6.656-2.875-10.092c-1.08-3.406-2.122-6.884-3.265-10.329c-0.576-1.721-1.151-3.443-1.725-5.157&#10;&#9;&#9;&#9;&#9;&#9;c-0.562-1.719-1.148-3.421-1.771-5.096c-1.21-3.362-2.403-6.671-3.668-9.831c-1.206-3.183-2.486-6.214-3.684-9.095&#10;&#9;&#9;&#9;&#9;&#9;c-1.212-2.874-2.416-5.568-3.537-8.049c-1.152-2.467-2.184-4.74-3.161-6.726c-0.945-2.001-1.84-3.71-2.55-5.132&#10;&#9;&#9;&#9;&#9;&#9;C70.752,237.951,69.85,236.373,69.85,236.373z" style="fill:#401A4C;"/>
			</g>
			<g>
				<path d="M109.638,265.543c0,0-0.02,0.221-0.057,0.635c-0.025,0.415-0.111,1.019-0.225,1.789&#10;&#9;&#9;&#9;&#9;&#9;c-0.136,0.766-0.326,1.692-0.623,2.736c-0.309,1.039-0.699,2.206-1.271,3.417c-1.122,2.42-2.855,5.114-5.408,7.326&#10;&#9;&#9;&#9;&#9;&#9;c-1.262,1.113-2.72,2.094-4.317,2.856c-1.593,0.77-3.31,1.34-5.07,1.702c-1.769,0.313-3.564,0.445-5.327,0.401&#10;&#9;&#9;&#9;&#9;&#9;c-1.76-0.071-3.487-0.254-5.127-0.59c-0.821-0.163-1.629-0.318-2.401-0.551c-0.778-0.206-1.537-0.414-2.258-0.672&#10;&#9;&#9;&#9;&#9;&#9;c-1.463-0.455-2.798-1.013-4.038-1.503c-1.213-0.554-2.343-1.023-3.294-1.543c-0.959-0.502-1.81-0.91-2.476-1.31&#10;&#9;&#9;&#9;&#9;&#9;c-1.349-0.768-2.12-1.207-2.12-1.207s0.787,0.408,2.165,1.123c0.68,0.373,1.546,0.747,2.521,1.21&#10;&#9;&#9;&#9;&#9;&#9;c0.968,0.478,2.112,0.9,3.326,1.432c1.244,0.46,2.582,0.985,4.041,1.404c0.72,0.24,1.476,0.43,2.249,0.616&#10;&#9;&#9;&#9;&#9;&#9;c0.769,0.208,1.565,0.367,2.377,0.518c1.62,0.319,3.322,0.487,5.049,0.544c1.73,0.031,3.483-0.114,5.206-0.429&#10;&#9;&#9;&#9;&#9;&#9;c1.718-0.341,3.392-0.883,4.948-1.621c1.56-0.73,2.987-1.675,4.226-2.752c1.241-1.074,2.323-2.249,3.232-3.455&#10;&#9;&#9;&#9;&#9;&#9;c0.905-1.21,1.618-2.456,2.21-3.636c0.583-1.187,1.015-2.322,1.363-3.341c0.335-1.023,0.56-1.937,0.725-2.694&#10;&#9;&#9;&#9;&#9;&#9;c0.142-0.76,0.252-1.36,0.293-1.774C109.61,265.762,109.638,265.543,109.638,265.543z" style="fill:#401A4C;"/>
			</g>
			<g>
				<path d="M126.891,313.844c0,0-0.071,0.256-0.204,0.737c-0.132,0.481-0.318,1.188-0.63,2.068&#10;&#9;&#9;&#9;&#9;&#9;c-0.144,0.444-0.311,0.933-0.529,1.452c-0.208,0.522-0.423,1.093-0.712,1.676c-0.524,1.192-1.241,2.48-2.123,3.822&#10;&#9;&#9;&#9;&#9;&#9;c-0.911,1.32-1.976,2.707-3.296,3.999c-1.318,1.288-2.846,2.514-4.573,3.553c-3.44,2.121-7.642,3.387-11.891,3.918&#10;&#9;&#9;&#9;&#9;&#9;c-2.133,0.226-4.278,0.293-6.383,0.219c-2.103-0.107-4.17-0.285-6.147-0.615c-1.983-0.287-3.874-0.713-5.654-1.153&#10;&#9;&#9;&#9;&#9;&#9;c-1.778-0.449-3.446-0.924-4.966-1.42c-1.533-0.458-2.897-0.998-4.121-1.43c-1.206-0.48-2.257-0.899-3.123-1.244&#10;&#9;&#9;&#9;&#9;&#9;c-1.712-0.734-2.69-1.154-2.69-1.154s0.991,0.387,2.725,1.065c0.875,0.316,1.938,0.7,3.157,1.14&#10;&#9;&#9;&#9;&#9;&#9;c1.236,0.39,2.613,0.882,4.146,1.318c1.523,0.467,3.193,0.909,4.968,1.323c1.778,0.405,3.664,0.786,5.631,1.069&#10;&#9;&#9;&#9;&#9;&#9;c1.963,0.315,4.011,0.479,6.092,0.572c2.083,0.061,4.199-0.02,6.299-0.252c4.186-0.498,8.319-1.717,11.705-3.777&#10;&#9;&#9;&#9;&#9;&#9;c1.694-1.017,3.219-2.182,4.539-3.427c1.321-1.247,2.396-2.595,3.32-3.883c0.436-0.663,0.87-1.288,1.219-1.924&#10;&#9;&#9;&#9;&#9;&#9;c0.379-0.618,0.699-1.226,0.982-1.807c0.306-0.57,0.537-1.13,0.761-1.643c0.234-0.51,0.415-0.99,0.573-1.428&#10;&#9;&#9;&#9;&#9;&#9;c0.339-0.866,0.549-1.568,0.696-2.044C126.812,314.098,126.891,313.844,126.891,313.844z" style="fill:#401A4C;"/>
			</g>
			<g>
				<path d="M109.638,288.087c0,0-0.05,1.393-0.529,3.427c-0.141,0.502-0.258,1.057-0.453,1.623&#10;&#9;&#9;&#9;&#9;&#9;c-0.172,0.574-0.373,1.174-0.635,1.774c-0.227,0.615-0.551,1.212-0.844,1.835c-0.323,0.607-0.679,1.213-1.052,1.805&#10;&#9;&#9;&#9;&#9;&#9;c-0.433,0.552-0.791,1.162-1.282,1.654c-0.464,0.512-0.905,1.032-1.423,1.444c-0.248,0.216-0.493,0.428-0.732,0.636&#10;&#9;&#9;&#9;&#9;&#9;c-0.245,0.199-0.521,0.349-0.769,0.519c-0.507,0.326-0.971,0.657-1.463,0.852c-0.475,0.224-0.911,0.425-1.301,0.588&#10;&#9;&#9;&#9;&#9;&#9;c-0.408,0.116-0.764,0.217-1.058,0.301c-0.585,0.158-0.919,0.249-0.919,0.249s0.322-0.129,0.884-0.354&#10;&#9;&#9;&#9;&#9;&#9;c0.28-0.108,0.621-0.24,1.011-0.391c0.366-0.201,0.78-0.427,1.231-0.674c0.467-0.215,0.902-0.566,1.376-0.909&#10;&#9;&#9;&#9;&#9;&#9;c0.232-0.179,0.489-0.336,0.716-0.543c0.226-0.208,0.457-0.42,0.691-0.636c0.493-0.406,0.911-0.919,1.352-1.424&#10;&#9;&#9;&#9;&#9;&#9;c0.466-0.482,0.802-1.086,1.214-1.626c0.373-0.569,0.729-1.152,1.056-1.738c0.297-0.603,0.625-1.18,0.858-1.779&#10;&#9;&#9;&#9;&#9;&#9;c0.259-0.587,0.497-1.16,0.697-1.715c0.223-0.547,0.369-1.086,0.536-1.574c0.287-0.99,0.524-1.82,0.643-2.412&#10;&#9;&#9;&#9;&#9;&#9;C109.58,288.429,109.638,288.087,109.638,288.087z" style="fill:#401A4C;"/>
			</g>
			<g>
				<path d="M102.608,326.337c0,0-1.904,0.35-4.802,0.509c-1.448,0.07-3.143,0.128-4.958,0.043&#10;&#9;&#9;&#9;&#9;&#9;c-1.814-0.083-3.749-0.252-5.665-0.574c-0.955-0.178-1.907-0.375-2.83-0.628c-0.927-0.237-1.824-0.532-2.68-0.849&#10;&#9;&#9;&#9;&#9;&#9;c-0.858-0.312-1.658-0.691-2.4-1.078c-0.738-0.397-1.41-0.816-2.006-1.239c-0.588-0.432-1.111-0.853-1.528-1.275&#10;&#9;&#9;&#9;&#9;&#9;c-0.443-0.394-0.759-0.806-1.045-1.118c-0.275-0.323-0.448-0.61-0.585-0.789c-0.131-0.184-0.201-0.282-0.201-0.282&#10;&#9;&#9;&#9;&#9;&#9;s0.307,0.376,0.869,0.999c0.304,0.29,0.641,0.675,1.104,1.034c0.437,0.386,0.978,0.764,1.567,1.169&#10;&#9;&#9;&#9;&#9;&#9;c0.601,0.391,1.276,0.774,2.013,1.133c0.743,0.35,1.541,0.682,2.383,0.986c0.843,0.3,1.727,0.578,2.643,0.799&#10;&#9;&#9;&#9;&#9;&#9;c0.911,0.237,1.852,0.417,2.795,0.582c1.884,0.342,3.797,0.535,5.593,0.641c1.797,0.105,3.48,0.152,4.923,0.129&#10;&#9;&#9;&#9;&#9;&#9;C100.683,326.506,102.608,326.337,102.608,326.337z" style="fill:#401A4C;"/>
			</g>
			<g>
				<path d="M84.989,247.339c0,0,0.417,0.967,0.803,2.498c0.182,0.766,0.391,1.667,0.508,2.65&#10;&#9;&#9;&#9;&#9;&#9;c0.116,0.983,0.181,2.041,0.147,3.105c-0.056,1.061-0.234,2.122-0.536,3.081c-0.298,0.961-0.78,1.792-1.289,2.413&#10;&#9;&#9;&#9;&#9;&#9;c-0.26,0.307-0.519,0.569-0.777,0.768c-0.239,0.22-0.495,0.35-0.68,0.487c-0.406,0.223-0.643,0.331-0.643,0.331&#10;&#9;&#9;&#9;&#9;&#9;s0.211-0.153,0.58-0.422c0.165-0.157,0.396-0.31,0.6-0.551c0.222-0.222,0.437-0.502,0.666-0.806&#10;&#9;&#9;&#9;&#9;&#9;c0.216-0.316,0.425-0.673,0.607-1.071c0.175-0.401,0.333-0.833,0.465-1.292c0.265-0.917,0.409-1.938,0.441-2.964&#10;&#9;&#9;&#9;&#9;&#9;c0.058-1.026,0.02-2.06-0.07-3.026c-0.093-0.965-0.197-1.869-0.331-2.638C85.232,248.361,84.989,247.339,84.989,247.339z" style="fill:#401A4C;"/>
			</g>
			<g>
				<path d="M75.601,247.339c0,0-0.337,0.04-0.93,0.031c-0.592-0.01-1.443-0.032-2.45-0.196&#10;&#9;&#9;&#9;&#9;&#9;c-0.506-0.07-1.048-0.177-1.618-0.312c-0.576-0.112-1.161-0.316-1.774-0.5c-0.59-0.248-1.227-0.442-1.824-0.754&#10;&#9;&#9;&#9;&#9;&#9;c-0.609-0.288-1.223-0.59-1.798-0.964c-0.595-0.342-1.133-0.768-1.663-1.185c-0.553-0.388-0.996-0.889-1.469-1.322&#10;&#9;&#9;&#9;&#9;&#9;c-0.491-0.417-0.827-0.95-1.209-1.393c-0.388-0.441-0.67-0.92-0.942-1.352c-0.264-0.437-0.543-0.814-0.704-1.198&#10;&#9;&#9;&#9;&#9;&#9;c-0.173-0.376-0.323-0.703-0.447-0.973c-0.24-0.54-0.377-0.848-0.377-0.848s0.173,0.29,0.476,0.798&#10;&#9;&#9;&#9;&#9;&#9;c0.147,0.254,0.326,0.563,0.532,0.917c0.194,0.36,0.507,0.707,0.785,1.124c0.292,0.408,0.593,0.86,0.998,1.269&#10;&#9;&#9;&#9;&#9;&#9;c0.399,0.411,0.757,0.903,1.235,1.306c0.468,0.411,0.905,0.89,1.451,1.256c0.521,0.395,1.05,0.796,1.633,1.119&#10;&#9;&#9;&#9;&#9;&#9;c0.55,0.374,1.141,0.678,1.728,0.969c0.575,0.316,1.193,0.515,1.763,0.769c0.597,0.181,1.155,0.424,1.712,0.564&#10;&#9;&#9;&#9;&#9;&#9;c0.55,0.165,1.077,0.3,1.57,0.398c0.982,0.211,1.813,0.344,2.399,0.399C75.262,247.329,75.601,247.339,75.601,247.339z" style="fill:#401A4C;"/>
			</g>
		</g>
		<g>
			<path d="M386.341,320.739H113.659V149.095c0-3.602,2.92-6.523,6.523-6.523h259.637&#10;&#9;&#9;&#9;&#9;c3.602,0,6.523,2.92,6.523,6.523V320.739z" style="fill:#9061E2;"/>
			<rect height="136.309" width="247.736" style="fill:#FFFFFF;" y="161.273" x="126.132"/>
			<text transform="matrix(1 0 0 1 163.812 255.5736)"><tspan style="fill:#E2469A; font-family:'Montserrat-ExtraBold'; font-size:82.6746px;" y="0" x="0">404</tspan><tspan style="fill:#E2469A; font-family:'Montserrat-Regular'; font-size:14.1732px;" y="17.008" x="18.653">PAGE NOT FOUND</tspan></text>
			<polygon points="440,391.244 60,391.244 113.659,320.739 386.341,320.739" style="fill:#8049E2;"/>
			
				<linearGradient y2="371.822" x2="304.9679" y1="371.822" x1="195.0321" gradientUnits="userSpaceOnUse" id="SVGID_00000101063093088925326930000007064077771119470775_">
				<stop style="stop-color:#9061E2" offset="0"/>
				<stop style="stop-color:#8D5DE2" offset="0.2942"/>
				<stop style="stop-color:#8551E2" offset="0.596"/>
				<stop style="stop-color:#8049E2" offset="0.7234"/>
			</linearGradient>
			<polygon points="304.968,380.088 &#10;&#9;&#9;&#9;&#9;195.032,380.088 198.842,363.556 301.158,363.556" style="fill:url(#SVGID_00000101063093088925326930000007064077771119470775_);"/>
			<g>
				<path d="M304.968,380.088l-27.484,0.123L250,380.266l-54.968,0.085l-0.33,0l0.074-0.322l3.795-16.535&#10;&#9;&#9;&#9;&#9;&#9;l0.05-0.216l0.222,0L250,363.357l51.158,0.122l0.061,0l0.013,0.059L304.968,380.088z M304.968,380.088l-3.885-16.515&#10;&#9;&#9;&#9;&#9;&#9;l0.074,0.059L250,363.755l-51.158,0.079l0.271-0.216l-3.825,16.528l-0.256-0.321L250,379.91l27.484,0.055L304.968,380.088z" style="fill:#401A4C;"/>
			</g>
			<polygon points="144.442,337.877 &#10;&#9;&#9;&#9;&#9;114.282,337.877 118.498,331.78 147.721,331.78" style="fill:#9061E2;stroke:#401A4C;stroke-width:0.5669;stroke-miterlimit:10;"/>
			<polygon points="174.601,337.877 &#10;&#9;&#9;&#9;&#9;144.442,337.877 147.721,331.78 176.943,331.78" style="fill:#9061E2;stroke:#401A4C;stroke-width:0.5669;stroke-miterlimit:10;"/>
			<polygon points="204.761,337.877 &#10;&#9;&#9;&#9;&#9;174.601,337.877 176.943,331.78 206.166,331.78" style="fill:#9061E2;stroke:#401A4C;stroke-width:0.5669;stroke-miterlimit:10;"/>
			<polygon points="234.92,337.877 &#10;&#9;&#9;&#9;&#9;204.761,337.877 206.166,331.78 235.389,331.78" style="fill:#9061E2;stroke:#401A4C;stroke-width:0.5669;stroke-miterlimit:10;"/>
			<polygon points="265.08,337.877 234.92,337.877 &#10;&#9;&#9;&#9;&#9;235.389,331.78 264.611,331.78" style="fill:#9061E2;stroke:#401A4C;stroke-width:0.5669;stroke-miterlimit:10;"/>
			<polygon points="295.239,337.877 &#10;&#9;&#9;&#9;&#9;265.08,337.877 264.611,331.78 293.834,331.78" style="fill:#9061E2;stroke:#401A4C;stroke-width:0.5669;stroke-miterlimit:10;"/>
			<polygon points="325.399,337.877 &#10;&#9;&#9;&#9;&#9;295.239,337.877 293.834,331.78 323.057,331.78" style="fill:#9061E2;stroke:#401A4C;stroke-width:0.5669;stroke-miterlimit:10;"/>
			<polygon points="355.558,337.877 &#10;&#9;&#9;&#9;&#9;325.399,337.877 323.057,331.78 352.279,331.78" style="fill:#9061E2;stroke:#401A4C;stroke-width:0.5669;stroke-miterlimit:10;"/>
			<polygon points="385.718,337.877 &#10;&#9;&#9;&#9;&#9;355.558,337.877 352.279,331.78 381.502,331.78" style="fill:#9061E2;stroke:#401A4C;stroke-width:0.5669;stroke-miterlimit:10;"/>
			<polygon points="140.946,344.378 &#10;&#9;&#9;&#9;&#9;109.787,344.378 114.282,337.877 144.442,337.877" style="fill:#9061E2;stroke:#401A4C;stroke-width:0.5669;stroke-miterlimit:10;"/>
			<polygon points="172.104,344.378 &#10;&#9;&#9;&#9;&#9;140.946,344.378 144.442,337.877 174.601,337.877" style="fill:#9061E2;stroke:#401A4C;stroke-width:0.5669;stroke-miterlimit:10;"/>
			<polygon points="203.262,344.378 &#10;&#9;&#9;&#9;&#9;172.104,344.378 174.601,337.877 204.761,337.877" style="fill:#9061E2;stroke:#401A4C;stroke-width:0.5669;stroke-miterlimit:10;"/>
			<polygon points="234.421,344.378 &#10;&#9;&#9;&#9;&#9;203.262,344.378 204.761,337.877 234.92,337.877" style="fill:#9061E2;stroke:#401A4C;stroke-width:0.5669;stroke-miterlimit:10;"/>
			<polygon points="265.579,344.378 &#10;&#9;&#9;&#9;&#9;234.421,344.378 234.92,337.877 265.08,337.877" style="fill:#9061E2;stroke:#401A4C;stroke-width:0.5669;stroke-miterlimit:10;"/>
			<polygon points="296.737,344.378 &#10;&#9;&#9;&#9;&#9;265.579,344.378 265.08,337.877 295.239,337.877" style="fill:#9061E2;stroke:#401A4C;stroke-width:0.5669;stroke-miterlimit:10;"/>
			<polygon points="327.896,344.378 &#10;&#9;&#9;&#9;&#9;296.737,344.378 295.239,337.877 325.399,337.877" style="fill:#9061E2;stroke:#401A4C;stroke-width:0.5669;stroke-miterlimit:10;"/>
			<polygon points="359.054,344.378 &#10;&#9;&#9;&#9;&#9;327.896,344.378 325.399,337.877 355.558,337.877" style="fill:#9061E2;stroke:#401A4C;stroke-width:0.5669;stroke-miterlimit:10;"/>
			<polygon points="390.212,344.378 &#10;&#9;&#9;&#9;&#9;359.054,344.378 355.558,337.877 385.718,337.877" style="fill:#9061E2;stroke:#401A4C;stroke-width:0.5669;stroke-miterlimit:10;"/>
			<polygon points="137.21,351.324 &#10;&#9;&#9;&#9;&#9;104.984,351.324 109.787,344.378 140.946,344.378" style="fill:#9061E2;stroke:#401A4C;stroke-width:0.5669;stroke-miterlimit:10;"/>
			<polygon points="169.436,351.324 &#10;&#9;&#9;&#9;&#9;137.21,351.324 140.946,344.378 172.104,344.378" style="fill:#9061E2;stroke:#401A4C;stroke-width:0.5669;stroke-miterlimit:10;"/>
			<polygon points="201.661,351.324 &#10;&#9;&#9;&#9;&#9;169.436,351.324 172.104,344.378 203.262,344.378" style="fill:#9061E2;stroke:#401A4C;stroke-width:0.5669;stroke-miterlimit:10;"/>
			<polygon points="233.887,351.324 &#10;&#9;&#9;&#9;&#9;201.661,351.324 203.262,344.378 234.421,344.378" style="fill:#9061E2;stroke:#401A4C;stroke-width:0.5669;stroke-miterlimit:10;"/>
			<polygon points="266.113,351.324 &#10;&#9;&#9;&#9;&#9;233.887,351.324 234.421,344.378 265.579,344.378" style="fill:#9061E2;stroke:#401A4C;stroke-width:0.5669;stroke-miterlimit:10;"/>
			<polygon points="298.339,351.324 &#10;&#9;&#9;&#9;&#9;266.113,351.324 265.579,344.378 296.737,344.378" style="fill:#9061E2;stroke:#401A4C;stroke-width:0.5669;stroke-miterlimit:10;"/>
			<polygon points="330.564,351.324 &#10;&#9;&#9;&#9;&#9;298.339,351.324 296.737,344.378 327.896,344.378" style="fill:#9061E2;stroke:#401A4C;stroke-width:0.5669;stroke-miterlimit:10;"/>
			<polygon points="362.79,351.324 &#10;&#9;&#9;&#9;&#9;330.564,351.324 327.896,344.378 359.054,344.378" style="fill:#9061E2;stroke:#401A4C;stroke-width:0.5669;stroke-miterlimit:10;"/>
			<polygon points="395.016,351.324 &#10;&#9;&#9;&#9;&#9;362.79,351.324 359.054,344.378 390.212,344.378" style="fill:#9061E2;stroke:#401A4C;stroke-width:0.5669;stroke-miterlimit:10;"/>
			<polygon points="133.21,358.763 99.841,358.763 &#10;&#9;&#9;&#9;&#9;104.984,351.324 137.21,351.324" style="fill:#9061E2;stroke:#401A4C;stroke-width:0.5669;stroke-miterlimit:10;"/>
			<polygon points="166.578,358.763 &#10;&#9;&#9;&#9;&#9;133.21,358.763 137.21,351.324 169.436,351.324" style="fill:#9061E2;stroke:#401A4C;stroke-width:0.5669;stroke-miterlimit:10;"/>
			<polygon points="199.947,358.763 &#10;&#9;&#9;&#9;&#9;166.578,358.763 169.436,351.324 201.661,351.324" style="fill:#9061E2;stroke:#401A4C;stroke-width:0.5669;stroke-miterlimit:10;"/>
			<polygon points="233.316,358.763 &#10;&#9;&#9;&#9;&#9;199.947,358.763 201.661,351.324 233.887,351.324" style="fill:#9061E2;stroke:#401A4C;stroke-width:0.5669;stroke-miterlimit:10;"/>
			<polygon points="266.684,358.763 &#10;&#9;&#9;&#9;&#9;233.316,358.763 233.887,351.324 266.113,351.324" style="fill:#9061E2;stroke:#401A4C;stroke-width:0.5669;stroke-miterlimit:10;"/>
			<polygon points="300.053,358.763 &#10;&#9;&#9;&#9;&#9;266.684,358.763 266.113,351.324 298.339,351.324" style="fill:#9061E2;stroke:#401A4C;stroke-width:0.5669;stroke-miterlimit:10;"/>
			<polygon points="333.422,358.763 &#10;&#9;&#9;&#9;&#9;300.053,358.763 298.339,351.324 330.564,351.324" style="fill:#9061E2;stroke:#401A4C;stroke-width:0.5669;stroke-miterlimit:10;"/>
			<polygon points="366.79,358.763 &#10;&#9;&#9;&#9;&#9;333.422,358.763 330.564,351.324 362.79,351.324" style="fill:#9061E2;stroke:#401A4C;stroke-width:0.5669;stroke-miterlimit:10;"/>
			<polygon points="400.159,358.763 &#10;&#9;&#9;&#9;&#9;366.79,358.763 362.79,351.324 395.016,351.324" style="fill:#9061E2;stroke:#401A4C;stroke-width:0.5669;stroke-miterlimit:10;"/>
			<polygon points="436.678,403.338 63.322,403.338 60,391.244 440,391.244" style="fill:#9061E2;"/>
			<path d="M255.875,151.715c0,3.245-2.63,5.875-5.875,5.875c-3.245,0-5.875-2.63-5.875-5.875&#10;&#9;&#9;&#9;&#9;c0-3.245,2.631-5.875,5.875-5.875C253.245,145.84,255.875,148.47,255.875,151.715z" style="fill:#8049E2;"/>
		</g>
		<path d="M46.79,412.887c0,0-15.834-25.409,7.11-11.608c-1.379-71.245,21.105-23.414,15.269-3.1&#10;&#9;&#9;&#9;c26.101-67.291,28.984-13.723,11.882,3.642c32.871-28.628,8.477,11.066,8.477,11.066H46.79" style="fill:#2ABFD4;"/>
		<g>
			<path d="M60.683,366.6c0,0-0.047,2.773-0.047,6.93c-0.019,2.078,0.013,4.503,0.03,7.1&#10;&#9;&#9;&#9;&#9;c0.017,2.597,0.085,5.366,0.185,8.133c0.059,1.383,0.118,2.766,0.176,4.127c0.094,1.358,0.146,2.7,0.271,3.99&#10;&#9;&#9;&#9;&#9;c0.135,1.289,0.19,2.545,0.352,3.721c0.149,1.178,0.245,2.301,0.446,3.317c0.19,1.018,0.295,1.968,0.519,2.779&#10;&#9;&#9;&#9;&#9;c0.211,0.813,0.328,1.547,0.541,2.112c0.415,1.139,0.652,1.789,0.652,1.789s-0.27-0.639-0.742-1.758&#10;&#9;&#9;&#9;&#9;c-0.243-0.56-0.396-1.284-0.65-2.094c-0.27-0.808-0.422-1.752-0.635-2.773c-0.231-1.019-0.359-2.141-0.542-3.322&#10;&#9;&#9;&#9;&#9;c-0.197-1.18-0.294-2.435-0.432-3.73c-0.137-1.296-0.201-2.639-0.309-4.002c-0.071-1.365-0.142-2.751-0.214-4.137&#10;&#9;&#9;&#9;&#9;c-0.075-2.775-0.117-5.55-0.11-8.151c0.005-2.601,0.077-5.028,0.143-7.107c0.06-2.08,0.179-3.81,0.244-5.022&#10;&#9;&#9;&#9;&#9;C60.639,367.292,60.683,366.6,60.683,366.6z" style="fill:#401A4C;"/>
		</g>
		<g>
			<path d="M87.934,368.975c0,0-0.033,0.162-0.094,0.467c-0.077,0.303-0.189,0.746-0.332,1.311&#10;&#9;&#9;&#9;&#9;c-0.304,1.123-0.721,2.733-1.307,4.64c-0.579,1.909-1.266,4.133-2.07,6.493c-0.803,2.361-1.706,4.864-2.643,7.355&#10;&#9;&#9;&#9;&#9;c-0.499,1.234-0.978,2.476-1.488,3.682c-0.524,1.201-0.996,2.401-1.532,3.53c-0.521,1.135-1.016,2.235-1.556,3.246&#10;&#9;&#9;&#9;&#9;c-0.523,1.019-1.006,1.987-1.524,2.844c-0.495,0.868-0.947,1.665-1.429,2.323c-0.474,0.66-0.825,1.278-1.221,1.71&#10;&#9;&#9;&#9;&#9;c-0.751,0.89-1.179,1.398-1.179,1.398s0.401-0.529,1.103-1.455c0.37-0.447,0.689-1.085,1.125-1.763&#10;&#9;&#9;&#9;&#9;c0.441-0.676,0.848-1.494,1.322-2.367c0.488-0.865,0.941-1.844,1.432-2.872c0.508-1.019,0.962-2.134,1.478-3.264&#10;&#9;&#9;&#9;&#9;c0.522-1.128,0.981-2.33,1.492-3.532c0.498-1.207,0.962-2.451,1.449-3.684c0.958-2.475,1.883-4.964,2.707-7.312&#10;&#9;&#9;&#9;&#9;c0.824-2.349,1.609-4.537,2.231-6.429c0.633-1.889,1.168-3.461,1.519-4.57c0.172-0.555,0.306-0.991,0.398-1.288&#10;&#9;&#9;&#9;&#9;C87.892,369.136,87.934,368.975,87.934,368.975z" style="fill:#401A4C;"/>
		</g>
		<g>
			<path d="M94.434,396.225c0,0-0.393,1.082-1.238,2.586c-0.426,0.748-0.94,1.615-1.567,2.494&#10;&#9;&#9;&#9;&#9;c-0.63,0.876-1.342,1.783-2.112,2.642c-0.79,0.84-1.617,1.649-2.459,2.33c-0.41,0.353-0.826,0.671-1.243,0.94&#10;&#9;&#9;&#9;&#9;c-0.412,0.276-0.787,0.556-1.171,0.759c-0.373,0.218-0.721,0.408-1.028,0.575c-0.32,0.142-0.6,0.266-0.83,0.367&#10;&#9;&#9;&#9;&#9;c-0.462,0.195-0.725,0.306-0.725,0.306s0.246-0.147,0.676-0.405c0.215-0.126,0.476-0.278,0.776-0.453&#10;&#9;&#9;&#9;&#9;c0.285-0.196,0.608-0.417,0.959-0.659c0.362-0.223,0.713-0.525,1.098-0.823c0.39-0.29,0.771-0.635,1.171-0.983&#10;&#9;&#9;&#9;&#9;c0.809-0.685,1.601-1.498,2.359-2.337c0.774-0.825,1.495-1.702,2.135-2.551c0.635-0.853,1.23-1.651,1.692-2.369&#10;&#9;&#9;&#9;&#9;C93.877,397.228,94.434,396.225,94.434,396.225z" style="fill:#401A4C;"/>
		</g>
		<g>
			<path d="M47.558,401.154c0,0,0.172,0.036,0.454,0.158c0.277,0.128,0.681,0.314,1.111,0.617&#10;&#9;&#9;&#9;&#9;c0.433,0.299,0.929,0.666,1.409,1.116c0.489,0.441,0.965,0.956,1.42,1.487c0.905,1.067,1.668,2.24,2.185,3.145&#10;&#9;&#9;&#9;&#9;c0.271,0.445,0.444,0.849,0.589,1.115c0.131,0.275,0.206,0.432,0.206,0.432s-0.439-0.543-1.061-1.37&#10;&#9;&#9;&#9;&#9;c-0.311-0.413-0.682-0.889-1.082-1.393c-0.395-0.508-0.824-1.044-1.269-1.562c-0.436-0.527-0.894-1.035-1.336-1.497&#10;&#9;&#9;&#9;&#9;c-0.442-0.463-0.862-0.889-1.254-1.22C48.168,401.495,47.558,401.154,47.558,401.154z" style="fill:#401A4C;"/>
		</g>
		<path d="M296.054,124.332h43.878c0,0-0.053-11.045-11.194-7.258c-11.142,3.786-8.155-8.869-22.295-7.909&#10;&#9;&#9;&#9;C293.533,110.041,286.953,119.148,296.054,124.332z" style="fill:#FFFFFF;"/>
		<path d="M259.121,95.5h48.924c0,0-3.761-8.062-8.859-4.031c-5.098,4.031-5.291-13.625-15.603-6.319&#10;&#9;&#9;&#9;C273.271,92.456,255.592,65.024,259.121,95.5z" style="fill:#FFFFFF;"/>
		<g>
			<path d="M174.724,293.929c0.235-0.167,0.543-0.6,1.001-0.562c0.819,0.068,1.307,0.768,1.865,0.653&#10;&#9;&#9;&#9;&#9;c0.558-0.116-1.335-0.868,1.395-1.804c1.496-0.337,2.798-0.305,2.87,0.66c1.315,3.229,4.521,7.805-2.96,8.413l-2.926,0.241&#10;&#9;&#9;&#9;&#9;C175.969,301.53,173.29,294.947,174.724,293.929z" style="fill:#F8CBA3;"/>
			<path d="M158.165,309.617l9.803,9.1l7.158-20.215l4.38,0.647c0,0-2.201,26.92-9.048,29.099&#10;&#9;&#9;&#9;&#9;c-6.847,2.179-23.14-17.427-23.14-17.427L158.165,309.617z" style="fill:#F8CBA3;"/>
			
				<rect height="36.309" width="1.971" style="fill:#3B438C;" transform="matrix(-0.9262 0.377 -0.377 -0.9262 454.5436 501.1989)" y="276.928" x="177.238"/>
			<path d="M150.223,237.824c1.945-0.792,5.452-2.219,7.397-3.011c5.89-2.398,15.008,6.327,20.365,19.488&#10;&#9;&#9;&#9;&#9;c5.357,13.16,4.925,25.773-0.965,28.17c-1.945,0.792-5.452,2.219-7.397,3.011c-5.89,2.398-15.008-6.327-20.365-19.488&#10;&#9;&#9;&#9;&#9;C143.901,252.834,144.333,240.222,150.223,237.824z" style="fill:#4B4BE3;"/>
			
				<ellipse ry="25.728" rx="11.515" cy="258.642" cx="167.32" style="fill:#FFFFFF;" transform="matrix(0.9262 -0.377 0.377 0.9262 -85.166 82.1697)"/>
			<path d="M175.912,255.145c-4.712-11.575-14.403-18.866-20.179-19.029c0.551-0.569,1.177-1.013,1.887-1.302&#10;&#9;&#9;&#9;&#9;c5.89-2.398,15.008,6.327,20.365,19.488c5.357,13.16,4.925,25.773-0.965,28.17c-0.71,0.289-1.468,0.408-2.26,0.386&#10;&#9;&#9;&#9;&#9;C178.78,278.706,180.624,266.719,175.912,255.145z" style="fill:#29BFD4;"/>
			
				<rect height="36.309" width="2.925" style="fill:#4B4BE3;" transform="matrix(-0.9262 0.377 -0.377 -0.9262 462.133 512.7874)" y="283.465" x="179.421"/>
			<path d="M112.527,331.928c0.556-1.752,4.78-7.442,7.396-12.467c3.796,1.575,4.049,3.575,7.006,6.278&#10;&#9;&#9;&#9;&#9;l-5.731,8.007l5.454,24.804l-2.875,1.383C123.777,359.933,111.19,336.141,112.527,331.928z" style="fill:#F8CBA3;"/>
			<path d="M155.603,428.19c1.194,0.484,2.453,0.609,3.81,0.161c1.504-0.747,0.949-2.973,2.276-3.647&#10;&#9;&#9;&#9;&#9;l0.422,0.936c0.882,1.954,12.158,5.416,12.158,5.416v2.757l-18.676,0.137L155.603,428.19z" style="fill:#4B4BE3;"/>
			<path d="M159.413,428.351c-1.357,0.448-2.616,0.323-3.81-0.161l0.019-6.835l4.131-0.941l1.936,4.291&#10;&#9;&#9;&#9;&#9;C160.362,425.378,160.917,427.604,159.413,428.351z" style="fill:#F8CBA3;"/>
			<polygon points="139.695,349.98 148.191,386.043 152.812,424.596 163.257,423.159 162.267,387.023 &#10;&#9;&#9;&#9;&#9;156.37,343.926 140.672,343.926" style="fill:#E2469A;"/>
			<path d="M129.135,427.266c1.082,0.698,2.296,1.057,3.713,0.87c1.617-0.453,1.487-2.743,2.917-3.157&#10;&#9;&#9;&#9;&#9;l0.24,0.998c0.501,2.085,10.932,7.593,10.932,7.593l-0.515,2.709l-18.373-3.355L129.135,427.266z" style="fill:#4B4BE3;"/>
			<path d="M132.848,428.136c-1.417,0.186-2.63-0.172-3.713-0.87l1.296-6.711l4.234-0.153l1.1,4.577&#10;&#9;&#9;&#9;&#9;C134.335,425.393,134.465,427.684,132.848,428.136z" style="fill:#F8CBA3;"/>
			<polygon points="129.771,356.34 129.729,384.477 127.065,423.214 137.594,423.754 143.374,388.069 &#10;&#9;&#9;&#9;&#9;146.491,344.843 133.206,339.835" style="fill:#E2469A;"/>
			<polygon points="157.19,344.664 157.46,356.814 136.942,358.978 129.771,356.34 131.039,345.506" style="fill:#E2469A;"/>
			<path d="M124.385,359.044c0,0,2.949-3.452,5.379-0.213c2.531,3.191,2.531,3.191,2.531,3.191&#10;&#9;&#9;&#9;&#9;c-0.098,0.204-0.266,0.463-0.535,0.54c-0.485,0.138-0.947-0.42-1.847-1.12c-0.376-0.293-0.93-0.69-1.665-1.099&#10;&#9;&#9;&#9;&#9;c1.245,1.681,2.508,3.383,3.525,5.211c0.1,0.179,1.326,2.725,0.078,2.103c-0.146-0.073-0.256-0.198-0.362-0.319&#10;&#9;&#9;&#9;&#9;c-1.202-1.382-2.407-2.761-3.612-4.14c2.476,3.546,3.485,5.523,3.025,5.934c-0.368,0.328-0.81-0.149-1.013-0.409&#10;&#9;&#9;&#9;&#9;c-1.166-1.493-2.332-2.987-3.499-4.48c0.284,0.528,2.411,4.095,1.706,4.587c-0.531,0.371-1.11-1.013-1.27-1.31&#10;&#9;&#9;&#9;&#9;c-0.53-0.984-1.06-1.967-1.59-2.951c0.27,0.741,0.567,1.47,0.791,2.227c0.123,0.414,0.272,0.866,0.278,1.305&#10;&#9;&#9;&#9;&#9;c0.007,0.531-0.253,0.729-0.627,0.194c-0.889-1.273-1.532-2.74-1.976-4.224c-0.336-1.122-0.773-5.187-0.928-6.939" style="fill:#F8CBA3;"/>
			<path d="M150.855,301.773c-1.074-0.582-7.882-4.129-15.481-1.22c-4.594,1.759-7.166,4.753-8.214,6.236&#10;&#9;&#9;&#9;&#9;c0.581,3.559,1.153,7.552,1.385,11.487c0.418,7.073,6.348,21.078,1.226,27.477c9.36,7.073,27.082,7.409,29.103,0&#10;&#9;&#9;&#9;&#9;C155.843,324.872,159.275,305.478,150.855,301.773z" style="fill:#2ABFD4;"/>
			<path d="M127.16,306.789c0,0,8.817,7.249,5.415,17.534l-4.158,4.686c-2.734-2.928-6.47-6.61-10.13-8.48&#10;&#9;&#9;&#9;&#9;C122.506,313.786,127.16,306.789,127.16,306.789z" style="fill:#2ABFD4;"/>
			<g>
				<path d="M132.575,324.323c0,0,0.085-0.291,0.234-0.8c0.119-0.512,0.263-1.249,0.305-2.148&#10;&#9;&#9;&#9;&#9;&#9;c0.067-0.895,0.014-1.944-0.149-3.049c-0.057-0.556-0.199-1.119-0.318-1.692c-0.163-0.564-0.306-1.143-0.526-1.698&#10;&#9;&#9;&#9;&#9;&#9;c-0.174-0.571-0.419-1.116-0.645-1.659c-0.245-0.533-0.509-1.05-0.776-1.543c-0.301-0.473-0.537-0.965-0.831-1.389&#10;&#9;&#9;&#9;&#9;&#9;c-0.292-0.424-0.541-0.847-0.821-1.2c-0.272-0.361-0.522-0.692-0.743-0.985c-0.228-0.289-0.444-0.526-0.613-0.729&#10;&#9;&#9;&#9;&#9;&#9;c-0.339-0.409-0.533-0.642-0.533-0.642s0.223,0.206,0.613,0.566c0.395,0.357,0.934,0.895,1.527,1.593&#10;&#9;&#9;&#9;&#9;&#9;c0.307,0.34,0.586,0.751,0.912,1.164c0.327,0.412,0.607,0.894,0.916,1.377c0.284,0.498,0.566,1.023,0.83,1.566&#10;&#9;&#9;&#9;&#9;&#9;c0.243,0.553,0.509,1.108,0.699,1.694c0.214,0.577,0.35,1.178,0.506,1.763c0.111,0.595,0.244,1.177,0.291,1.752&#10;&#9;&#9;&#9;&#9;&#9;c0.087,0.571,0.076,1.131,0.089,1.658c-0.03,0.528-0.035,1.027-0.111,1.482c-0.043,0.458-0.145,0.869-0.233,1.232&#10;&#9;&#9;&#9;&#9;&#9;c-0.085,0.363-0.209,0.669-0.285,0.924C132.71,324.051,132.575,324.323,132.575,324.323z" style="fill:#401A4C;"/>
			</g>
			<g>
				<path d="M121.198,333.746c0,0-0.135-0.165-0.271-0.43c-0.135-0.265-0.288-0.625-0.379-1&#10;&#9;&#9;&#9;&#9;&#9;c-0.097-0.374-0.133-0.763-0.138-1.06c-0.004-0.297,0.038-0.507,0.038-0.507s0.135,0.165,0.272,0.429&#10;&#9;&#9;&#9;&#9;&#9;c0.136,0.265,0.287,0.625,0.378,1c0.097,0.374,0.132,0.763,0.137,1.06C121.239,333.537,121.198,333.746,121.198,333.746z" style="fill:#401A4C;"/>
			</g>
			<g>
				<path d="M145.168,363.189c0,0,0.045,0.636,0.045,1.584c-0.001,0.949-0.032,2.211-0.126,3.469&#10;&#9;&#9;&#9;&#9;&#9;c-0.087,1.259-0.237,2.513-0.373,3.452c-0.136,0.939-0.273,1.561-0.273,1.561s-0.046-0.636-0.046-1.584&#10;&#9;&#9;&#9;&#9;&#9;c0-0.949,0.032-2.211,0.126-3.469c0.088-1.259,0.239-2.513,0.374-3.452C145.032,363.812,145.168,363.189,145.168,363.189z" style="fill:#401A4C;"/>
			</g>
			<g>
				<path d="M144.096,362.511c0,0,0.43-0.164,1.068-0.388c0.635-0.22,1.482-0.514,2.328-0.808&#10;&#9;&#9;&#9;&#9;&#9;c0.841-0.296,1.679-0.596,2.305-0.845c0.308-0.133,0.581-0.22,0.759-0.306c0.184-0.076,0.295-0.113,0.295-0.113&#10;&#9;&#9;&#9;&#9;&#9;s-0.327,0.329-0.907,0.703c-0.577,0.376-1.399,0.799-2.265,1.097c-0.863,0.309-1.763,0.489-2.442,0.582&#10;&#9;&#9;&#9;&#9;&#9;C144.558,362.525,144.096,362.511,144.096,362.511z" style="fill:#401A4C;"/>
			</g>
			<path d="M147.318,301.272c0.632-0.029,1.659-0.015,2.839,0.317c3.244,0.914,4.718,3.414,7.781,6.691&#10;&#9;&#9;&#9;&#9;c1.203,1.288,3.078,3.151,5.684,5.192c-2.13,3.629-4.26,7.257-6.39,10.886l-10.29-8.87L147.318,301.272z" style="fill:#2ABFD4;"/>
			<path d="M174.724,293.929c0.235-0.167,0.543-0.6,1.001-0.562c0.819,0.068,1.307,0.768,1.865,0.653&#10;&#9;&#9;&#9;&#9;c0.558-0.116-1.335-0.868,1.395-1.804c1.496-0.337,2.798-0.305,2.87,0.66c1.315,3.229,3.921,5.781-3.559,6.389l-2.326,2.265&#10;&#9;&#9;&#9;&#9;C175.969,301.53,173.29,294.947,174.724,293.929z" style="fill:#F8CBA3;"/>
			<g>
				<path d="M182.643,297.916c0,0-0.161,0.163-0.429,0.346c-0.268,0.181-0.636,0.397-1.029,0.553&#10;&#9;&#9;&#9;&#9;&#9;c-0.39,0.162-0.803,0.267-1.122,0.323c-0.319,0.056-0.549,0.051-0.549,0.051s0.161-0.164,0.429-0.347&#10;&#9;&#9;&#9;&#9;&#9;c0.268-0.182,0.637-0.396,1.029-0.552c0.39-0.162,0.804-0.265,1.122-0.323C182.413,297.912,182.643,297.916,182.643,297.916z" style="fill:#401A4C;"/>
			</g>
			<g>
				<path d="M182.069,296.507c0,0-0.161,0.163-0.429,0.346c-0.268,0.181-0.636,0.397-1.029,0.553&#10;&#9;&#9;&#9;&#9;&#9;c-0.39,0.162-0.803,0.267-1.122,0.323c-0.319,0.056-0.549,0.051-0.549,0.051s0.161-0.164,0.429-0.347&#10;&#9;&#9;&#9;&#9;&#9;c0.268-0.182,0.637-0.396,1.029-0.552c0.39-0.162,0.804-0.265,1.122-0.323C181.84,296.503,182.069,296.507,182.069,296.507z" style="fill:#401A4C;"/>
			</g>
			<g>
				<path d="M181.496,295.099c0,0-0.161,0.163-0.429,0.346c-0.268,0.181-0.636,0.397-1.029,0.553&#10;&#9;&#9;&#9;&#9;&#9;c-0.39,0.162-0.803,0.267-1.122,0.323c-0.319,0.056-0.549,0.051-0.549,0.051s0.161-0.164,0.429-0.347&#10;&#9;&#9;&#9;&#9;&#9;c0.268-0.182,0.637-0.396,1.029-0.552c0.39-0.162,0.804-0.265,1.122-0.323C181.266,295.095,181.496,295.099,181.496,295.099z" style="fill:#401A4C;"/>
			</g>
			<g>
				<path d="M180.923,293.69c0,0-0.161,0.163-0.429,0.346c-0.268,0.181-0.636,0.397-1.029,0.553&#10;&#9;&#9;&#9;&#9;&#9;c-0.39,0.162-0.803,0.267-1.122,0.323c-0.319,0.056-0.549,0.051-0.549,0.051s0.161-0.164,0.429-0.347&#10;&#9;&#9;&#9;&#9;&#9;c0.268-0.182,0.637-0.396,1.029-0.552c0.39-0.162,0.804-0.265,1.122-0.323C180.693,293.686,180.923,293.69,180.923,293.69z" style="fill:#401A4C;"/>
			</g>
			<g>
				<path d="M177.685,294.137c1.34-0.629,2.803,1.521-0.548,2.058c1.161,1.304,1.699,2.712,0.447,2.997" style="fill:#F8CBA3;"/>
				<path d="M177.685,294.137c0.163-0.102,0.346-0.181,0.561-0.19c0.205-0.011,0.424,0.022,0.616,0.13&#10;&#9;&#9;&#9;&#9;&#9;c0.187,0.108,0.365,0.268,0.454,0.493c0.107,0.217,0.097,0.492,0.007,0.716c-0.093,0.227-0.256,0.403-0.426,0.537&#10;&#9;&#9;&#9;&#9;&#9;c-0.171,0.144-0.358,0.239-0.548,0.326c-0.382,0.164-0.773,0.257-1.167,0.32l0.164-0.459c0.413,0.483,0.796,1.014,0.997,1.649&#10;&#9;&#9;&#9;&#9;&#9;c0.094,0.311,0.171,0.667,0.046,1.013c-0.076,0.165-0.192,0.31-0.343,0.391c-0.144,0.089-0.307,0.115-0.462,0.13&#10;&#9;&#9;&#9;&#9;&#9;c0.293-0.115,0.53-0.329,0.564-0.59c0.029-0.261-0.051-0.538-0.18-0.794c-0.266-0.513-0.641-0.983-1.038-1.427l-0.32-0.358&#10;&#9;&#9;&#9;&#9;&#9;l0.484-0.102c0.359-0.075,0.716-0.146,1.042-0.277c0.158-0.072,0.318-0.137,0.449-0.232c0.138-0.087,0.243-0.201,0.314-0.319&#10;&#9;&#9;&#9;&#9;&#9;c0.068-0.118,0.104-0.254,0.059-0.393c-0.027-0.142-0.131-0.273-0.257-0.375c-0.127-0.104-0.286-0.184-0.462-0.215&#10;&#9;&#9;&#9;&#9;&#9;C178.069,294.075,177.877,294.097,177.685,294.137z" style="fill:#401A4C;"/>
			</g>
			<g>
				<path d="M153.726,305.059c0,0,0.248,0.226,0.528,0.734c0.281,0.505,0.628,1.261,0.92,2.206&#10;&#9;&#9;&#9;&#9;&#9;c0.303,0.942,0.601,2.058,0.842,3.269c0.233,1.212,0.442,2.51,0.618,3.813c0.152,1.306,0.269,2.613,0.364,3.84&#10;&#9;&#9;&#9;&#9;&#9;c0.101,1.226,0.114,2.376,0.166,3.358c0.037,1.968,0.014,3.28,0.014,3.28s-0.159-1.304-0.332-3.26&#10;&#9;&#9;&#9;&#9;&#9;c-0.217-1.952-0.419-4.561-0.773-7.148c-0.149-1.297-0.331-2.589-0.538-3.794c-0.217-1.202-0.409-2.327-0.664-3.27&#10;&#9;&#9;&#9;&#9;&#9;c-0.239-0.946-0.477-1.727-0.713-2.245C153.934,305.316,153.726,305.059,153.726,305.059z" style="fill:#401A4C;"/>
			</g>
			<path d="M147.938,302.608l-2.439-5.251c4.394-0.097,6.885-5.542,1.793-13.522&#10;&#9;&#9;&#9;&#9;c-5.093-7.98-14.56-4.478-14.78-0.261s4.416,12.816,4.416,12.816l0.055,5.018C136.984,301.409,141.427,306.684,147.938,302.608z" style="fill:#F8CBA3;"/>
			<path d="M136.026,294.611c0.699-1.465-2.025-5.46-0.348-6.144c1.676-0.684,3.006,2.097,3.006,2.097&#10;&#9;&#9;&#9;&#9;l1.417-0.435c0,0-1.619-2.31-0.908-4.254c0.711-1.944-0.601-3.251-0.601-3.251s10.681,1.539,7.486-5.113&#10;&#9;&#9;&#9;&#9;c-3.195-6.652-14.414,0.231-14.225,4.786C125.726,284.09,135.165,297.459,136.026,294.611z" style="fill:#CCB6F3;"/>
			<g>
				<path d="M140.449,294.542c0,0,0.122,0.398,0.449,0.869c0.163,0.236,0.385,0.48,0.654,0.697&#10;&#9;&#9;&#9;&#9;&#9;c0.272,0.212,0.58,0.418,0.927,0.556c0.335,0.16,0.701,0.268,1.05,0.35c0.177,0.03,0.342,0.097,0.509,0.118&#10;&#9;&#9;&#9;&#9;&#9;c0.166,0.028,0.323,0.054,0.468,0.078c0.292,0.044,0.541,0.074,0.715,0.099c0.175,0.026,0.277,0.048,0.277,0.048&#10;&#9;&#9;&#9;&#9;&#9;s-0.098,0.028-0.272,0.062c-0.175,0.021-0.426,0.104-0.732,0.11c-0.306,0.005-0.669,0.04-1.056-0.024&#10;&#9;&#9;&#9;&#9;&#9;c-0.388-0.04-0.8-0.151-1.19-0.323c-0.391-0.17-0.752-0.42-1.035-0.709c-0.29-0.285-0.464-0.628-0.596-0.912&#10;&#9;&#9;&#9;&#9;&#9;C140.383,294.963,140.449,294.542,140.449,294.542z" style="fill:#401A4C;"/>
			</g>
			<g>
				<path d="M143.981,278.608c0,0-0.382-0.012-0.955-0.03c-0.565-0.009-1.306,0.016-2.019,0.128&#10;&#9;&#9;&#9;&#9;&#9;c-0.176,0.037-0.356,0.062-0.525,0.11c-0.165,0.06-0.344,0.079-0.495,0.152c-0.153,0.067-0.316,0.105-0.45,0.181&#10;&#9;&#9;&#9;&#9;&#9;c-0.136,0.072-0.282,0.122-0.388,0.207c-0.23,0.149-0.435,0.27-0.552,0.388c-0.13,0.104-0.213,0.162-0.213,0.162&#10;&#9;&#9;&#9;&#9;&#9;s0.042-0.086,0.13-0.234c0.085-0.15,0.218-0.362,0.439-0.568c0.099-0.116,0.238-0.2,0.373-0.311&#10;&#9;&#9;&#9;&#9;&#9;c0.133-0.115,0.296-0.199,0.465-0.285c0.338-0.177,0.731-0.282,1.123-0.362c0.397-0.05,0.795-0.082,1.164-0.047&#10;&#9;&#9;&#9;&#9;&#9;c0.37,0.017,0.706,0.104,0.992,0.163C143.638,278.413,143.981,278.608,143.981,278.608z" style="fill:#401A4C;"/>
			</g>
			<g>
				<path d="M138.658,277.838c0,0-0.339,0.069-0.813,0.197c-0.471,0.135-1.081,0.342-1.588,0.677&#10;&#9;&#9;&#9;&#9;&#9;c-0.255,0.164-0.493,0.356-0.677,0.574c-0.187,0.212-0.365,0.429-0.463,0.647c-0.24,0.417-0.34,0.755-0.359,0.749&#10;&#9;&#9;&#9;&#9;&#9;c0,0-0.008-0.085-0.008-0.236c0.005-0.149-0.012-0.374,0.069-0.628c0.059-0.256,0.17-0.561,0.367-0.839&#10;&#9;&#9;&#9;&#9;&#9;c0.181-0.293,0.465-0.538,0.763-0.743c0.309-0.191,0.641-0.336,0.965-0.41c0.321-0.09,0.632-0.091,0.889-0.106&#10;&#9;&#9;&#9;&#9;&#9;C138.326,277.724,138.658,277.838,138.658,277.838z" style="fill:#401A4C;"/>
			</g>
		</g>
		<g>
			<path d="M366.298,273.423c0,0-7.132-0.467-7.456,6.224c-0.324,6.691-6.393,3.158-5.304,10.06&#10;&#9;&#9;&#9;&#9;c1.089,6.902-6.691,4.197-4.668,12.707c2.023,8.511,3.861,23.138,16.091,23.605c12.23,0.467,26.235-3.735,21.566-13.227&#10;&#9;&#9;&#9;&#9;c-4.668-9.492,3.36-14.68-6.567-21.812C370.033,283.849,366.921,282.138,366.298,273.423z" style="fill:#4B4BE3;"/>
			<path d="M329.199,288.538c-0.235-0.167-0.543-0.6-1.001-0.562c-0.819,0.068-1.307,0.768-1.865,0.653&#10;&#9;&#9;&#9;&#9;c-0.558-0.116,1.335-0.868-1.395-1.804c-1.496-0.337-2.798-0.305-2.87,0.66c-1.315,3.229-4.521,7.805,2.96,8.413l2.926,0.241&#10;&#9;&#9;&#9;&#9;C327.953,296.139,330.633,289.556,329.199,288.538z" style="fill:#F8CBA3;"/>
			<path d="M328.796,293.111l-2.457,0.69c0,0,0.337,4.115,1.205,9.121c1.739-0.128,3.228-0.834,4.625-1.738&#10;&#9;&#9;&#9;&#9;L328.796,293.111z" style="fill:#F8CBA3;"/>
			<path d="M354.093,297.314l-17.117,15.369l-4.806-11.499c-1.398,0.905-2.887,1.611-4.625,1.738&#10;&#9;&#9;&#9;&#9;c1.25,7.207,3.602,16.262,7.643,17.548c6.847,2.179,19.612-12.577,19.612-12.577L354.093,297.314z" style="fill:#E2469A;"/>
			
				<rect height="36.309" width="1.971" style="fill:#3B438C;" transform="matrix(0.9262 0.377 -0.377 0.9262 133.2488 -101.4149)" y="271.537" x="324.714"/>
			<path d="M353.699,232.433c-1.945-0.792-5.452-2.219-7.397-3.011c-5.89-2.398-15.008,6.327-20.365,19.488&#10;&#9;&#9;&#9;&#9;c-5.357,13.16-4.925,25.773,0.965,28.17c1.945,0.792,5.452,2.219,7.397,3.011c5.89,2.398,15.008-6.327,20.365-19.488&#10;&#9;&#9;&#9;&#9;C360.022,247.443,359.59,234.831,353.699,232.433z" style="fill:#4B4BE3;"/>
			
				<ellipse ry="11.515" rx="25.728" cy="253.251" cx="336.603" style="fill:#FFFFFF;" transform="matrix(0.377 -0.9262 0.9262 0.377 -24.8655 469.5333)"/>
			<path d="M328.011,249.753c4.711-11.575,14.403-18.866,20.179-19.029c-0.551-0.569-1.177-1.013-1.887-1.302&#10;&#9;&#9;&#9;&#9;c-5.89-2.398-15.008,6.327-20.365,19.488c-5.357,13.16-4.925,25.773,0.965,28.17c0.71,0.289,1.469,0.408,2.26,0.386&#10;&#9;&#9;&#9;&#9;C325.143,273.315,323.299,261.328,328.011,249.753z" style="fill:#29BFD4;"/>
			
				<rect height="36.309" width="2.925" style="fill:#4B4BE3;" transform="matrix(0.9262 0.377 -0.377 0.9262 135.5165 -99.9292)" y="278.073" x="321.576"/>
			<path d="M329.199,288.538c-0.235-0.167-0.543-0.6-1.001-0.562c-0.819,0.068-1.307,0.768-1.865,0.653&#10;&#9;&#9;&#9;&#9;c-0.558-0.116,1.335-0.868-1.395-1.804c-1.496-0.337-2.798-0.305-2.87,0.66c-1.315,3.229-3.921,5.781,3.559,6.389l2.326,2.265&#10;&#9;&#9;&#9;&#9;C327.953,296.139,330.633,289.556,329.199,288.538z" style="fill:#F8CBA3;"/>
			<g>
				<path d="M321.28,292.525c0,0,0.23-0.004,0.549,0.052c0.319,0.057,0.733,0.161,1.122,0.323&#10;&#9;&#9;&#9;&#9;&#9;c0.392,0.156,0.761,0.37,1.029,0.553c0.267,0.183,0.429,0.347,0.429,0.347s-0.23,0.005-0.549-0.051&#10;&#9;&#9;&#9;&#9;&#9;c-0.319-0.057-0.732-0.161-1.122-0.323c-0.392-0.156-0.761-0.372-1.029-0.553C321.441,292.688,321.28,292.525,321.28,292.525z" style="fill:#401A4C;"/>
			</g>
			<g>
				<path d="M321.853,291.116c0,0,0.23-0.004,0.549,0.052c0.319,0.057,0.733,0.16,1.122,0.323&#10;&#9;&#9;&#9;&#9;&#9;c0.392,0.156,0.761,0.37,1.029,0.552c0.268,0.183,0.429,0.347,0.429,0.347s-0.23,0.005-0.549-0.051&#10;&#9;&#9;&#9;&#9;&#9;c-0.319-0.057-0.732-0.161-1.122-0.323c-0.392-0.156-0.76-0.372-1.029-0.553C322.015,291.28,321.853,291.116,321.853,291.116z" style="fill:#401A4C;"/>
			</g>
			<g>
				<path d="M322.427,289.707c0,0,0.23-0.004,0.549,0.052c0.319,0.057,0.733,0.16,1.122,0.323&#10;&#9;&#9;&#9;&#9;&#9;c0.392,0.156,0.761,0.37,1.029,0.552c0.268,0.183,0.429,0.347,0.429,0.347s-0.23,0.005-0.549-0.051&#10;&#9;&#9;&#9;&#9;&#9;c-0.319-0.057-0.732-0.161-1.122-0.323c-0.392-0.156-0.76-0.372-1.029-0.553C322.588,289.871,322.427,289.707,322.427,289.707z" style="fill:#401A4C;"/>
			</g>
			<g>
				<path d="M323,288.299c0,0,0.23-0.004,0.549,0.052c0.319,0.057,0.732,0.16,1.122,0.323&#10;&#9;&#9;&#9;&#9;&#9;c0.392,0.156,0.761,0.37,1.029,0.552c0.268,0.183,0.429,0.347,0.429,0.347s-0.23,0.005-0.549-0.051&#10;&#9;&#9;&#9;&#9;&#9;c-0.319-0.057-0.732-0.161-1.122-0.323c-0.392-0.156-0.76-0.372-1.029-0.553C323.162,288.462,323,288.299,323,288.299z" style="fill:#401A4C;"/>
			</g>
			<g>
				<path d="M326.238,288.746c-1.34-0.629-2.803,1.521,0.548,2.059c-1.161,1.304-1.699,2.712-0.447,2.997" style="fill:#F8CBA3;"/>
				<path d="M326.238,288.746c-0.192-0.041-0.384-0.062-0.553-0.027c-0.176,0.031-0.335,0.111-0.462,0.215&#10;&#9;&#9;&#9;&#9;&#9;c-0.126,0.102-0.23,0.233-0.257,0.375c-0.045,0.138-0.009,0.275,0.059,0.393c0.071,0.118,0.176,0.232,0.314,0.319&#10;&#9;&#9;&#9;&#9;&#9;c0.131,0.095,0.291,0.16,0.449,0.232c0.325,0.131,0.683,0.201,1.042,0.277l0.483,0.102l-0.32,0.358&#10;&#9;&#9;&#9;&#9;&#9;c-0.397,0.445-0.772,0.915-1.038,1.427c-0.129,0.257-0.209,0.533-0.18,0.794c0.033,0.261,0.271,0.475,0.564,0.59&#10;&#9;&#9;&#9;&#9;&#9;c-0.154-0.014-0.318-0.041-0.462-0.13c-0.151-0.08-0.266-0.225-0.343-0.391c-0.125-0.345-0.048-0.701,0.046-1.012&#10;&#9;&#9;&#9;&#9;&#9;c0.202-0.635,0.585-1.166,0.997-1.649l0.164,0.459c-0.393-0.063-0.785-0.156-1.167-0.32c-0.191-0.087-0.378-0.182-0.548-0.326&#10;&#9;&#9;&#9;&#9;&#9;c-0.17-0.133-0.333-0.31-0.426-0.537c-0.09-0.224-0.1-0.499,0.007-0.716c0.089-0.225,0.267-0.385,0.454-0.493&#10;&#9;&#9;&#9;&#9;&#9;c0.192-0.108,0.411-0.141,0.616-0.13C325.892,288.565,326.075,288.644,326.238,288.746z" style="fill:#401A4C;"/>
			</g>
			<path d="M346.804,431.303c0.057-0.068,0.109-0.138,0.155-0.21c0.219-5.673-0.7-13.244-0.7-13.244&#10;&#9;&#9;&#9;&#9;l4.395,1.958c0,0,0.448,6.109,1.436,11.326C350.596,432.412,348.676,432.23,346.804,431.303z" style="fill:#F8CBA3;"/>
			<path d="M339.464,436.862c-0.598-3.45,5.634-3.508,7.34-5.559c1.872,0.927,3.792,1.109,5.285-0.171&#10;&#9;&#9;&#9;&#9;c0.13,0.403,0.275,0.76,0.436,1.053c1.471,2.671,0.215,3.452-2.403,3.754C345.99,436.414,339.736,438.436,339.464,436.862z" style="fill:#401A4C;"/>
			<path d="M372.974,430.974c0.029-0.084,0.053-0.167,0.072-0.251c-1.786-5.389-5.303-12.156-5.303-12.156&#10;&#9;&#9;&#9;&#9;l4.802,0.291c0,0,2.563,5.564,5.319,10.102C376.914,430.682,375.053,431.185,372.974,430.974z" style="fill:#F8CBA3;"/>
			<path d="M368.052,438.756c-1.77-3.021,4.045-5.262,4.922-7.782c2.078,0.211,3.94-0.292,4.889-2.014&#10;&#9;&#9;&#9;&#9;c0.263,0.332,0.524,0.615,0.778,0.833c2.315,1.985,1.413,3.157-0.933,4.358C374.006,436.046,368.86,440.134,368.052,438.756z" style="fill:#401A4C;"/>
			<path d="M353.992,330.956c0,0-11.467,23.855-2.092,50.988c1.034,15.097,19.386,45.073,19.386,45.073&#10;&#9;&#9;&#9;&#9;l6.555-2.569c0,0-3.945-11.901-5.117-16.604c-1.121-4.499-2.427-12.25-5.909-17.64c-1.936-2.997-1.919-6.616-1.402-10.147&#10;&#9;&#9;&#9;&#9;c2.329-15.914,4.567-24.317,3.847-34.587" style="fill:#2ABFD4;"/>
			<path d="M350.707,337.337l12.259-5.155c0,0,8.854,4.86,6.402,17.646&#10;&#9;&#9;&#9;&#9;c-2.275,11.859-8.882,18.051-13.816,32.413c-0.931,2.709-2.521,2.281-2.348,5.14c0.63,10.384-0.838,19.648-0.432,28.584&#10;&#9;&#9;&#9;&#9;c0.461,10.156,0.461,10.156,0.461,10.156l-7.524,0.365l-3.975-43.395c1.954-18.003,4.525-34.508,4.525-34.508&#10;&#9;&#9;&#9;&#9;s0.729-13.78,2.915-17.627" style="fill:#2ABFD4;"/>
			<path d="M374.779,306.746c0,0-7.104,18.748-5.532,28.403c-8.981,6.511-20.432,3.143-22.677-0.449&#10;&#9;&#9;&#9;&#9;c1.796-15.268,3.256-18.187,3.256-18.187c-2.245-2.694-3.256-7.971,1.459-11.9c2.389-1.991,2.808-7.3,2.808-7.3&#10;&#9;&#9;&#9;&#9;S378.708,298.888,374.779,306.746z" style="fill:#E2469A;"/>
			<path d="M366.385,299.674c0,0,9.599-15.774,5.22-21.162c-4.378-5.389-9.662-2.184-13.251,4.549&#10;&#9;&#9;&#9;&#9;c-3.589,6.733,2.15,8.586,2.15,8.586l-2.225,8.364C358.279,300.011,362.006,302.873,366.385,299.674z" style="fill:#F8CBA3;"/>
			<g>
				<path d="M369.142,351.221c0,0-3.857-1.033-3.887,2.701c-0.126,3.751-0.126,3.751-0.126,3.751&#10;&#9;&#9;&#9;&#9;&#9;c0.174,0.101,0.426,0.208,0.655,0.122c0.412-0.154,0.448-0.82,0.717-1.826c0.113-0.421,0.296-1.014,0.6-1.714&#10;&#9;&#9;&#9;&#9;&#9;c-0.004,1.928-0.01,3.883,0.222,5.801c0.023,0.188,0.479,2.758,1.034,1.626c0.065-0.133,0.077-0.285,0.089-0.433&#10;&#9;&#9;&#9;&#9;&#9;c0.129-1.68,0.261-3.36,0.394-5.04c0.096,3.988,0.412,6.015,0.947,6.08c0.428,0.051,0.492-0.543,0.5-0.847&#10;&#9;&#9;&#9;&#9;&#9;c0.046-1.746,0.092-3.491,0.138-5.237c0.074,0.549,0.427,4.367,1.176,4.363c0.564-0.003,0.255-1.354,0.214-1.663&#10;&#9;&#9;&#9;&#9;&#9;c-0.137-1.023-0.274-2.046-0.411-3.069c0.194,0.702,0.362,1.409,0.597,2.099c0.128,0.377,0.257,0.797,0.48,1.131&#10;&#9;&#9;&#9;&#9;&#9;c0.27,0.404,0.555,0.415,0.54-0.187c-0.035-1.432-0.342-2.879-0.799-4.234c-0.345-1.024-0.984-2.255-1.781-3.658" style="fill:#F8CBA3;"/>
				<path d="M372.821,348.189c-1.811,3.418-3.064,5.848-3.064,5.848l-3.054-1.767c0,0,0.95-2.441,2.122-5.926&#10;&#9;&#9;&#9;&#9;&#9;C370.132,346.972,371.45,347.604,372.821,348.189z" style="fill:#F8CBA3;"/>
				<path d="M370.959,339.45c2.305-8.242,6.071-14.253,6.071-14.253l-9.123-16.943&#10;&#9;&#9;&#9;&#9;&#9;c0,0-0.379-7.677,5.161-5.425c10.097,14.592,13.28,20.018,11.051,25.5c-2.872,4.18-8.009,13.654-11.298,19.861&#10;&#9;&#9;&#9;&#9;&#9;c-1.371-0.585-2.689-1.217-3.996-1.845C369.509,344.309,370.268,341.921,370.959,339.45z" style="fill:#E2469A;"/>
			</g>
			<g>
				<path d="M366.298,291.943c0,0-0.097,0.085-0.29,0.2c-0.195,0.107-0.475,0.278-0.845,0.397&#10;&#9;&#9;&#9;&#9;&#9;c-0.366,0.127-0.809,0.249-1.299,0.296c-0.489,0.055-1.019,0.027-1.538-0.06c-0.519-0.096-1.018-0.269-1.462-0.477&#10;&#9;&#9;&#9;&#9;&#9;c-0.22-0.107-0.418-0.239-0.609-0.353c-0.193-0.112-0.349-0.258-0.505-0.37c-0.318-0.221-0.516-0.485-0.675-0.639&#10;&#9;&#9;&#9;&#9;&#9;c-0.152-0.164-0.232-0.262-0.232-0.262s0.11,0.064,0.303,0.177c0.187,0.117,0.45,0.289,0.782,0.458&#10;&#9;&#9;&#9;&#9;&#9;c0.166,0.084,0.331,0.198,0.529,0.274c0.193,0.082,0.397,0.168,0.607,0.257c0.43,0.15,0.888,0.301,1.364,0.378&#10;&#9;&#9;&#9;&#9;&#9;c0.472,0.091,0.954,0.125,1.408,0.121c0.453-0.009,0.884-0.032,1.246-0.106C365.815,292.116,366.298,291.943,366.298,291.943z" style="fill:#401A4C;"/>
			</g>
			<g>
				<path d="M364.198,318.002c0,0-0.148,0.111-0.407,0.305c-0.254,0.195-0.654,0.441-1.168,0.683&#10;&#9;&#9;&#9;&#9;&#9;c-0.264,0.096-0.542,0.231-0.856,0.317c-0.314,0.082-0.644,0.193-1.002,0.22c-0.353,0.06-0.725,0.066-1.103,0.06&#10;&#9;&#9;&#9;&#9;&#9;c-0.374-0.037-0.764-0.053-1.135-0.164c-0.379-0.081-0.735-0.241-1.086-0.389c-0.333-0.189-0.658-0.381-0.927-0.63&#10;&#9;&#9;&#9;&#9;&#9;c-0.295-0.215-0.498-0.517-0.702-0.773c-0.17-0.287-0.346-0.545-0.433-0.822c-0.122-0.261-0.183-0.515-0.213-0.746&#10;&#9;&#9;&#9;&#9;&#9;c-0.049-0.225-0.074-0.421-0.069-0.587c-0.001-0.325-0.002-0.51-0.002-0.51s0.04,0.18,0.111,0.495&#10;&#9;&#9;&#9;&#9;&#9;c0.021,0.158,0.079,0.343,0.163,0.547c0.067,0.21,0.165,0.434,0.299,0.665c0.105,0.245,0.296,0.465,0.473,0.706&#10;&#9;&#9;&#9;&#9;&#9;c0.213,0.211,0.417,0.456,0.689,0.637c0.248,0.213,0.556,0.355,0.851,0.525c0.319,0.125,0.638,0.265,0.983,0.331&#10;&#9;&#9;&#9;&#9;&#9;c0.332,0.108,0.688,0.126,1.03,0.168c0.346,0.007,0.688,0.034,1.019-0.009c0.333-0.012,0.649-0.077,0.954-0.124&#10;&#9;&#9;&#9;&#9;&#9;c0.304-0.049,0.58-0.15,0.843-0.215c0.502-0.183,0.941-0.321,1.226-0.481C364.029,318.079,364.198,318.002,364.198,318.002z" style="fill:#401A4C;"/>
			</g>
			<path d="M363.028,277.202c0,0,1.559,4.78,4.048,5.403c0.467,5.446-0.006,9.3,2.72,9.785&#10;&#9;&#9;&#9;&#9;c2.726,0.485,1.637,7.332,4.127,8.11c2.49,0.778,11.671-0.642,6.691-8.413s1.245-9.016-2.023-13.217&#10;&#9;&#9;&#9;&#9;C375.324,274.668,363.648,266.508,363.028,277.202z" style="fill:#4B4BE3;"/>
			<g>
				<path d="M351.156,353.009c0,0-0.02,0.569-0.055,1.564c-0.022,0.995-0.052,2.416-0.089,4.122&#10;&#9;&#9;&#9;&#9;&#9;c-0.043,1.705-0.044,3.694-0.055,5.824c-0.001,2.13,0.013,4.402,0.106,6.671c0.047,2.27,0.17,4.538,0.347,6.658&#10;&#9;&#9;&#9;&#9;&#9;c0.07,1.062,0.198,2.081,0.29,3.052c0.078,0.973,0.253,1.878,0.365,2.722c0.107,0.846,0.288,1.603,0.41,2.285&#10;&#9;&#9;&#9;&#9;&#9;c0.119,0.683,0.252,1.271,0.4,1.745c0.266,0.959,0.418,1.508,0.418,1.508s-0.185-0.538-0.509-1.48&#10;&#9;&#9;&#9;&#9;&#9;c-0.178-0.468-0.347-1.049-0.508-1.726c-0.166-0.674-0.396-1.43-0.524-2.276c-0.141-0.843-0.349-1.751-0.461-2.725&#10;&#9;&#9;&#9;&#9;&#9;c-0.125-0.972-0.296-1.995-0.37-3.061c-0.202-2.129-0.353-4.406-0.423-6.684c-0.067-2.279-0.056-4.558-0.031-6.693&#10;&#9;&#9;&#9;&#9;&#9;c0.033-2.136,0.138-4.127,0.228-5.832C350.903,355.272,351.156,353.009,351.156,353.009z" style="fill:#401A4C;"/>
			</g>
			<g>
				<path d="M346.907,341.127c0,0,1.324,0.608,3.41,1.174c0.521,0.142,1.085,0.294,1.692,0.409&#10;&#9;&#9;&#9;&#9;&#9;c0.601,0.144,1.248,0.217,1.909,0.335c0.664,0.093,1.357,0.155,2.058,0.203c0.703-0.003,1.419,0.068,2.131-0.011l1.068-0.053&#10;&#9;&#9;&#9;&#9;&#9;c0.354-0.028,0.702-0.097,1.05-0.143c0.346-0.057,0.695-0.089,1.031-0.164c0.333-0.086,0.663-0.171,0.987-0.255&#10;&#9;&#9;&#9;&#9;&#9;c0.656-0.143,1.261-0.37,1.838-0.585c0.289-0.105,0.571-0.207,0.843-0.306c0.258-0.131,0.508-0.258,0.747-0.38&#10;&#9;&#9;&#9;&#9;&#9;c0.473-0.254,0.934-0.445,1.309-0.671c0.368-0.239,0.689-0.448,0.954-0.62c0.536-0.34,0.842-0.534,0.842-0.534&#10;&#9;&#9;&#9;&#9;&#9;s-0.283,0.227-0.777,0.623c-0.251,0.196-0.556,0.435-0.905,0.709c-0.357,0.263-0.803,0.497-1.275,0.776&#10;&#9;&#9;&#9;&#9;&#9;c-0.238,0.137-0.485,0.28-0.742,0.428c-0.272,0.116-0.553,0.236-0.843,0.359c-0.577,0.252-1.186,0.525-1.861,0.676&#10;&#9;&#9;&#9;&#9;&#9;c-0.332,0.092-0.669,0.185-1.01,0.279c-0.344,0.083-0.701,0.124-1.056,0.188c-0.357,0.054-0.715,0.13-1.079,0.166l-1.097,0.073&#10;&#9;&#9;&#9;&#9;&#9;c-0.733,0.066-1.466-0.017-2.187-0.028c-0.718-0.062-1.424-0.137-2.101-0.244c-1.354-0.226-2.587-0.575-3.621-0.925&#10;&#9;&#9;&#9;&#9;&#9;c-1.036-0.348-1.865-0.73-2.436-1.007C347.214,341.322,346.907,341.127,346.907,341.127z" style="fill:#401A4C;"/>
			</g>
			<path d="M358.416,294.676c0,0-2.656,8.119-8.208,5.06C354.323,295.342,358.416,294.676,358.416,294.676z" style="fill:#4B4BE3;"/>
			<path d="M371.561,294.676c0,0-1.053,12.475,2.104,15.237c2.824,6.929,7.083,9.264,10.369,7.234" style="fill:#4B4BE3;"/>
			<g>
				<path d="M355.765,291.217c0,0,0.143,0.478,0.215,1.219c0.03,0.37,0.062,0.805,0.045,1.273&#10;&#9;&#9;&#9;&#9;&#9;c-0.015,0.468-0.075,0.967-0.181,1.461c-0.124,0.489-0.264,0.985-0.517,1.404c-0.097,0.221-0.261,0.402-0.397,0.577&#10;&#9;&#9;&#9;&#9;&#9;c-0.128,0.182-0.319,0.301-0.456,0.434c-0.143,0.132-0.326,0.186-0.461,0.259c-0.135,0.08-0.276,0.091-0.383,0.116&#10;&#9;&#9;&#9;&#9;&#9;c-0.218,0.042-0.337,0.056-0.337,0.056s0.109-0.058,0.299-0.16c0.093-0.05,0.213-0.089,0.317-0.196&#10;&#9;&#9;&#9;&#9;&#9;c0.104-0.103,0.242-0.181,0.354-0.315c0.103-0.142,0.249-0.259,0.336-0.441c0.095-0.176,0.206-0.347,0.283-0.553&#10;&#9;&#9;&#9;&#9;&#9;c0.095-0.194,0.165-0.407,0.232-0.629c0.081-0.214,0.124-0.448,0.179-0.676c0.111-0.459,0.176-0.932,0.238-1.378&#10;&#9;&#9;&#9;&#9;&#9;c0.051-0.447,0.113-0.867,0.134-1.231C355.724,291.705,355.765,291.217,355.765,291.217z" style="fill:#401A4C;"/>
			</g>
			<g>
				<path d="M367.535,275.857c-0.381,0.624-0.411,1.408-0.086,2.013c0.141,0.314,0.379,0.574,0.616,0.824&#10;&#9;&#9;&#9;&#9;&#9;c0.256,0.237,0.539,0.444,0.833,0.636l0.084,0.055l0.011,0.112c0.108,1.094,0.159,2.19,0.264,3.28&#10;&#9;&#9;&#9;&#9;&#9;c0.111,1.089,0.188,2.179,0.344,3.255c0.083,0.537,0.183,1.068,0.308,1.593c0.125,0.523,0.273,1.041,0.499,1.522&#10;&#9;&#9;&#9;&#9;&#9;c0.116,0.238,0.234,0.477,0.398,0.682c0.139,0.227,0.34,0.397,0.527,0.584c0.217,0.147,0.434,0.307,0.695,0.381&#10;&#9;&#9;&#9;&#9;&#9;c0.245,0.121,0.523,0.124,0.793,0.187c-0.27-0.022-0.56,0.026-0.827-0.073c-0.282-0.047-0.53-0.186-0.786-0.32&#10;&#9;&#9;&#9;&#9;&#9;c-0.22-0.174-0.474-0.336-0.637-0.572c-0.196-0.214-0.34-0.458-0.482-0.705c-0.278-0.497-0.471-1.028-0.64-1.563&#10;&#9;&#9;&#9;&#9;&#9;c-0.147-0.541-0.259-1.086-0.358-1.634c-0.182-1.095-0.309-2.194-0.373-3.295c-0.066-1.1-0.136-2.198-0.157-3.297l0.095,0.167&#10;&#9;&#9;&#9;&#9;&#9;c-0.3-0.227-0.587-0.47-0.846-0.747c-0.24-0.293-0.484-0.594-0.613-0.961C366.919,277.261,367.047,276.407,367.535,275.857z" style="fill:#401A4C;"/>
			</g>
			<g>
				<path d="M372.55,278.245c0,0,0.563,0.922,1.205,2.409c0.311,0.746,0.67,1.623,0.964,2.594&#10;&#9;&#9;&#9;&#9;&#9;c0.284,0.973,0.573,2.019,0.746,3.094c0.1,0.534,0.138,1.078,0.184,1.612c0.067,0.532,0.025,1.065,0.041,1.575&#10;&#9;&#9;&#9;&#9;&#9;c-0.002,0.511-0.093,1.005-0.139,1.47c-0.089,0.462-0.21,0.891-0.302,1.289c-0.121,0.391-0.293,0.73-0.418,1.035&#10;&#9;&#9;&#9;&#9;&#9;c-0.111,0.313-0.303,0.54-0.425,0.742c-0.265,0.39-0.416,0.613-0.416,0.613s0.116-0.242,0.32-0.666&#10;&#9;&#9;&#9;&#9;&#9;c0.096-0.212,0.255-0.449,0.327-0.769c0.085-0.313,0.21-0.654,0.305-1.037c0.061-0.392,0.147-0.812,0.201-1.26&#10;&#9;&#9;&#9;&#9;&#9;c0.011-0.455,0.058-0.929,0.058-1.423c-0.029-0.495,0.002-1.006-0.077-1.523c-0.057-0.518-0.108-1.044-0.216-1.564&#10;&#9;&#9;&#9;&#9;&#9;c-0.143-1.05-0.402-2.085-0.659-3.048c-0.269-0.961-0.524-1.861-0.79-2.617C372.949,279.246,372.55,278.245,372.55,278.245z" style="fill:#401A4C;"/>
			</g>
			<g>
				<path d="M378.99,293.801c0,0,0.331,0.314,0.729,0.865c0.188,0.281,0.423,0.603,0.623,0.977&#10;&#9;&#9;&#9;&#9;&#9;c0.212,0.368,0.396,0.784,0.571,1.204c0.156,0.428,0.298,0.862,0.383,1.283c0.094,0.419,0.117,0.823,0.139,1.163&#10;&#9;&#9;&#9;&#9;&#9;c0.009,0.344-0.023,0.629-0.055,0.826c-0.03,0.197-0.056,0.306-0.056,0.306s-0.025-0.113-0.055-0.306&#10;&#9;&#9;&#9;&#9;&#9;c-0.013-0.194-0.094-0.464-0.151-0.786c-0.07-0.322-0.184-0.686-0.305-1.076c-0.126-0.388-0.268-0.799-0.429-1.205&#10;&#9;&#9;&#9;&#9;&#9;c-0.32-0.811-0.668-1.62-0.941-2.227C379.171,294.217,378.99,293.801,378.99,293.801z" style="fill:#401A4C;"/>
			</g>
			<g>
				<path d="M377.713,297.55c-0.441,1.696-0.868,3.393-1.214,5.099c-0.163,0.855-0.313,1.712-0.401,2.565&#10;&#9;&#9;&#9;&#9;&#9;c-0.04,0.426-0.065,0.855-0.03,1.264c0.026,0.394,0.162,0.833,0.363,0.874l0.117,0.025l0.053,0.13&#10;&#9;&#9;&#9;&#9;&#9;c0.203,0.492,0.405,0.985,0.561,1.49l0.464,1.506c0.304,0.997,0.607,1.995,1.087,2.881c0.113,0.226,0.269,0.418,0.402,0.631&#10;&#9;&#9;&#9;&#9;&#9;c0.178,0.165,0.316,0.384,0.526,0.511c0.196,0.146,0.398,0.286,0.637,0.357c0.222,0.114,0.471,0.142,0.719,0.179&#10;&#9;&#9;&#9;&#9;&#9;c0.245,0.062,0.503,0.021,0.758,0.027c0.257,0.014,0.51-0.053,0.765-0.091c0.517-0.06,1.004-0.26,1.516-0.383l-0.728,0.299&#10;&#9;&#9;&#9;&#9;&#9;c-0.242,0.107-0.495,0.18-0.753,0.241c-0.257,0.062-0.51,0.153-0.78,0.163c-0.267,0.015-0.534,0.089-0.806,0.035&#10;&#9;&#9;&#9;&#9;&#9;c-0.272-0.026-0.547-0.044-0.805-0.156c-0.273-0.069-0.512-0.211-0.745-0.367c-0.247-0.137-0.415-0.366-0.626-0.548&#10;&#9;&#9;&#9;&#9;&#9;c-0.159-0.221-0.344-0.432-0.479-0.667c-0.281-0.466-0.493-0.962-0.68-1.459c-0.19-0.497-0.35-0.999-0.512-1.498&#10;&#9;&#9;&#9;&#9;&#9;c-0.319-0.999-0.639-1.986-1.023-2.938l0.171,0.154c-0.339-0.11-0.507-0.41-0.588-0.643c-0.092-0.247-0.112-0.482-0.135-0.716&#10;&#9;&#9;&#9;&#9;&#9;c-0.03-0.464,0.006-0.912,0.055-1.356c0.097-0.887,0.283-1.751,0.504-2.603C376.533,300.854,377.073,299.183,377.713,297.55z" style="fill:#401A4C;"/>
			</g>
			<g>
				<path d="M373.022,296.228c0,0-0.102,0.467-0.22,1.155c-0.117,0.688-0.244,1.603-0.27,2.513&#10;&#9;&#9;&#9;&#9;&#9;c-0.016,0.455-0.008,0.91,0.031,1.334c0.033,0.424,0.082,0.823,0.161,1.158c0.078,0.335,0.134,0.624,0.21,0.815&#10;&#9;&#9;&#9;&#9;&#9;c0.06,0.197,0.088,0.316,0.088,0.316s-0.072-0.094-0.188-0.268c-0.119-0.173-0.283-0.428-0.415-0.766&#10;&#9;&#9;&#9;&#9;&#9;c-0.081-0.164-0.129-0.354-0.196-0.552c-0.071-0.198-0.12-0.412-0.156-0.637c-0.091-0.447-0.107-0.935-0.102-1.418&#10;&#9;&#9;&#9;&#9;&#9;c0.023-0.483,0.078-0.964,0.178-1.403c0.09-0.442,0.235-0.838,0.352-1.176C372.751,296.627,373.022,296.228,373.022,296.228z" style="fill:#401A4C;"/>
			</g>
			<g>
				<path d="M369.979,274.842c0,0,0.676,0.174,1.634,0.588c0.476,0.212,1.029,0.47,1.599,0.793&#10;&#9;&#9;&#9;&#9;&#9;c0.567,0.327,1.153,0.713,1.705,1.149c0.541,0.448,1.075,0.919,1.475,1.458c0.225,0.246,0.38,0.537,0.536,0.8&#10;&#9;&#9;&#9;&#9;&#9;c0.174,0.252,0.246,0.547,0.355,0.789c0.122,0.239,0.113,0.504,0.159,0.712c0.049,0.211,0.031,0.401,0.016,0.555&#10;&#9;&#9;&#9;&#9;&#9;c-0.03,0.303-0.047,0.476-0.047,0.476s-0.023-0.171-0.064-0.471c-0.013-0.148-0.028-0.326-0.113-0.518&#10;&#9;&#9;&#9;&#9;&#9;c-0.085-0.189-0.111-0.419-0.248-0.634c-0.131-0.215-0.218-0.471-0.411-0.69c-0.174-0.228-0.345-0.473-0.567-0.698&#10;&#9;&#9;&#9;&#9;&#9;c-0.202-0.239-0.435-0.463-0.682-0.684c-0.233-0.234-0.502-0.439-0.764-0.651c-0.522-0.428-1.085-0.809-1.613-1.168&#10;&#9;&#9;&#9;&#9;&#9;c-0.537-0.345-1.035-0.68-1.483-0.934C370.585,275.184,369.979,274.842,369.979,274.842z" style="fill:#401A4C;"/>
			</g>
			<g>
				<path d="M348.215,313.33c0,0-0.142-0.189-0.281-0.578c-0.131-0.385-0.28-0.983-0.181-1.702&#10;&#9;&#9;&#9;&#9;&#9;c0.089-0.713,0.38-1.534,0.901-2.271c0.26-0.365,0.551-0.731,0.893-1.053c0.332-0.34,0.664-0.631,0.98-0.969&#10;&#9;&#9;&#9;&#9;&#9;c1.262-1.292,2.297-2.826,2.98-4.017c0.688-1.195,1.052-2.053,1.052-2.053s-0.19,0.918-0.768,2.198&#10;&#9;&#9;&#9;&#9;&#9;c-0.296,0.634-0.663,1.37-1.146,2.107c-0.478,0.743-1.056,1.48-1.719,2.168c-0.32,0.334-0.69,0.651-0.997,0.959&#10;&#9;&#9;&#9;&#9;&#9;c-0.324,0.301-0.617,0.622-0.871,0.953c-0.509,0.661-0.858,1.372-0.99,2.03c-0.141,0.654-0.112,1.232-0.027,1.622&#10;&#9;&#9;&#9;&#9;&#9;C348.117,313.116,348.215,313.33,348.215,313.33z" style="fill:#401A4C;"/>
			</g>
		</g>
		<g>
			
				<rect height="43.849" width="4.667" style="fill:#29BFD4;" transform="matrix(0.7071 0.7071 -0.7071 0.7071 170.5394 -7.3703)" y="180.25" x="91.833"/>
			<circle r="38.952" cy="160.121" cx="136.219" style="fill:#4B4BE3;"/>
			<circle r="35.048" cy="160.121" cx="136.219" style="fill:#FFFFFF;"/>
			<text transform="matrix(1 0 0 1 104.453 168.9884)"><tspan style="fill:#E2469A; font-family:'Montserrat-ExtraBold'; font-size:30.4712px;" y="0" x="0">404</tspan><tspan style="fill:#E2469A; font-family:'Montserrat-Regular'; font-size:5.2238px;" y="6.269" x="6.875">PAGE NOT FOUND</tspan></text>
			
				<rect height="43.849" width="8.667" style="fill:#4B4BE3;" transform="matrix(0.7071 0.7071 -0.7071 0.7071 172.2075 -3.3432)" y="184.277" x="85.806"/>
		</g>
		<g>
			
				<rect height="43.849" width="4.667" style="fill:#29BFD4;" transform="matrix(0.7071 -0.7071 0.7071 0.7071 13.825 354.5779)" y="138.677" x="432.583"/>
			<circle r="38.952" cy="118.548" cx="392.864" style="fill:#4B4BE3;"/>
			<circle r="35.048" cy="118.548" cx="392.864" style="fill:#FFFFFF;"/>
			<text transform="matrix(1 0 0 1 361.0979 127.4153)"><tspan style="fill:#2ABFD4; font-family:'Montserrat-ExtraBold'; font-size:30.4712px;" y="0" x="0">404</tspan><tspan style="fill:#2ABFD4; font-family:'Montserrat-Regular'; font-size:5.2238px;" y="6.269" x="6.875">PAGE NOT FOUND</tspan></text>
			
				<rect height="43.849" width="8.667" style="fill:#4B4BE3;" transform="matrix(0.7071 -0.7071 0.7071 0.7071 12.1555 358.6022)" y="142.704" x="434.611"/>
		</g>
	</g>
</g>
<g id="DESIGNED_BY_FREEPIK">
	<g>
		<g id="XMLID_1_">
			<g id="XMLID_20_">
				<path d="M260.104,465.465c-0.432,0.443-0.803,0.931-1.108,1.453l-0.465-0.241&#10;&#9;&#9;&#9;&#9;&#9;c-0.067-0.298-0.349-0.503-0.659-0.466c-0.331,0.039-0.568,0.339-0.529,0.67s0.339,0.568,0.67,0.529&#10;&#9;&#9;&#9;&#9;&#9;c0.065-0.008,0.127-0.026,0.184-0.052l0.451,0.234c-0.251,0.554-0.433,1.139-0.539,1.744l0.746,0.132&#10;&#9;&#9;&#9;&#9;&#9;c0.23-1.306,0.85-2.507,1.792-3.473L260.104,465.465z" style="fill:#1D262D;" id="XMLID_28_"/>
				<path d="M265.592,463.163c-0.171,0-0.341,0.006-0.51,0.017l-0.074-0.626&#10;&#9;&#9;&#9;&#9;&#9;c0.188-0.149,0.296-0.389,0.266-0.645c-0.046-0.393-0.402-0.674-0.795-0.628s-0.674,0.402-0.628,0.795&#10;&#9;&#9;&#9;&#9;&#9;c0.03,0.254,0.189,0.461,0.405,0.564l0.073,0.624c-0.714,0.116-1.403,0.332-2.06,0.646l0.327,0.684&#10;&#9;&#9;&#9;&#9;&#9;c0.934-0.447,1.942-0.673,2.995-0.673c0.496,0,0.993,0.053,1.475,0.158l0.161-0.741&#10;&#9;&#9;&#9;&#9;&#9;C266.693,463.222,266.142,463.163,265.592,463.163z" style="fill:#1D262D;" id="XMLID_27_"/>
				<path d="M272.194,465.711c0.331-0.04,0.566-0.341,0.525-0.672&#10;&#9;&#9;&#9;&#9;&#9;c-0.04-0.331-0.341-0.566-0.672-0.526c-0.309,0.038-0.535,0.304-0.53,0.609l-0.416,0.363c-0.418-0.43-0.89-0.813-1.408-1.139&#10;&#9;&#9;&#9;&#9;&#9;l-0.404,0.641c1.134,0.715,2.021,1.726,2.563,2.925l0.691-0.313c-0.251-0.554-0.568-1.072-0.942-1.545l0.402-0.351&#10;&#9;&#9;&#9;&#9;&#9;C272.065,465.716,272.129,465.719,272.194,465.711z" style="fill:#1D262D;" id="XMLID_26_"/>
				<path d="M265.044,473.372c-0.386,0.023-0.775,0.035-1.157,0.035&#10;&#9;&#9;&#9;&#9;&#9;c-0.88,0-1.733-0.061-2.478-0.179c-0.39-0.062-0.846-0.155-1.27-0.292c1.046,1.861,3.069,3.125,5.388,3.125&#10;&#9;&#9;&#9;&#9;&#9;c2.855,0,5.262-1.916,5.95-4.504c-0.682,0.449-1.505,0.825-2.459,1.123C267.839,473.047,266.464,473.286,265.044,473.372z" style="fill:#1D262D;" id="XMLID_25_"/>
				<path d="M265.592,464.68c-3.352,0-6.08,2.666-6.08,5.943c0,0.426,0.046,0.849,0.137,1.261&#10;&#9;&#9;&#9;&#9;&#9;c0.674,0.483,2.706,0.89,5.348,0.731c2.879-0.173,5.297-0.957,6.672-2.159c-0.005-0.195-0.021-0.39-0.045-0.582&#10;&#9;&#9;&#9;&#9;&#9;C271.244,466.913,268.65,464.68,265.592,464.68z M263.432,471.194c-1.02,0-1.85-0.83-1.85-1.85c0-1.02,0.83-1.85,1.85-1.85&#10;&#9;&#9;&#9;&#9;&#9;c1.02,0,1.85,0.83,1.85,1.85C265.282,470.365,264.452,471.194,263.432,471.194z M268.17,470.286c-0.75,0-1.36-0.61-1.36-1.36&#10;&#9;&#9;&#9;&#9;&#9;s0.61-1.361,1.36-1.361c0.75,0,1.361,0.61,1.361,1.361S268.92,470.286,268.17,470.286z" style="fill:#1D262D;" id="XMLID_21_"/>
			</g>
			<path d="M281.595,466.547c-0.295-0.116-0.806-0.309-1.382-0.237&#10;&#9;&#9;&#9;&#9;c-0.551,0.069-0.844,0.341-0.844,1.007v0.866h2.228v1.717h-2.228v5.455h-1.932v-5.455h-1.34v-1.717h1.34v-0.888&#10;&#9;&#9;&#9;&#9;c0-1.68,0.896-2.783,2.568-2.783c0.642,0,1.157,0.122,1.59,0.308L281.595,466.547z" style="fill:#1D262D;" id="XMLID_18_"/>
			<path d="M286.298,469.879c-0.177-0.03-0.358-0.046-0.526-0.046&#10;&#9;&#9;&#9;&#9;c-0.896,0-1.51,0.548-1.51,1.614v3.908h-1.932v-7.172h1.873v0.785c0.451-0.673,1.14-0.977,2.021-0.977&#10;&#9;&#9;&#9;&#9;c0.414,0,0.848,0.128,1.094,0.337L286.298,469.879z" style="fill:#1D262D;" id="XMLID_16_"/>
			<path d="M293.965,471.757c0,0.222-0.015,0.489-0.037,0.651h-5.085&#10;&#9;&#9;&#9;&#9;c0.207,1.036,0.933,1.488,1.843,1.488c0.622,0,1.295-0.252,1.813-0.688l1.132,1.243c-0.814,0.748-1.85,1.088-3.057,1.088&#10;&#9;&#9;&#9;&#9;c-2.198,0-3.723-1.495-3.723-3.753c0-2.258,1.48-3.797,3.627-3.797C292.544,467.99,293.958,469.522,293.965,471.757z&#10;&#9;&#9;&#9;&#9; M288.851,471.091h3.175c-0.177-0.918-0.733-1.436-1.562-1.436C289.554,469.655,289.021,470.203,288.851,471.091z" style="fill:#1D262D;" id="XMLID_13_"/>
			<path d="M301.618,471.757c0,0.222-0.015,0.489-0.037,0.651h-5.085&#10;&#9;&#9;&#9;&#9;c0.207,1.036,0.932,1.488,1.843,1.488c0.622,0,1.295-0.252,1.813-0.688l1.132,1.243c-0.814,0.748-1.85,1.088-3.057,1.088&#10;&#9;&#9;&#9;&#9;c-2.198,0-3.723-1.495-3.723-3.753c0-2.258,1.48-3.797,3.627-3.797C300.197,467.99,301.611,469.522,301.618,471.757z&#10;&#9;&#9;&#9;&#9; M296.504,471.091h3.175c-0.178-0.918-0.733-1.436-1.562-1.436C297.207,469.655,296.674,470.203,296.504,471.091z" style="fill:#1D262D;" id="XMLID_10_"/>
			<path d="M309.964,471.764c0,2.154-1.495,3.775-3.471,3.775&#10;&#9;&#9;&#9;&#9;c-0.962,0-1.643-0.378-2.109-0.933v3.708h-1.924v-10.133h1.887v0.792c0.466-0.585,1.155-0.984,2.139-0.984&#10;&#9;&#9;&#9;&#9;C308.469,467.99,309.964,469.61,309.964,471.764z M304.287,471.764c0,1.132,0.747,1.976,1.843,1.976&#10;&#9;&#9;&#9;&#9;c1.14,0,1.85-0.881,1.85-1.976c0-1.095-0.71-1.976-1.85-1.976C305.035,469.788,304.287,470.632,304.287,471.764z" style="fill:#1D262D;" id="XMLID_7_"/>
			<path d="M313.068,465.836c0,0.696-0.54,1.229-1.236,1.229c-0.696,0-1.229-0.533-1.229-1.229&#10;&#9;&#9;&#9;&#9;c0-0.696,0.533-1.243,1.229-1.243C312.527,464.592,313.068,465.14,313.068,465.836z M312.809,475.354h-1.932v-7.172h1.932&#10;&#9;&#9;&#9;&#9;V475.354z" style="fill:#1D262D;" id="XMLID_4_"/>
			<path d="M316.032,470.736l2.702-2.554h2.368l-3.479,3.375l3.501,3.797h-2.376l-2.716-2.901&#10;&#9;&#9;&#9;&#9;v2.901H314.1v-10.658h1.932V470.736z" style="fill:#1D262D;" id="XMLID_2_"/>
		</g>
		<g>
			<path d="M184.412,475.289v-1.055c-0.527,0.718-1.391,1.23-2.387,1.23c-1.846,0-3.149-1.406-3.149-3.706&#10;&#9;&#9;&#9;&#9;c0-2.256,1.289-3.721,3.149-3.721c0.952,0,1.816,0.469,2.387,1.245v-3.765h1.099v9.77H184.412z M184.412,473.37v-3.208&#10;&#9;&#9;&#9;&#9;c-0.395-0.615-1.245-1.143-2.124-1.143c-1.421,0-2.27,1.172-2.27,2.739c0,1.567,0.85,2.724,2.27,2.724&#10;&#9;&#9;&#9;&#9;C183.168,474.483,184.017,473.986,184.412,473.37z" style="fill:#1D262D;"/>
			<path d="M186.932,471.744c0-2.051,1.465-3.706,3.486-3.706c2.139,0,3.398,1.67,3.398,3.794v0.279h-5.727&#10;&#9;&#9;&#9;&#9;c0.088,1.333,1.025,2.446,2.549,2.446c0.805,0,1.626-0.322,2.182-0.894l0.527,0.718c-0.703,0.703-1.655,1.084-2.812,1.084&#10;&#9;&#9;&#9;&#9;C188.44,475.465,186.932,473.956,186.932,471.744z M190.403,468.947c-1.509,0-2.256,1.274-2.314,2.358h4.643&#10;&#9;&#9;&#9;&#9;C192.718,470.25,192.015,468.947,190.403,468.947z" style="fill:#1D262D;"/>
			<path d="M194.607,474.351l0.571-0.791c0.469,0.542,1.362,1.011,2.329,1.011c1.084,0,1.67-0.513,1.67-1.216&#10;&#9;&#9;&#9;&#9;c0-1.714-4.38-0.659-4.38-3.281c0-1.098,0.952-2.036,2.636-2.036c1.201,0,2.051,0.454,2.622,1.026l-0.513,0.762&#10;&#9;&#9;&#9;&#9;c-0.424-0.513-1.201-0.894-2.109-0.894c-0.967,0-1.567,0.483-1.567,1.113c0,1.552,4.38,0.527,4.38,3.281&#10;&#9;&#9;&#9;&#9;c0,1.187-0.952,2.138-2.783,2.138C196.306,475.465,195.325,475.113,194.607,474.351z" style="fill:#1D262D;"/>
			<path d="M201.477,466.471c0-0.41,0.337-0.747,0.732-0.747c0.41,0,0.747,0.337,0.747,0.747&#10;&#9;&#9;&#9;&#9;c0,0.41-0.337,0.732-0.747,0.732C201.814,467.203,201.477,466.881,201.477,466.471z M201.667,475.289v-7.075h1.099v7.075H201.667&#10;&#9;&#9;&#9;&#9;z" style="fill:#1D262D;"/>
			<path d="M204.582,477.105l0.556-0.82c0.586,0.703,1.289,0.967,2.3,0.967c1.172,0,2.27-0.571,2.27-2.124&#10;&#9;&#9;&#9;&#9;v-1.011c-0.513,0.718-1.377,1.26-2.373,1.26c-1.845,0-3.149-1.377-3.149-3.662c0-2.27,1.289-3.677,3.149-3.677&#10;&#9;&#9;&#9;&#9;c0.952,0,1.802,0.469,2.373,1.245v-1.069h1.098v6.87c0,2.344-1.641,3.076-3.369,3.076&#10;&#9;&#9;&#9;&#9;C206.237,478.16,205.417,477.926,204.582,477.105z M209.709,473.253v-3.091c-0.381-0.615-1.23-1.143-2.109-1.143&#10;&#9;&#9;&#9;&#9;c-1.421,0-2.27,1.128-2.27,2.695c0,1.553,0.849,2.695,2.27,2.695C208.478,474.41,209.328,473.868,209.709,473.253z" style="fill:#1D262D;"/>
			<path d="M217.413,475.289v-4.629c0-1.245-0.63-1.641-1.582-1.641c-0.865,0-1.685,0.527-2.095,1.099v5.17&#10;&#9;&#9;&#9;&#9;h-1.099v-7.075h1.099v1.025c0.498-0.586,1.464-1.201,2.519-1.201c1.48,0,2.256,0.747,2.256,2.285v4.966H217.413z" style="fill:#1D262D;"/>
			<path d="M219.932,471.744c0-2.051,1.465-3.706,3.486-3.706c2.139,0,3.398,1.67,3.398,3.794v0.279h-5.727&#10;&#9;&#9;&#9;&#9;c0.088,1.333,1.025,2.446,2.549,2.446c0.806,0,1.626-0.322,2.183-0.894l0.527,0.718c-0.703,0.703-1.655,1.084-2.812,1.084&#10;&#9;&#9;&#9;&#9;C221.441,475.465,219.932,473.956,219.932,471.744z M223.404,468.947c-1.509,0-2.256,1.274-2.314,2.358h4.643&#10;&#9;&#9;&#9;&#9;C225.718,470.25,225.015,468.947,223.404,468.947z" style="fill:#1D262D;"/>
			<path d="M233.35,475.289v-1.055c-0.527,0.718-1.392,1.23-2.388,1.23c-1.846,0-3.149-1.406-3.149-3.706&#10;&#9;&#9;&#9;&#9;c0-2.256,1.289-3.721,3.149-3.721c0.952,0,1.817,0.469,2.388,1.245v-3.765h1.098v9.77H233.35z M233.35,473.37v-3.208&#10;&#9;&#9;&#9;&#9;c-0.396-0.615-1.245-1.143-2.124-1.143c-1.421,0-2.27,1.172-2.27,2.739c0,1.567,0.849,2.724,2.27,2.724&#10;&#9;&#9;&#9;&#9;C232.105,474.483,232.954,473.986,233.35,473.37z" style="fill:#1D262D;"/>
			<path d="M239.692,475.289v-9.77h1.098v3.765c0.572-0.776,1.421-1.245,2.388-1.245&#10;&#9;&#9;&#9;&#9;c1.845,0,3.149,1.465,3.149,3.721c0,2.299-1.304,3.706-3.149,3.706c-0.996,0-1.86-0.513-2.388-1.23v1.055H239.692z&#10;&#9;&#9;&#9;&#9; M242.9,474.483c1.436,0,2.285-1.157,2.285-2.724c0-1.568-0.85-2.739-2.285-2.739c-0.864,0-1.728,0.527-2.109,1.143v3.208&#10;&#9;&#9;&#9;&#9;C241.171,473.986,242.036,474.483,242.9,474.483z" style="fill:#1D262D;"/>
			<path d="M247.528,477.061c0.161,0.073,0.425,0.117,0.601,0.117c0.483,0,0.805-0.161,1.055-0.747&#10;&#9;&#9;&#9;&#9;l0.469-1.069l-2.959-7.148h1.187l2.358,5.8l2.344-5.8h1.201l-3.545,8.51c-0.425,1.025-1.143,1.421-2.08,1.435&#10;&#9;&#9;&#9;&#9;c-0.234,0-0.601-0.044-0.805-0.103L247.528,477.061z" style="fill:#1D262D;"/>
		</g>
	</g>
</g>
</svg>