<svg viewBox="0 0 231 231" xmlns="http://www.w3.org/2000/svg">
<style type="text/css">
	.st0{fill:#073763;}
</style>
<path class="st0" d="M211.348 43.8782L211.348 43.8784C215.714 45.3784 218.75 49.8545 218.75 55.1833V92.2515C218.75 98.8756 213.931 104.054 208.333 104.054H200.556H199.306V105.304V118.357C199.306 120.195 197.987 121.458 196.667 121.458H195.417V122.708V163.039C195.417 164.878 194.098 166.14 192.778 166.14C191.458 166.14 190.139 164.878 190.139 163.039V122.708V121.458H188.889H173.334H172.084V122.708V155.165C172.084 157.003 170.765 158.265 169.445 158.265C168.124 158.265 166.806 157.003 166.806 155.165V122.708V121.458H165.556C164.236 121.458 162.917 120.195 162.917 118.357V105.304V104.054H161.667H134.444H133.194V105.304V118.357C133.194 120.195 131.875 121.458 130.555 121.458H129.305V122.708V155.382C129.305 157.22 127.986 158.483 126.666 158.483C125.346 158.483 124.027 157.22 124.027 155.382V122.708V121.458H122.777H107.222H105.972V122.708V155.382C105.972 157.22 104.653 158.483 103.333 158.483C102.013 158.483 100.694 157.22 100.694 155.382V122.708V121.458H99.4439C98.1236 121.458 96.805 120.195 96.805 118.357V105.304V104.054H95.555H64.4441H63.1941V105.304V118.357C63.1941 120.195 61.8755 121.458 60.5553 121.458H59.3053V122.708V156.601C59.3053 158.44 57.9867 159.702 56.6664 159.702C55.3461 159.702 54.0275 158.44 54.0275 156.601V122.708V121.458H52.7775H37.2221H35.9721V122.708V163.649C35.9721 165.487 34.6535 166.75 33.3332 166.75C32.0129 166.75 30.6943 165.487 30.6943 163.649V122.708V121.458H29.4443C28.1241 121.458 26.8055 120.195 26.8055 118.357V105.304V104.054H25.5555H21.6666C16.0686 104.054 11.25 98.8756 11.25 92.2515V55.1833C11.25 49.854 14.285 45.3782 18.6506 43.8784L18.651 43.8782L111.984 11.7694L111.994 11.766C113.938 11.0788 116.019 11.0764 118.012 11.7682L118.015 11.7694L211.348 43.8782ZM56.6676 115.256H57.9176V114.006V105.304V104.054H56.6676H33.3344H32.0844V105.304V114.006V115.256H33.3344H56.6676ZM126.667 115.256H127.917V114.006V105.304V104.054H126.667H103.334H102.084V105.304V114.006V115.256H103.334H126.667ZM192.777 115.256H194.027V114.006V105.304V104.054H192.777H169.443H168.193V105.304V114.006V115.256H169.443H192.777ZM113.474 17.7128L113.465 17.7159L20.1384 49.8226C20.1373 49.823 20.1362 49.8234 20.135 49.8238C17.8776 50.589 16.5277 52.8233 16.5277 55.1836V92.2517C16.5277 95.1994 18.7091 97.8526 21.6666 97.8526H208.332C211.29 97.8526 213.471 95.1994 213.471 92.2517L213.471 55.1836C213.471 52.7566 212.063 50.5854 209.869 49.8256L209.867 49.8247L116.534 17.7159L116.482 17.6981L116.429 17.6848C116.075 17.5969 115.555 17.4739 114.999 17.4739C114.503 17.4739 114.015 17.5313 113.474 17.7128Z" fill="black" stroke-width="2.5"/>
<path class="st0" d="M215.25 196.235V197.235H215.937C217.957 199.184 219.224 201.887 219.224 204.875V208.767C219.224 214.635 214.416 219.442 208.545 219.442H131.579H130.872L130.636 220.11C128.361 226.567 122.154 231.117 115.112 231.117C108.07 231.117 101.863 226.567 99.5877 220.11L99.3525 219.442H98.6446H21.679C15.8076 219.442 11 214.635 11 208.767V204.875C11 201.754 12.3826 198.943 14.5625 196.978L14.893 196.68V196.235V177.632C14.893 176.732 15.2968 175.9 16.0163 175.354L16.0241 175.348L16.0318 175.342C16.7237 174.794 17.6451 174.595 18.5018 174.823L18.5018 174.823L18.5097 174.825C33.4808 178.686 46.6455 174.089 59.0707 169.742C68.3595 166.496 77.541 163.317 86.7133 164.145C95.785 164.965 105.002 169.733 114.255 182.802L115.073 183.957L115.889 182.801C125.121 169.713 134.338 164.946 143.413 164.131C152.591 163.307 161.782 166.496 171.073 169.742L171.197 169.785C183.583 174.119 196.713 178.713 211.636 174.825L211.643 174.823L211.65 174.821C212.452 174.6 213.38 174.786 214.127 175.354C214.846 175.9 215.25 176.732 215.25 177.632V196.235ZM169.164 175.209L169.164 175.209L169.024 175.16C159.398 171.799 150.79 168.793 142.538 169.997C134.131 171.224 126.314 176.759 118.079 189.865L117.925 190.109V190.397V197.091V198.797L119.414 197.963C123.782 195.516 128.714 194.199 133.836 194.199H208.464H209.464V193.199V182.419V181.247L208.307 181.431C193.68 183.761 180.867 179.304 169.164 175.209ZM51.6413 178.738C40.5981 182.609 31.6549 182.205 22.5997 181.495L22.5992 180.471V180.47L20.5992 180.471V180.471V193.16V194.16H21.5992H96.2277C101.349 194.16 106.281 195.478 110.649 197.925L112.138 198.758V197.052V190.436V190.148L111.985 189.904C103.727 176.762 95.1992 171.086 85.2865 170.245C75.5167 169.417 64.5969 173.32 51.6413 178.738ZM213.356 208.766V208.766L213.354 204.835C213.354 204.835 213.354 204.835 213.354 204.835C213.354 202.142 211.154 199.944 208.461 199.944H133.832C127.528 199.944 121.623 202.396 117.163 206.815L117.084 206.855L116.969 206.969C116.787 207.152 116.562 207.32 116.314 207.455H116.255L116.089 207.515C115.752 207.638 115.479 207.688 115.185 207.688H114.852C114.528 207.652 114.344 207.621 114.173 207.557L114.12 207.537L114.065 207.524C113.968 207.499 113.892 207.475 113.801 207.445C113.464 207.289 113.201 207.12 112.972 206.891C108.504 202.424 102.566 199.944 96.2261 199.944H21.5976C18.9044 199.944 16.7046 202.142 16.7046 204.835V208.727C16.7046 211.42 18.9044 213.619 21.5976 213.619H101.531C101.536 213.62 101.543 213.622 101.551 213.624C101.554 213.625 101.559 213.626 101.564 213.628C101.615 213.642 101.76 213.682 101.935 213.694C102.182 213.729 102.369 213.759 102.548 213.808C102.655 213.846 102.76 213.905 102.954 214.021L102.986 214.041L103.021 214.058C103.275 214.185 103.361 214.237 103.423 214.299C103.532 214.408 103.651 214.556 103.816 214.762C103.981 214.968 104.069 215.083 104.131 215.207C104.206 215.356 104.263 215.519 104.333 215.762C104.36 215.864 104.394 215.949 104.417 216.005C104.43 216.035 104.443 216.063 104.452 216.084L104.459 216.099C104.461 216.104 104.462 216.107 104.464 216.111C105.198 221.356 109.79 225.295 115.069 225.295C120.348 225.295 124.94 221.355 125.674 216.111C125.678 216.103 125.682 216.095 125.686 216.084C125.696 216.063 125.708 216.035 125.721 216.005C125.745 215.949 125.778 215.864 125.805 215.763C125.871 215.535 125.925 215.379 125.992 215.238C126.101 215.057 126.182 214.927 126.283 214.801C126.451 214.591 126.54 214.486 126.633 214.412L126.676 214.377L126.716 214.338C126.715 214.339 126.715 214.339 126.716 214.338C126.72 214.334 126.745 214.314 126.812 214.272C126.849 214.249 126.889 214.226 126.94 214.196L126.963 214.183C127.006 214.159 127.058 214.129 127.107 214.099C127.251 214.013 127.41 213.934 127.553 213.885L127.576 213.878C127.868 213.795 127.939 213.775 128.033 213.775H128.156L128.275 213.745L128.623 213.658H208.463C211.156 213.658 213.356 211.459 213.356 208.766Z" fill="black" stroke-width="2"/>
<path class="st0" d="M95.0098 49.8521C95.0098 37.8396 104.078 28.2422 115.069 28.2422C126.06 28.2422 135.128 37.8396 135.128 49.8521C135.128 61.8646 126.06 71.462 115.069 71.462C104.078 71.462 95.0098 61.8646 95.0098 49.8521ZM101.033 49.8521C101.033 58.002 107.265 64.8181 115.069 64.8181C122.872 64.8181 129.104 58.002 129.104 49.8521C129.104 41.7022 122.872 34.8862 115.069 34.8862C107.265 34.8862 101.033 41.7022 101.033 49.8521Z" fill="black" stroke-width="2.5"/>
</svg>
