<svg width="650" height="700" viewBox="0 0 700 700" fill="none" xmlns="http://www.w3.org/2000/svg">
<rect width="700" height="700" fill="white"/>
<path fill-rule="evenodd" clip-rule="evenodd" d="M81.7422 389.906V299.945H148.522V315.148H100.012V335.126H145.12V350.328H100.012V374.703H150.286V389.906H81.7422Z" fill="#AE4038"/>
<path fill-rule="evenodd" clip-rule="evenodd" d="M166.16 389.529V300.322H184.43V374.326H229.664V389.529H166.16Z" fill="#AE4038"/>
<path fill-rule="evenodd" clip-rule="evenodd" d="M245.957 389.906V299.945H312.737V315.148H264.227V335.126H309.335V350.328H264.227V374.703H314.501V389.906H245.957Z" fill="#AE4038"/>
<path fill-rule="evenodd" clip-rule="evenodd" d="M489.517 389.906V315.148H462.805V299.945H534.372V315.148H507.786V389.906H489.517Z" fill="#AE4038"/>
<path fill-rule="evenodd" clip-rule="evenodd" d="M550.457 389.906V299.945H617.237V315.148H568.727V335.126H613.835V350.328H568.727V374.703H619.001V389.906H550.457Z" fill="#AE4038"/>
<path fill-rule="evenodd" clip-rule="evenodd" d="M353.328 389.905L321.051 299.944H340.791L363.702 366.535L394.44 273.91H413.843H618.95V289.482H408.361L373.005 389.905H353.328Z" fill="#67AD56"/>
<path fill-rule="evenodd" clip-rule="evenodd" d="M324.367 264.666C330.63 264.666 335.707 269.729 335.707 275.974C335.707 282.219 330.63 287.282 324.367 287.282C318.104 287.282 313.027 282.219 313.027 275.974C313.027 269.729 318.104 264.666 324.367 264.666Z" fill="#67AD56"/>
<path fill-rule="evenodd" clip-rule="evenodd" d="M438.479 299.945L470.756 389.906H451.016L428.105 323.315L397.367 415.94H377.963L81.7617 415.999V400.428L383.445 400.369L418.802 299.945H438.479Z" fill="#67AD56"/>
<path fill-rule="evenodd" clip-rule="evenodd" d="M427.996 232C434.259 232 439.336 237.063 439.336 243.308C439.336 249.553 434.259 254.616 427.996 254.616C421.733 254.616 416.656 249.553 416.656 243.308C416.656 237.063 421.733 232 427.996 232Z" fill="#67AD56"/>
<path d="M92.431 460H83.185V443.578H92.431V445.694H85.669V450.386H92.017V452.479H85.669V457.861H92.431V460ZM99.9667 460.23C98.4794 460.23 97.2757 459.693 96.3557 458.62C95.4511 457.547 94.9987 455.952 94.9987 453.836C94.9987 451.705 95.4587 450.095 96.3787 449.006C97.2987 447.917 98.5101 447.373 100.013 447.373C100.641 447.373 101.186 447.457 101.646 447.626C102.121 447.779 102.527 447.994 102.865 448.27C103.217 448.546 103.516 448.853 103.762 449.19H103.9C103.869 448.975 103.831 448.669 103.785 448.27C103.739 447.856 103.716 447.488 103.716 447.166V442.52H106.154V460H104.245L103.831 458.344H103.716C103.486 458.697 103.194 459.019 102.842 459.31C102.504 459.586 102.098 459.808 101.623 459.977C101.147 460.146 100.595 460.23 99.9667 460.23ZM100.542 458.229C101.738 458.229 102.581 457.899 103.072 457.24C103.562 456.565 103.808 455.561 103.808 454.227V453.859C103.808 452.402 103.57 451.291 103.095 450.524C102.635 449.757 101.776 449.374 100.519 449.374C99.5221 449.374 98.7707 449.78 98.2647 450.593C97.7587 451.39 97.5057 452.487 97.5057 453.882C97.5057 455.277 97.7587 456.351 98.2647 457.102C98.7707 457.853 99.5297 458.229 100.542 458.229ZM120.646 447.603V460H118.691L118.346 458.367H118.231C117.971 458.796 117.633 459.149 117.219 459.425C116.805 459.701 116.353 459.9 115.862 460.023C115.372 460.161 114.866 460.23 114.344 460.23C113.378 460.23 112.558 460.077 111.883 459.77C111.224 459.448 110.718 458.957 110.365 458.298C110.028 457.623 109.859 456.765 109.859 455.722V447.603H112.32V455.354C112.32 456.32 112.52 457.041 112.918 457.516C113.332 457.991 113.969 458.229 114.827 458.229C115.686 458.229 116.361 458.06 116.851 457.723C117.342 457.386 117.687 456.895 117.886 456.251C118.101 455.592 118.208 454.802 118.208 453.882V447.603H120.646ZM129.453 460.23C128.318 460.23 127.321 460.008 126.463 459.563C125.604 459.118 124.937 458.428 124.462 457.493C123.986 456.542 123.749 455.339 123.749 453.882C123.749 452.349 124.002 451.107 124.508 450.156C125.029 449.205 125.727 448.508 126.601 448.063C127.49 447.603 128.502 447.373 129.637 447.373C130.327 447.373 130.971 447.45 131.569 447.603C132.182 447.741 132.688 447.902 133.087 448.086L132.351 450.064C131.921 449.895 131.461 449.75 130.971 449.627C130.495 449.504 130.043 449.443 129.614 449.443C128.847 449.443 128.211 449.612 127.705 449.949C127.214 450.271 126.846 450.762 126.601 451.421C126.371 452.065 126.256 452.878 126.256 453.859C126.256 454.794 126.378 455.584 126.624 456.228C126.869 456.872 127.229 457.363 127.705 457.7C128.195 458.022 128.801 458.183 129.522 458.183C130.212 458.183 130.817 458.106 131.339 457.953C131.86 457.8 132.351 457.6 132.811 457.355V459.471C132.366 459.732 131.883 459.923 131.362 460.046C130.84 460.169 130.204 460.23 129.453 460.23ZM140.544 447.373C142.108 447.373 143.273 447.718 144.04 448.408C144.807 449.083 145.19 450.148 145.19 451.605V460H143.465L142.982 458.275H142.89C142.537 458.72 142.169 459.088 141.786 459.379C141.418 459.67 140.989 459.885 140.498 460.023C140.023 460.161 139.44 460.23 138.75 460.23C138.014 460.23 137.347 460.1 136.749 459.839C136.166 459.563 135.706 459.149 135.369 458.597C135.032 458.03 134.863 457.324 134.863 456.481C134.863 455.224 135.338 454.265 136.289 453.606C137.255 452.947 138.719 452.586 140.682 452.525L142.798 452.456V451.766C142.798 450.846 142.591 450.202 142.177 449.834C141.763 449.466 141.18 449.282 140.429 449.282C139.785 449.282 139.172 449.374 138.589 449.558C138.006 449.742 137.454 449.964 136.933 450.225L136.151 448.454C136.734 448.147 137.401 447.894 138.152 447.695C138.919 447.48 139.716 447.373 140.544 447.373ZM141.119 454.089C139.708 454.15 138.727 454.388 138.175 454.802C137.638 455.201 137.37 455.768 137.37 456.504C137.37 457.148 137.562 457.616 137.945 457.907C138.344 458.198 138.842 458.344 139.44 458.344C140.406 458.344 141.203 458.076 141.832 457.539C142.461 457.002 142.775 456.197 142.775 455.124V454.043L141.119 454.089ZM153.406 458.252C153.728 458.252 154.058 458.221 154.395 458.16C154.732 458.099 155.024 458.03 155.269 457.953V459.793C155.008 459.916 154.656 460.015 154.211 460.092C153.766 460.184 153.322 460.23 152.877 460.23C152.202 460.23 151.581 460.115 151.014 459.885C150.462 459.655 150.017 459.256 149.68 458.689C149.343 458.122 149.174 457.332 149.174 456.32V449.466H147.449V448.362L149.266 447.442L150.117 444.82H151.612V447.603H155.154V449.466H151.612V456.274C151.612 456.949 151.773 457.447 152.095 457.769C152.432 458.091 152.869 458.252 153.406 458.252ZM160.187 447.603V460H157.749V447.603H160.187ZM158.991 442.888C159.359 442.888 159.681 442.995 159.957 443.21C160.233 443.425 160.371 443.785 160.371 444.291C160.371 444.782 160.233 445.142 159.957 445.372C159.681 445.587 159.359 445.694 158.991 445.694C158.592 445.694 158.255 445.587 157.979 445.372C157.718 445.142 157.588 444.782 157.588 444.291C157.588 443.785 157.718 443.425 157.979 443.21C158.255 442.995 158.592 442.888 158.991 442.888ZM174.94 453.79C174.94 454.817 174.802 455.73 174.526 456.527C174.25 457.324 173.859 457.999 173.353 458.551C172.847 459.103 172.234 459.525 171.513 459.816C170.793 460.092 169.98 460.23 169.075 460.23C168.247 460.23 167.481 460.092 166.775 459.816C166.07 459.525 165.457 459.103 164.935 458.551C164.429 457.999 164.031 457.324 163.739 456.527C163.448 455.73 163.302 454.81 163.302 453.767C163.302 452.402 163.532 451.245 163.992 450.294C164.468 449.343 165.142 448.623 166.016 448.132C166.906 447.626 167.948 447.373 169.144 447.373C170.279 447.373 171.276 447.626 172.134 448.132C173.008 448.623 173.691 449.343 174.181 450.294C174.687 451.245 174.94 452.41 174.94 453.79ZM165.809 453.79C165.809 454.71 165.924 455.507 166.154 456.182C166.384 456.841 166.745 457.347 167.235 457.7C167.726 458.053 168.355 458.229 169.121 458.229C169.888 458.229 170.517 458.053 171.007 457.7C171.498 457.347 171.858 456.841 172.088 456.182C172.318 455.507 172.433 454.71 172.433 453.79C172.433 452.839 172.311 452.042 172.065 451.398C171.835 450.754 171.475 450.263 170.984 449.926C170.509 449.573 169.88 449.397 169.098 449.397C167.948 449.397 167.113 449.78 166.591 450.547C166.07 451.314 165.809 452.395 165.809 453.79ZM184.31 447.373C185.751 447.373 186.855 447.733 187.622 448.454C188.389 449.175 188.772 450.332 188.772 451.927V460H186.357V452.272C186.357 451.306 186.15 450.585 185.736 450.11C185.337 449.619 184.693 449.374 183.804 449.374C182.547 449.374 181.673 449.75 181.182 450.501C180.707 451.252 180.469 452.333 180.469 453.744V460H178.031V447.603H179.963L180.308 449.259H180.446C180.722 448.83 181.059 448.477 181.458 448.201C181.857 447.925 182.301 447.718 182.792 447.58C183.283 447.442 183.789 447.373 184.31 447.373ZM198.769 460V443.578H201.253V457.861H208.268V460H198.769ZM215.7 447.373C216.789 447.373 217.724 447.603 218.506 448.063C219.288 448.508 219.886 449.152 220.3 449.995C220.729 450.838 220.944 451.835 220.944 452.985V454.319H212.618C212.649 455.592 212.978 456.565 213.607 457.24C214.251 457.915 215.148 458.252 216.298 458.252C217.095 458.252 217.801 458.183 218.414 458.045C219.043 457.892 219.687 457.669 220.346 457.378V459.402C219.733 459.678 219.104 459.885 218.46 460.023C217.831 460.161 217.08 460.23 216.206 460.23C215.01 460.23 213.952 459.992 213.032 459.517C212.112 459.042 211.391 458.336 210.87 457.401C210.364 456.45 210.111 455.285 210.111 453.905C210.111 452.51 210.341 451.329 210.801 450.363C211.276 449.397 211.928 448.661 212.756 448.155C213.599 447.634 214.581 447.373 215.7 447.373ZM215.7 449.259C214.826 449.259 214.121 449.543 213.584 450.11C213.063 450.677 212.756 451.482 212.664 452.525H218.506C218.506 451.881 218.406 451.314 218.207 450.823C218.008 450.332 217.701 449.949 217.287 449.673C216.873 449.397 216.344 449.259 215.7 449.259ZM228.793 447.373C230.357 447.373 231.522 447.718 232.289 448.408C233.056 449.083 233.439 450.148 233.439 451.605V460H231.714L231.231 458.275H231.139C230.786 458.72 230.418 459.088 230.035 459.379C229.667 459.67 229.238 459.885 228.747 460.023C228.272 460.161 227.689 460.23 226.999 460.23C226.263 460.23 225.596 460.1 224.998 459.839C224.415 459.563 223.955 459.149 223.618 458.597C223.281 458.03 223.112 457.324 223.112 456.481C223.112 455.224 223.587 454.265 224.538 453.606C225.504 452.947 226.968 452.586 228.931 452.525L231.047 452.456V451.766C231.047 450.846 230.84 450.202 230.426 449.834C230.012 449.466 229.429 449.282 228.678 449.282C228.034 449.282 227.421 449.374 226.838 449.558C226.255 449.742 225.703 449.964 225.182 450.225L224.4 448.454C224.983 448.147 225.65 447.894 226.401 447.695C227.168 447.48 227.965 447.373 228.793 447.373ZM229.368 454.089C227.957 454.15 226.976 454.388 226.424 454.802C225.887 455.201 225.619 455.768 225.619 456.504C225.619 457.148 225.811 457.616 226.194 457.907C226.593 458.198 227.091 458.344 227.689 458.344C228.655 458.344 229.452 458.076 230.081 457.539C230.71 457.002 231.024 456.197 231.024 455.124V454.043L229.368 454.089ZM241.448 460.23C239.961 460.23 238.757 459.693 237.837 458.62C236.933 457.547 236.48 455.952 236.48 453.836C236.48 451.705 236.94 450.095 237.86 449.006C238.78 447.917 239.992 447.373 241.494 447.373C242.123 447.373 242.667 447.457 243.127 447.626C243.603 447.779 244.009 447.994 244.346 448.27C244.699 448.546 244.998 448.853 245.243 449.19H245.381C245.351 448.975 245.312 448.669 245.266 448.27C245.22 447.856 245.197 447.488 245.197 447.166V442.52H247.635V460H245.726L245.312 458.344H245.197C244.967 458.697 244.676 459.019 244.323 459.31C243.986 459.586 243.58 459.808 243.104 459.977C242.629 460.146 242.077 460.23 241.448 460.23ZM242.023 458.229C243.219 458.229 244.063 457.899 244.553 457.24C245.044 456.565 245.289 455.561 245.289 454.227V453.859C245.289 452.402 245.052 451.291 244.576 450.524C244.116 449.757 243.258 449.374 242 449.374C241.004 449.374 240.252 449.78 239.746 450.593C239.24 451.39 238.987 452.487 238.987 453.882C238.987 455.277 239.24 456.351 239.746 457.102C240.252 457.853 241.011 458.229 242.023 458.229ZM256.332 447.373C257.421 447.373 258.356 447.603 259.138 448.063C259.92 448.508 260.518 449.152 260.932 449.995C261.361 450.838 261.576 451.835 261.576 452.985V454.319H253.25C253.281 455.592 253.61 456.565 254.239 457.24C254.883 457.915 255.78 458.252 256.93 458.252C257.727 458.252 258.433 458.183 259.046 458.045C259.675 457.892 260.319 457.669 260.978 457.378V459.402C260.365 459.678 259.736 459.885 259.092 460.023C258.463 460.161 257.712 460.23 256.838 460.23C255.642 460.23 254.584 459.992 253.664 459.517C252.744 459.042 252.023 458.336 251.502 457.401C250.996 456.45 250.743 455.285 250.743 453.905C250.743 452.51 250.973 451.329 251.433 450.363C251.908 449.397 252.56 448.661 253.388 448.155C254.231 447.634 255.213 447.373 256.332 447.373ZM256.332 449.259C255.458 449.259 254.753 449.543 254.216 450.11C253.695 450.677 253.388 451.482 253.296 452.525H259.138C259.138 451.881 259.038 451.314 258.839 450.823C258.64 450.332 258.333 449.949 257.919 449.673C257.505 449.397 256.976 449.259 256.332 449.259ZM270.736 447.373C270.951 447.373 271.188 447.388 271.449 447.419C271.71 447.434 271.924 447.457 272.093 447.488L271.84 449.765C271.671 449.719 271.472 449.681 271.242 449.65C271.012 449.619 270.797 449.604 270.598 449.604C270.138 449.604 269.693 449.696 269.264 449.88C268.85 450.049 268.474 450.302 268.137 450.639C267.8 450.961 267.531 451.36 267.332 451.835C267.148 452.31 267.056 452.855 267.056 453.468V460H264.618V447.603H266.55L266.872 449.811H266.964C267.225 449.366 267.539 448.96 267.907 448.592C268.275 448.224 268.697 447.933 269.172 447.718C269.647 447.488 270.169 447.373 270.736 447.373ZM282.622 456.504C282.622 457.317 282.423 457.999 282.024 458.551C281.626 459.103 281.051 459.525 280.299 459.816C279.548 460.092 278.643 460.23 277.585 460.23C276.711 460.23 275.96 460.161 275.331 460.023C274.718 459.9 274.151 459.716 273.629 459.471V457.332C274.181 457.593 274.818 457.83 275.538 458.045C276.259 458.244 276.964 458.344 277.654 458.344C278.574 458.344 279.234 458.198 279.632 457.907C280.046 457.616 280.253 457.225 280.253 456.734C280.253 456.458 280.177 456.213 280.023 455.998C279.87 455.768 279.579 455.538 279.149 455.308C278.735 455.063 278.122 454.787 277.309 454.48C276.527 454.158 275.86 453.844 275.308 453.537C274.756 453.215 274.335 452.839 274.043 452.41C273.752 451.965 273.606 451.398 273.606 450.708C273.606 449.635 274.036 448.814 274.894 448.247C275.768 447.664 276.918 447.373 278.344 447.373C279.096 447.373 279.801 447.45 280.46 447.603C281.135 447.741 281.787 447.956 282.415 448.247L281.61 450.11C281.258 449.941 280.89 449.803 280.506 449.696C280.138 449.573 279.763 449.474 279.379 449.397C279.011 449.32 278.628 449.282 278.229 449.282C277.493 449.282 276.934 449.397 276.55 449.627C276.167 449.857 275.975 450.179 275.975 450.593C275.975 450.884 276.06 451.137 276.228 451.352C276.412 451.567 276.727 451.781 277.171 451.996C277.616 452.211 278.222 452.471 278.988 452.778C279.755 453.069 280.407 453.368 280.943 453.675C281.495 453.982 281.909 454.357 282.185 454.802C282.477 455.247 282.622 455.814 282.622 456.504ZM287.967 447.189C287.967 447.572 287.952 447.956 287.921 448.339C287.89 448.722 287.86 449.037 287.829 449.282H287.99C288.251 448.853 288.573 448.5 288.956 448.224C289.355 447.948 289.792 447.741 290.267 447.603C290.758 447.465 291.256 447.396 291.762 447.396C292.743 447.396 293.564 447.557 294.223 447.879C294.898 448.186 295.404 448.676 295.741 449.351C296.094 450.01 296.27 450.869 296.27 451.927V460H293.855V452.272C293.855 451.306 293.648 450.585 293.234 450.11C292.835 449.619 292.191 449.374 291.302 449.374C290.459 449.374 289.792 449.543 289.301 449.88C288.826 450.217 288.481 450.716 288.266 451.375C288.067 452.019 287.967 452.816 287.967 453.767V460H285.529V442.52H287.967V447.189ZM302.454 447.603V460H300.016V447.603H302.454ZM301.258 442.888C301.626 442.888 301.948 442.995 302.224 443.21C302.5 443.425 302.638 443.785 302.638 444.291C302.638 444.782 302.5 445.142 302.224 445.372C301.948 445.587 301.626 445.694 301.258 445.694C300.86 445.694 300.522 445.587 300.246 445.372C299.986 445.142 299.855 444.782 299.855 444.291C299.855 443.785 299.986 443.425 300.246 443.21C300.522 442.995 300.86 442.888 301.258 442.888ZM312.47 447.373C313.957 447.373 315.153 447.91 316.058 448.983C316.978 450.056 317.438 451.659 317.438 453.79C317.438 455.185 317.231 456.366 316.817 457.332C316.403 458.298 315.82 459.026 315.069 459.517C314.318 459.992 313.444 460.23 312.447 460.23C311.818 460.23 311.266 460.153 310.791 460C310.316 459.831 309.909 459.617 309.572 459.356C309.25 459.08 308.966 458.789 308.721 458.482H308.56C308.606 458.758 308.644 459.088 308.675 459.471C308.706 459.839 308.721 460.169 308.721 460.46V465.52H306.283V447.603H308.261L308.606 449.259H308.721C308.966 448.922 309.258 448.607 309.595 448.316C309.932 448.025 310.339 447.795 310.814 447.626C311.289 447.457 311.841 447.373 312.47 447.373ZM311.895 449.374C311.128 449.374 310.515 449.527 310.055 449.834C309.595 450.125 309.258 450.57 309.043 451.168C308.844 451.751 308.736 452.494 308.721 453.399V453.767C308.721 454.718 308.821 455.53 309.02 456.205C309.219 456.864 309.549 457.37 310.009 457.723C310.484 458.06 311.128 458.229 311.941 458.229C312.631 458.229 313.191 458.045 313.62 457.677C314.065 457.294 314.394 456.765 314.609 456.09C314.824 455.415 314.931 454.633 314.931 453.744C314.931 452.395 314.686 451.329 314.195 450.547C313.704 449.765 312.938 449.374 311.895 449.374ZM331.396 443.578C333.543 443.578 335.107 444.015 336.088 444.889C337.07 445.748 337.56 446.951 337.56 448.5C337.56 449.19 337.445 449.849 337.215 450.478C337.001 451.107 336.64 451.674 336.134 452.18C335.628 452.671 334.954 453.062 334.11 453.353C333.282 453.629 332.263 453.767 331.051 453.767H329.28V460H326.796V443.578H331.396ZM331.212 445.671H329.28V451.674H330.775C331.711 451.674 332.493 451.574 333.121 451.375C333.75 451.16 334.218 450.831 334.524 450.386C334.846 449.926 335.007 449.328 335.007 448.592C335.007 447.611 334.701 446.882 334.087 446.407C333.489 445.916 332.531 445.671 331.212 445.671ZM343.041 460H340.603V442.52H343.041V460ZM351.677 447.373C353.241 447.373 354.406 447.718 355.173 448.408C355.94 449.083 356.323 450.148 356.323 451.605V460H354.598L354.115 458.275H354.023C353.67 458.72 353.302 459.088 352.919 459.379C352.551 459.67 352.122 459.885 351.631 460.023C351.156 460.161 350.573 460.23 349.883 460.23C349.147 460.23 348.48 460.1 347.882 459.839C347.299 459.563 346.839 459.149 346.502 458.597C346.165 458.03 345.996 457.324 345.996 456.481C345.996 455.224 346.471 454.265 347.422 453.606C348.388 452.947 349.852 452.586 351.815 452.525L353.931 452.456V451.766C353.931 450.846 353.724 450.202 353.31 449.834C352.896 449.466 352.313 449.282 351.562 449.282C350.918 449.282 350.305 449.374 349.722 449.558C349.139 449.742 348.587 449.964 348.066 450.225L347.284 448.454C347.867 448.147 348.534 447.894 349.285 447.695C350.052 447.48 350.849 447.373 351.677 447.373ZM352.252 454.089C350.841 454.15 349.86 454.388 349.308 454.802C348.771 455.201 348.503 455.768 348.503 456.504C348.503 457.148 348.695 457.616 349.078 457.907C349.477 458.198 349.975 458.344 350.573 458.344C351.539 458.344 352.336 458.076 352.965 457.539C353.594 457.002 353.908 456.197 353.908 455.124V454.043L352.252 454.089ZM364.539 458.252C364.861 458.252 365.191 458.221 365.528 458.16C365.865 458.099 366.157 458.03 366.402 457.953V459.793C366.141 459.916 365.789 460.015 365.344 460.092C364.899 460.184 364.455 460.23 364.01 460.23C363.335 460.23 362.714 460.115 362.147 459.885C361.595 459.655 361.15 459.256 360.813 458.689C360.476 458.122 360.307 457.332 360.307 456.32V449.466H358.582V448.362L360.399 447.442L361.25 444.82H362.745V447.603H366.287V449.466H362.745V456.274C362.745 456.949 362.906 457.447 363.228 457.769C363.565 458.091 364.002 458.252 364.539 458.252ZM374.931 449.466H371.872V460H369.434V449.466H367.341V448.316L369.434 447.557V446.775C369.434 445.717 369.595 444.874 369.917 444.245C370.254 443.601 370.729 443.133 371.343 442.842C371.956 442.551 372.7 442.405 373.574 442.405C374.11 442.405 374.601 442.451 375.046 442.543C375.49 442.635 375.866 442.735 376.173 442.842L375.552 444.705C375.306 444.628 375.023 444.559 374.701 444.498C374.379 444.421 374.041 444.383 373.689 444.383C373.075 444.383 372.615 444.582 372.309 444.981C372.017 445.38 371.872 445.985 371.872 446.798V447.603H374.931V449.466ZM388.027 453.79C388.027 454.817 387.889 455.73 387.613 456.527C387.337 457.324 386.946 457.999 386.44 458.551C385.934 459.103 385.321 459.525 384.6 459.816C383.88 460.092 383.067 460.23 382.162 460.23C381.334 460.23 380.568 460.092 379.862 459.816C379.157 459.525 378.544 459.103 378.022 458.551C377.516 457.999 377.118 457.324 376.826 456.527C376.535 455.73 376.389 454.81 376.389 453.767C376.389 452.402 376.619 451.245 377.079 450.294C377.555 449.343 378.229 448.623 379.103 448.132C379.993 447.626 381.035 447.373 382.231 447.373C383.366 447.373 384.363 447.626 385.221 448.132C386.095 448.623 386.778 449.343 387.268 450.294C387.774 451.245 388.027 452.41 388.027 453.79ZM378.896 453.79C378.896 454.71 379.011 455.507 379.241 456.182C379.471 456.841 379.832 457.347 380.322 457.7C380.813 458.053 381.442 458.229 382.208 458.229C382.975 458.229 383.604 458.053 384.094 457.7C384.585 457.347 384.945 456.841 385.175 456.182C385.405 455.507 385.52 454.71 385.52 453.79C385.52 452.839 385.398 452.042 385.152 451.398C384.922 450.754 384.562 450.263 384.071 449.926C383.596 449.573 382.967 449.397 382.185 449.397C381.035 449.397 380.2 449.78 379.678 450.547C379.157 451.314 378.896 452.395 378.896 453.79ZM397.236 447.373C397.451 447.373 397.688 447.388 397.949 447.419C398.21 447.434 398.424 447.457 398.593 447.488L398.34 449.765C398.171 449.719 397.972 449.681 397.742 449.65C397.512 449.619 397.297 449.604 397.098 449.604C396.638 449.604 396.193 449.696 395.764 449.88C395.35 450.049 394.974 450.302 394.637 450.639C394.3 450.961 394.031 451.36 393.832 451.835C393.648 452.31 393.556 452.855 393.556 453.468V460H391.118V447.603H393.05L393.372 449.811H393.464C393.725 449.366 394.039 448.96 394.407 448.592C394.775 448.224 395.197 447.933 395.672 447.718C396.147 447.488 396.669 447.373 397.236 447.373ZM414.78 447.373C416.176 447.373 417.226 447.733 417.931 448.454C418.637 449.175 418.989 450.332 418.989 451.927V460H416.551V452.249C416.551 451.298 416.36 450.585 415.976 450.11C415.608 449.619 415.026 449.374 414.228 449.374C413.124 449.374 412.335 449.719 411.859 450.409C411.384 451.084 411.146 452.065 411.146 453.353V460H408.731V452.249C408.731 451.62 408.639 451.091 408.455 450.662C408.287 450.233 408.034 449.911 407.696 449.696C407.359 449.481 406.922 449.374 406.385 449.374C405.619 449.374 405.013 449.543 404.568 449.88C404.124 450.217 403.802 450.716 403.602 451.375C403.418 452.019 403.326 452.809 403.326 453.744V460H400.888V447.603H402.82L403.165 449.259H403.303C403.564 448.83 403.878 448.477 404.246 448.201C404.63 447.925 405.051 447.718 405.511 447.58C405.971 447.442 406.447 447.373 406.937 447.373C407.873 447.373 408.662 447.542 409.306 447.879C409.95 448.201 410.418 448.699 410.709 449.374H410.893C411.292 448.684 411.844 448.178 412.549 447.856C413.255 447.534 413.998 447.373 414.78 447.373ZM431.133 446.729C431.133 447.235 431.118 447.718 431.087 448.178C431.072 448.623 431.049 448.975 431.018 449.236H431.133C431.486 448.715 431.961 448.278 432.559 447.925C433.157 447.572 433.931 447.396 434.882 447.396C436.369 447.396 437.565 447.933 438.47 449.006C439.39 450.079 439.85 451.674 439.85 453.79C439.85 455.216 439.643 456.404 439.229 457.355C438.815 458.306 438.232 459.026 437.481 459.517C436.73 459.992 435.856 460.23 434.859 460.23C433.893 460.23 433.119 460.061 432.536 459.724C431.953 459.371 431.486 458.957 431.133 458.482H430.949L430.489 460H428.695V442.52H431.133V446.729ZM434.307 449.374C433.51 449.374 432.881 449.527 432.421 449.834C431.961 450.141 431.631 450.608 431.432 451.237C431.233 451.866 431.133 452.663 431.133 453.629V453.813C431.133 455.239 431.363 456.335 431.823 457.102C432.283 457.853 433.126 458.229 434.353 458.229C435.334 458.229 436.078 457.846 436.584 457.079C437.09 456.312 437.343 455.208 437.343 453.767C437.343 452.31 437.09 451.214 436.584 450.478C436.078 449.742 435.319 449.374 434.307 449.374ZM440.623 447.603H443.245L445.821 454.641C445.959 454.994 446.081 455.339 446.189 455.676C446.296 456.013 446.388 456.351 446.465 456.688C446.557 457.01 446.626 457.332 446.672 457.654H446.764C446.84 457.255 446.963 456.788 447.132 456.251C447.3 455.699 447.477 455.155 447.661 454.618L450.099 447.603H452.721L447.408 461.679C447.116 462.476 446.756 463.159 446.327 463.726C445.897 464.309 445.384 464.753 444.786 465.06C444.203 465.367 443.513 465.52 442.716 465.52C442.332 465.52 442.003 465.497 441.727 465.451C441.451 465.42 441.213 465.382 441.014 465.336V463.404C441.182 463.435 441.382 463.465 441.612 463.496C441.857 463.527 442.11 463.542 442.371 463.542C442.846 463.542 443.252 463.45 443.59 463.266C443.942 463.082 444.234 462.821 444.464 462.484C444.709 462.147 444.916 461.763 445.085 461.334L445.591 460L440.623 447.603ZM470.318 455.561C470.318 456.542 470.08 457.378 469.605 458.068C469.13 458.758 468.447 459.295 467.558 459.678C466.669 460.046 465.611 460.23 464.384 460.23C463.786 460.23 463.211 460.192 462.659 460.115C462.107 460.054 461.593 459.962 461.118 459.839C460.643 459.716 460.221 459.563 459.853 459.379V457.033C460.466 457.309 461.187 457.562 462.015 457.792C462.843 458.007 463.686 458.114 464.545 458.114C465.281 458.114 465.894 458.014 466.385 457.815C466.876 457.616 467.244 457.34 467.489 456.987C467.734 456.634 467.857 456.22 467.857 455.745C467.857 455.239 467.727 454.817 467.466 454.48C467.221 454.127 466.83 453.805 466.293 453.514C465.772 453.207 465.066 452.885 464.177 452.548C463.564 452.318 463.004 452.065 462.498 451.789C462.007 451.498 461.57 451.16 461.187 450.777C460.819 450.394 460.535 449.949 460.336 449.443C460.137 448.937 460.037 448.347 460.037 447.672C460.037 446.767 460.259 445.993 460.704 445.349C461.164 444.705 461.793 444.214 462.59 443.877C463.387 443.524 464.315 443.348 465.373 443.348C466.262 443.348 467.083 443.44 467.834 443.624C468.601 443.793 469.329 444.03 470.019 444.337L469.237 446.384C468.608 446.123 467.972 445.909 467.328 445.74C466.684 445.571 466.009 445.487 465.304 445.487C464.691 445.487 464.177 445.579 463.763 445.763C463.349 445.947 463.035 446.2 462.82 446.522C462.621 446.844 462.521 447.22 462.521 447.649C462.521 448.155 462.636 448.577 462.866 448.914C463.096 449.251 463.464 449.566 463.97 449.857C464.476 450.133 465.143 450.44 465.971 450.777C466.891 451.13 467.673 451.513 468.317 451.927C468.976 452.341 469.475 452.839 469.812 453.422C470.149 453.989 470.318 454.702 470.318 455.561ZM475.696 447.189C475.696 447.572 475.68 447.956 475.65 448.339C475.619 448.722 475.588 449.037 475.558 449.282H475.719C475.979 448.853 476.301 448.5 476.685 448.224C477.083 447.948 477.52 447.741 477.996 447.603C478.486 447.465 478.985 447.396 479.491 447.396C480.472 447.396 481.292 447.557 481.952 447.879C482.626 448.186 483.132 448.676 483.47 449.351C483.822 450.01 483.999 450.869 483.999 451.927V460H481.584V452.272C481.584 451.306 481.377 450.585 480.963 450.11C480.564 449.619 479.92 449.374 479.031 449.374C478.187 449.374 477.52 449.543 477.03 449.88C476.554 450.217 476.209 450.716 475.995 451.375C475.795 452.019 475.696 452.816 475.696 453.767V460H473.258V442.52H475.696V447.189ZM490.183 447.603V460H487.745V447.603H490.183ZM488.987 442.888C489.355 442.888 489.677 442.995 489.953 443.21C490.229 443.425 490.367 443.785 490.367 444.291C490.367 444.782 490.229 445.142 489.953 445.372C489.677 445.587 489.355 445.694 488.987 445.694C488.588 445.694 488.251 445.587 487.975 445.372C487.714 445.142 487.584 444.782 487.584 444.291C487.584 443.785 487.714 443.425 487.975 443.21C488.251 442.995 488.588 442.888 488.987 442.888ZM496.427 451.26C496.427 451.582 496.411 451.95 496.381 452.364C496.365 452.778 496.342 453.161 496.312 453.514H496.381C496.503 453.361 496.649 453.177 496.818 452.962C497.002 452.732 497.186 452.502 497.37 452.272C497.554 452.042 497.722 451.843 497.876 451.674L501.671 447.603H504.5L499.509 452.916L504.822 460H501.947L497.853 454.457L496.427 455.653V460H494.012V442.52H496.427V451.26ZM515.093 456.504C515.093 457.317 514.894 457.999 514.495 458.551C514.097 459.103 513.522 459.525 512.77 459.816C512.019 460.092 511.114 460.23 510.056 460.23C509.182 460.23 508.431 460.161 507.802 460.023C507.189 459.9 506.622 459.716 506.1 459.471V457.332C506.652 457.593 507.289 457.83 508.009 458.045C508.73 458.244 509.435 458.344 510.125 458.344C511.045 458.344 511.705 458.198 512.103 457.907C512.517 457.616 512.724 457.225 512.724 456.734C512.724 456.458 512.648 456.213 512.494 455.998C512.341 455.768 512.05 455.538 511.62 455.308C511.206 455.063 510.593 454.787 509.78 454.48C508.998 454.158 508.331 453.844 507.779 453.537C507.227 453.215 506.806 452.839 506.514 452.41C506.223 451.965 506.077 451.398 506.077 450.708C506.077 449.635 506.507 448.814 507.365 448.247C508.239 447.664 509.389 447.373 510.815 447.373C511.567 447.373 512.272 447.45 512.931 447.603C513.606 447.741 514.258 447.956 514.886 448.247L514.081 450.11C513.729 449.941 513.361 449.803 512.977 449.696C512.609 449.573 512.234 449.474 511.85 449.397C511.482 449.32 511.099 449.282 510.7 449.282C509.964 449.282 509.405 449.397 509.021 449.627C508.638 449.857 508.446 450.179 508.446 450.593C508.446 450.884 508.531 451.137 508.699 451.352C508.883 451.567 509.198 451.781 509.642 451.996C510.087 452.211 510.693 452.471 511.459 452.778C512.226 453.069 512.878 453.368 513.414 453.675C513.966 453.982 514.38 454.357 514.656 454.802C514.948 455.247 515.093 455.814 515.093 456.504ZM520.438 447.189C520.438 447.572 520.422 447.956 520.392 448.339C520.361 448.722 520.33 449.037 520.3 449.282H520.461C520.721 448.853 521.043 448.5 521.427 448.224C521.825 447.948 522.262 447.741 522.738 447.603C523.228 447.465 523.727 447.396 524.233 447.396C525.214 447.396 526.034 447.557 526.694 447.879C527.368 448.186 527.874 448.676 528.212 449.351C528.564 450.01 528.741 450.869 528.741 451.927V460H526.326V452.272C526.326 451.306 526.119 450.585 525.705 450.11C525.306 449.619 524.662 449.374 523.773 449.374C522.929 449.374 522.262 449.543 521.772 449.88C521.296 450.217 520.951 450.716 520.737 451.375C520.537 452.019 520.438 452.816 520.438 453.767V460H518V442.52H520.438V447.189ZM537.294 447.373C538.858 447.373 540.023 447.718 540.79 448.408C541.557 449.083 541.94 450.148 541.94 451.605V460H540.215L539.732 458.275H539.64C539.287 458.72 538.919 459.088 538.536 459.379C538.168 459.67 537.739 459.885 537.248 460.023C536.773 460.161 536.19 460.23 535.5 460.23C534.764 460.23 534.097 460.1 533.499 459.839C532.916 459.563 532.456 459.149 532.119 458.597C531.782 458.03 531.613 457.324 531.613 456.481C531.613 455.224 532.088 454.265 533.039 453.606C534.005 452.947 535.469 452.586 537.432 452.525L539.548 452.456V451.766C539.548 450.846 539.341 450.202 538.927 449.834C538.513 449.466 537.93 449.282 537.179 449.282C536.535 449.282 535.922 449.374 535.339 449.558C534.756 449.742 534.204 449.964 533.683 450.225L532.901 448.454C533.484 448.147 534.151 447.894 534.902 447.695C535.669 447.48 536.466 447.373 537.294 447.373ZM537.869 454.089C536.458 454.15 535.477 454.388 534.925 454.802C534.388 455.201 534.12 455.768 534.12 456.504C534.12 457.148 534.312 457.616 534.695 457.907C535.094 458.198 535.592 458.344 536.19 458.344C537.156 458.344 537.953 458.076 538.582 457.539C539.211 457.002 539.525 456.197 539.525 455.124V454.043L537.869 454.089ZM545.97 460V443.578H548.454V457.861H555.469V460H545.97ZM568.95 453.79C568.95 454.817 568.812 455.73 568.536 456.527C568.26 457.324 567.869 457.999 567.363 458.551C566.857 459.103 566.244 459.525 565.523 459.816C564.803 460.092 563.99 460.23 563.085 460.23C562.257 460.23 561.491 460.092 560.785 459.816C560.08 459.525 559.467 459.103 558.945 458.551C558.439 457.999 558.041 457.324 557.749 456.527C557.458 455.73 557.312 454.81 557.312 453.767C557.312 452.402 557.542 451.245 558.002 450.294C558.478 449.343 559.152 448.623 560.026 448.132C560.916 447.626 561.958 447.373 563.154 447.373C564.289 447.373 565.286 447.626 566.144 448.132C567.018 448.623 567.701 449.343 568.191 450.294C568.697 451.245 568.95 452.41 568.95 453.79ZM559.819 453.79C559.819 454.71 559.934 455.507 560.164 456.182C560.394 456.841 560.755 457.347 561.245 457.7C561.736 458.053 562.365 458.229 563.131 458.229C563.898 458.229 564.527 458.053 565.017 457.7C565.508 457.347 565.868 456.841 566.098 456.182C566.328 455.507 566.443 454.71 566.443 453.79C566.443 452.839 566.321 452.042 566.075 451.398C565.845 450.754 565.485 450.263 564.994 449.926C564.519 449.573 563.89 449.397 563.108 449.397C561.958 449.397 561.123 449.78 560.601 450.547C560.08 451.314 559.819 452.395 559.819 453.79ZM574.456 451.26C574.456 451.582 574.441 451.95 574.41 452.364C574.395 452.778 574.372 453.161 574.341 453.514H574.41C574.533 453.361 574.678 453.177 574.847 452.962C575.031 452.732 575.215 452.502 575.399 452.272C575.583 452.042 575.752 451.843 575.905 451.674L579.7 447.603H582.529L577.538 452.916L582.851 460H579.976L575.882 454.457L574.456 455.653V460H572.041V442.52H574.456V451.26ZM589.695 447.373C591.259 447.373 592.425 447.718 593.191 448.408C593.958 449.083 594.341 450.148 594.341 451.605V460H592.616L592.133 458.275H592.041C591.689 458.72 591.321 459.088 590.937 459.379C590.569 459.67 590.14 459.885 589.649 460.023C589.174 460.161 588.591 460.23 587.901 460.23C587.165 460.23 586.498 460.1 585.9 459.839C585.318 459.563 584.858 459.149 584.52 458.597C584.183 458.03 584.014 457.324 584.014 456.481C584.014 455.224 584.49 454.265 585.44 453.606C586.406 452.947 587.871 452.586 589.833 452.525L591.949 452.456V451.766C591.949 450.846 591.742 450.202 591.328 449.834C590.914 449.466 590.332 449.282 589.58 449.282C588.936 449.282 588.323 449.374 587.74 449.558C587.158 449.742 586.606 449.964 586.084 450.225L585.302 448.454C585.885 448.147 586.552 447.894 587.303 447.695C588.07 447.48 588.867 447.373 589.695 447.373ZM590.27 454.089C588.86 454.15 587.878 454.388 587.326 454.802C586.79 455.201 586.521 455.768 586.521 456.504C586.521 457.148 586.713 457.616 587.096 457.907C587.495 458.198 587.993 458.344 588.591 458.344C589.557 458.344 590.355 458.076 590.983 457.539C591.612 457.002 591.926 456.197 591.926 455.124V454.043L590.27 454.089ZM611.988 447.373C613.383 447.373 614.433 447.733 615.139 448.454C615.844 449.175 616.197 450.332 616.197 451.927V460H613.759V452.249C613.759 451.298 613.567 450.585 613.184 450.11C612.816 449.619 612.233 449.374 611.436 449.374C610.332 449.374 609.542 449.719 609.067 450.409C608.591 451.084 608.354 452.065 608.354 453.353V460H605.939V452.249C605.939 451.62 605.847 451.091 605.663 450.662C605.494 450.233 605.241 449.911 604.904 449.696C604.566 449.481 604.129 449.374 603.593 449.374C602.826 449.374 602.22 449.543 601.776 449.88C601.331 450.217 601.009 450.716 600.81 451.375C600.626 452.019 600.534 452.809 600.534 453.744V460H598.096V447.603H600.028L600.373 449.259H600.511C600.771 448.83 601.086 448.477 601.454 448.201C601.837 447.925 602.259 447.718 602.719 447.58C603.179 447.442 603.654 447.373 604.145 447.373C605.08 447.373 605.87 447.542 606.514 447.879C607.158 448.201 607.625 448.699 607.917 449.374H608.101C608.499 448.684 609.051 448.178 609.757 447.856C610.462 447.534 611.206 447.373 611.988 447.373Z" fill="black"/>
</svg>
