<svg width="180" height="151" viewBox="0 0 180 151" fill="none" xmlns="http://www.w3.org/2000/svg">
<path fill-rule="evenodd" clip-rule="evenodd" d="M37.5 14C37.5 8.20101 42.201 3.5 48 3.5H96.9259C97.2706 3.5 97.6135 3.51695 97.9536 3.55039V27.0469C97.9536 30.9129 101.088 34.0469 104.954 34.0469H126.75V77.5638C125.059 77.1946 123.302 77 121.5 77C107.969 77 97 87.969 97 101.5C97 105.506 97.9613 109.287 99.6656 112.625H48C42.201 112.625 37.5 107.924 37.5 102.125V14ZM101.842 116.125H48C40.268 116.125 34 109.857 34 102.125V14C34 6.26801 40.268 0 48 0H96.9259C100.639 0 104.2 1.475 106.825 4.10051L126.15 23.4246C128.775 26.0501 130.25 29.6111 130.25 33.3241V33.9224L130.251 34.0469H130.25V78.6087C139.46 82.1312 146 91.0518 146 101.5C146 115.031 135.031 126 121.5 126C113.451 126 106.308 122.118 101.842 116.125ZM53.7626 25.0126C54.446 24.3292 55.554 24.3292 56.2374 25.0126L62.4375 31.2126L68.6376 25.0126C69.321 24.3292 70.429 24.3292 71.1124 25.0126C71.7959 25.696 71.7959 26.804 71.1124 27.4874L64.9124 33.6875L71.1124 39.8876C71.7959 40.571 71.7959 41.679 71.1124 42.3624C70.429 43.0459 69.321 43.0459 68.6376 42.3624L62.4375 36.1624L56.2374 42.3624C55.554 43.0459 54.446 43.0459 53.7626 42.3624C53.0792 41.679 53.0792 40.571 53.7626 39.8876L59.9626 33.6875L53.7626 27.4874C53.0792 26.804 53.0792 25.696 53.7626 25.0126ZM53.25 58.625C53.25 56.2088 55.2088 54.25 57.625 54.25H83.875C86.2913 54.25 88.25 56.2088 88.25 58.625C88.25 61.0413 86.2913 63 83.875 63H57.625C55.2088 63 53.25 61.0413 53.25 58.625ZM57.625 57.75C57.1418 57.75 56.75 58.1418 56.75 58.625C56.75 59.1083 57.1418 59.5 57.625 59.5H83.875C84.3583 59.5 84.75 59.1083 84.75 58.625C84.75 58.1418 84.3583 57.75 83.875 57.75H57.625ZM57.625 68.25C55.2088 68.25 53.25 70.2088 53.25 72.625C53.25 75.0413 55.2088 77 57.625 77H106.625C109.041 77 111 75.0413 111 72.625C111 70.2088 109.041 68.25 106.625 68.25H57.625ZM56.75 72.625C56.75 72.1418 57.1418 71.75 57.625 71.75H106.625C107.108 71.75 107.5 72.1418 107.5 72.625C107.5 73.1083 107.108 73.5 106.625 73.5H57.625C57.1418 73.5 56.75 73.1083 56.75 72.625ZM135.643 14.395C134.494 12.7641 132.425 12.0598 130.519 12.651C127.537 13.5764 126.324 17.1406 128.122 19.6931L131.936 25.1068C133.118 26.7846 133.758 28.7842 133.769 30.8366L133.807 37.4895C133.821 40.0342 135.894 42.0864 138.438 42.0752C140.986 42.0639 143.042 39.9887 143.029 37.441L142.994 30.2149C142.976 26.6843 141.877 23.244 139.843 20.3576L135.643 14.395ZM131.557 15.9938C132.012 15.8524 132.507 16.0208 132.782 16.4107L136.982 22.3733C138.603 24.6745 139.48 27.4174 139.494 30.2322L139.529 37.4583C139.532 38.0723 139.037 38.5725 138.423 38.5752C137.81 38.5779 137.31 38.0833 137.306 37.47L137.269 30.817C137.254 28.0497 136.391 25.3534 134.797 23.0911L130.984 17.6774C130.554 17.0671 130.844 16.215 131.557 15.9938ZM100.5 101.5C100.5 89.902 109.902 80.5 121.5 80.5C133.098 80.5 142.5 89.902 142.5 101.5C142.5 113.098 133.098 122.5 121.5 122.5C109.902 122.5 100.5 113.098 100.5 101.5ZM117.125 90.125C117.125 87.7088 119.084 85.75 121.5 85.75C123.916 85.75 125.875 87.7088 125.875 90.125V100.625C125.875 103.041 123.916 105 121.5 105C119.084 105 117.125 103.041 117.125 100.625V90.125ZM121.5 89.25C121.017 89.25 120.625 89.6418 120.625 90.125V100.625C120.625 101.108 121.017 101.5 121.5 101.5C121.983 101.5 122.375 101.108 122.375 100.625V90.125C122.375 89.6418 121.983 89.25 121.5 89.25ZM121.5 117.25C119.084 117.25 117.125 115.291 117.125 112.875C117.125 110.459 119.084 108.5 121.5 108.5C123.916 108.5 125.875 110.459 125.875 112.875C125.875 115.291 123.916 117.25 121.5 117.25ZM120.625 112.875C120.625 113.358 121.017 113.75 121.5 113.75C121.983 113.75 122.375 113.358 122.375 112.875C122.375 112.392 121.983 112 121.5 112C121.017 112 120.625 112.392 120.625 112.875Z" fill="#C0C0C0"/>
<ellipse opacity="0.1" cx="90" cy="145.4" rx="90" ry="5.4" fill="black"/>
</svg>
