<?xml version="1.0" encoding="utf-8"?>
<svg version="1.1" xmlns="http://www.w3.org/2000/svg" xmlns:xlink="http://www.w3.org/1999/xlink" x="0px" y="0px"
	 viewBox="0 0 3710 3710" style="enable-background:new 0 0 3710 3710;" xml:space="preserve">
<g id="Background">
	<g>
		<g>
			<rect style="fill:none;" width="3710" height="3710"/>
		</g>
	</g>
</g>
<g id="Illustration">
	<g>
		<linearGradient id="SVGID_1_" gradientUnits="userSpaceOnUse" x1="3444.0757" y1="3249.1389" x2="1393.8434" y2="1455.1871">
			<stop  offset="0" style="stop-color:#DAE3FE"/>
			<stop  offset="1" style="stop-color:#E9EFFD"/>
		</linearGradient>
		<path style="fill:url(#SVGID_1_);" d="M3095.643,2317.46c-264.973,623.904-970.798,973.419-1582.892,879.139
			c-99.6-15.342-372.656-61.041-614.409-276.635C432.951,2504.929,333.423,1683.107,708.84,1103.949
			c273.238-421.525,763.044-660.474,1228.457-648.521c100.25,2.574,484.449,18.441,822.093,296.856
			c49.593,40.894,158.976,138.068,257.557,292.229C3248.432,1406.511,3268.329,1910.854,3095.643,2317.46z"/>
		<g>
			<g>

					<linearGradient id="SVGID_00000054960906215365532830000002721744927556107955_" gradientUnits="userSpaceOnUse" x1="1895.8457" y1="2945.8083" x2="1868.6187" y2="1073.8732">
					<stop  offset="0" style="stop-color:#09005D"/>
					<stop  offset="1" style="stop-color:#1A0F91"/>
				</linearGradient>
				<path style="fill:url(#SVGID_00000054960906215365532830000002721744927556107955_);" d="M646.032,2726.46
					c0,24.165,19.791,43.937,43.979,43.937h2378.193c24.188,0,43.979-19.771,43.979-43.937l19.789-1366.682
					c0-24.165-28.47-71.341-80.648-67.796l-2324.233-60.139c-30.349-0.785-59.693,10.896-81.185,32.318
					c-21.492,21.422-33.251,50.71-32.534,81.032L646.032,2726.46z"/>

					<linearGradient id="SVGID_00000058573907334564885450000016932588576844452279_" gradientUnits="userSpaceOnUse" x1="621.488" y1="3117.9089" x2="4304.0869" y2="-176.6926">
					<stop  offset="0" style="stop-color:#4F52FF"/>
					<stop  offset="1" style="stop-color:#4042E2"/>
				</linearGradient>
				<path style="fill:url(#SVGID_00000058573907334564885450000016932588576844452279_);" d="M689.45,2684.309
					c0,22.883,18.723,41.607,41.607,41.607h2279.795c22.884,0,41.607-18.724,41.607-41.607l18.674-1240.686
					c-2.199-74.662-67.656-101.495-107.336-99.911l-2227.565-59.762c-21.322-0.572-41.937,7.643-57.038,22.706
					c-15.101,15.063-23.407,35.677-22.872,56.999L689.45,2684.309z"/>
				<g>
					<path style="fill:#BDD0FB;" d="M3027.824,2094.896c-0.031,0-0.061,0-0.061,0c-3.399-0.049-6.089-2.818-6.038-6.19
						l1.476-100.618c0.049-3.335,2.769-6.007,6.092-6.007c0.031,0,0.061,0,0.091,0c3.369,0.049,6.059,2.818,6.007,6.19
						l-1.476,100.618C3033.868,2092.224,3031.147,2094.896,3027.824,2094.896z"/>
					<path style="fill:#BDD0FB;" d="M3031.445,1848.331c-0.03,0-0.061,0-0.091,0c-3.369-0.049-6.059-2.824-6.007-6.19l5.657-385.368
						c-0.106-22.89-7.054-41.167-20.654-54.198c-25.386-24.321-65.689-23.079-67.387-23l-711.979-19.092
						c-3.366-0.085-6.022-2.891-5.931-6.257c0.088-3.366,2.675-6.232,6.26-5.928l711.556,19.093
						c4.428-0.262,47.339-1.004,75.917,26.378c16.077,15.404,24.29,36.627,24.412,63.066l-5.66,385.489
						C3037.489,1845.659,3034.769,1848.331,3031.445,1848.331z"/>
				</g>

					<linearGradient id="SVGID_00000149370535009439988380000010240741448047874191_" gradientUnits="userSpaceOnUse" x1="1962.4954" y1="1305.4426" x2="1852.9421" y2="2852.8748">
					<stop  offset="0" style="stop-color:#09005D"/>
					<stop  offset="1" style="stop-color:#1A0F91"/>
				</linearGradient>
				<path style="fill:url(#SVGID_00000149370535009439988380000010240741448047874191_);" d="M458.756,2883.848h2792.488
					c3.11,0,5.654-2.544,5.654-5.654V2769.42c0-3.109-2.544-5.654-5.654-5.654H458.756c-3.109,0-5.654,2.544-5.654,5.654v108.774
					C453.102,2881.304,455.647,2883.848,458.756,2883.848z"/>
			</g>
		</g>
		<g>
			<path style="fill:#91B3FA;" d="M2648.642,530.166l-1493.838-9.146c-49.094-0.301-88.359,40.707-85.927,89.742l102.772,2122.387
				h1662.363l92.301-1896.239L2648.642,530.166z"/>
			<path style="fill:#7D97F4;" d="M2710.759,827.818c-48.661-1.712-86.072-43.652-82.237-92.192l16.014-202.664l282.07,302.703
				L2710.759,827.818z"/>
			<g>
				<g>
					<path style="fill:#BDD0FB;" d="M2005.319,1065.51c118.983,1.681,575.75,7.626,691.091,9.125
						c14.549,0.189,26.21,9.808,25.769,21.232l0,0c-0.419,10.875-11.713,19.379-25.561,19.249l-690.747-6.487
						c-13.305-0.125-24.488-8.199-25.799-18.626l-0.332-2.638C1978.242,1075.442,1990.105,1065.295,2005.319,1065.51z"/>
					<path style="fill:#BDD0FB;" d="M1992.954,1192.266L1992.954,1192.266c1.916,2.737,5.536,4.48,9.478,4.565l474.083,10.186
						c5.955,0.128,10.86-3.508,11.04-8.184l0.946-24.537c0.188-4.875-4.815-8.974-11.024-9.031l-461.081-4.234
						C1995.859,1160.841,1982.974,1178.01,1992.954,1192.266z"/>
				</g>
				<g>
					<path style="fill:#BDD0FB;" d="M1995.964,1287.449c118.983,1.681,575.75,7.626,691.091,9.125
						c14.549,0.189,26.209,9.808,25.769,21.232l0,0c-0.419,10.875-11.713,19.379-25.561,19.249l-690.747-6.487
						c-13.305-0.125-24.488-8.199-25.799-18.626l-0.332-2.638C1968.886,1297.381,1980.749,1287.234,1995.964,1287.449z"/>
					<path style="fill:#BDD0FB;" d="M1983.598,1414.205L1983.598,1414.205c1.916,2.737,5.536,4.48,9.478,4.565l474.083,10.186
						c5.955,0.128,10.86-3.508,11.04-8.184l0.946-24.537c0.188-4.875-4.815-8.974-11.024-9.031l-461.081-4.234
						C1986.503,1382.781,1973.619,1399.949,1983.598,1414.205z"/>
				</g>
				<g>
					<g>
						<g style="opacity:0.8;">
							<path style="fill:#FFFFFF;" d="M1792.254,1049.722c-2.439-2.998-6.263-4.242-10.321-4.157l-369.381,7.749l-9.331-29.64
								c-1.297-4.129-5.18-6.773-9.571-6.658l-50.715,1.333c-5.438,0.143-9.842,3.924-9.842,9.352c0,5.427,4.404,8.989,9.842,8.861
								l43.339-1.024l78.422,250.591c1.32,4.218,5.28,7.119,9.769,7.179l259.267,3.481c6.085,0.082,11.024-3.737,11.024-9.49
								c0-5.752-4.94-9.692-11.024-9.757l-251.702-2.713l-20.201-65.064l276.599,0.419c5.663,0.009,10.655-3.698,12.242-8.837
								l43.655-141.152C1795.463,1056.513,1794.696,1052.722,1792.254,1049.722z"/>
							<path style="fill:#FFFFFF;" d="M1512.393,1308.764c-21.332-0.332-38.59,16.271-38.59,37.01
								c0,20.738,17.258,38.062,38.59,38.623c21.461,0.564,39.017-16.032,39.017-37
								C1551.41,1326.429,1533.853,1309.098,1512.393,1308.764z M1512.393,1364.228c-9.97-0.234-18.062-8.319-18.062-18.025
								c0-9.706,8.091-17.453,18.062-17.27c9.998,0.184,18.155,8.271,18.155,18.027
								C1530.547,1356.716,1522.391,1364.462,1512.393,1364.228z"/>
							<path style="fill:#FFFFFF;" d="M1685.223,1311.451c-22.389-0.348-40.501,16.653-40.501,37.896
								c0,21.243,18.112,39.001,40.501,39.589c22.527,0.592,40.959-16.402,40.959-37.886
								C1726.182,1329.566,1707.75,1311.801,1685.223,1311.451z M1685.223,1368.274c-10.464-0.245-18.957-8.533-18.957-18.476
								c0-9.943,8.492-17.876,18.957-17.684c10.495,0.193,19.057,8.483,19.057,18.478
								C1704.28,1360.588,1695.718,1368.52,1685.223,1368.274z"/>
						</g>
					</g>
					<path style="opacity:0.81;fill:#FFFFFF;" d="M1580.713,1482.915c-178.047,0-322.899-144.852-322.899-322.899
						c0-178.047,144.852-322.899,322.899-322.899s322.899,144.852,322.899,322.899
						C1903.612,1338.063,1758.76,1482.915,1580.713,1482.915z M1580.713,864.345c-163.033,0-295.671,132.638-295.671,295.671
						c0,163.033,132.638,295.671,295.671,295.671s295.671-132.638,295.671-295.671
						C1876.384,996.983,1743.746,864.345,1580.713,864.345z"/>
				</g>
			</g>
		</g>
		<g>
			<g>
				<g style="opacity:0.3;">
					<path style="fill:#BDD0FB;" d="M988.041,742.163c-2.045,4.598-7.432,6.665-12.027,4.619c-8.93-3.974-18.165-7.62-27.451-10.835
						c-4.698-1.627-7.212-6.713-5.682-11.42c0.018-0.056,0.036-0.112,0.055-0.169c1.646-4.754,6.835-7.272,11.591-5.625
						c9.773,3.385,19.496,7.222,28.896,11.406c4.299,1.912,6.385,6.749,4.962,11.128
						C988.286,741.568,988.174,741.868,988.041,742.163z M902.296,723.398c-9.632-1.919-19.437-3.444-29.152-4.533
						c-4.996-0.56-8.597-5.066-8.038-10.067c0.58-5.016,5.07-8.598,10.07-8.037c10.22,1.145,20.542,2.75,30.677,4.767
						c4.934,0.983,8.137,5.781,7.154,10.715c-0.072,0.358-0.163,0.708-0.273,1.047C911.326,721.619,906.871,724.309,902.296,723.398
						z M825.273,716.854c-9.791,0.273-19.687,0.974-29.422,2.088c-4.997,0.572-9.514-3.018-10.086-8.016
						c-0.565-4.994,3.017-9.511,8.016-10.086c10.251-1.172,20.676-1.912,30.984-2.198c5.029-0.14,9.218,3.824,9.361,8.852
						c0.029,1.072-0.127,2.106-0.441,3.07C832.529,714.126,829.23,716.745,825.273,716.854z M748.722,727.701
						c-9.494,2.456-18.99,5.356-28.228,8.612c-4.745,1.671-9.948-0.819-11.62-5.563c-1.667-4.746,0.824-9.945,5.563-11.62
						c9.728-3.428,19.726-6.479,29.716-9.068c4.87-1.26,9.841,1.665,11.102,6.535c0.451,1.742,0.367,3.498-0.151,5.092
						C754.172,724.551,751.848,726.889,748.722,727.701z M676.495,755.331c-8.69,4.493-17.312,9.422-25.62,14.654
						c-4.26,2.679-9.883,1.398-12.563-2.859c-2.682-4.26-1.4-9.884,2.86-12.56c8.741-5.502,17.813-10.689,26.957-15.417
						c4.467-2.312,9.964-0.562,12.274,3.908c1.165,2.251,1.299,4.764,0.572,7C680.26,752.256,678.712,754.185,676.495,755.331z
						 M612.181,798.254c-7.492,6.312-14.805,13.025-21.737,19.953c-3.558,3.556-9.328,3.554-12.882-0.003
						c-3.557-3.559-3.558-9.325,0.002-12.884c7.294-7.291,14.994-14.357,22.879-21c3.849-3.24,9.593-2.75,12.836,1.098
						c2.106,2.499,2.635,5.799,1.693,8.694C614.465,795.674,613.531,797.118,612.181,798.254z M483.495,1111.091
						c-4.999,0.564-9.509-3.032-10.073-8.032c-1.153-10.241-1.874-20.673-2.141-31.001c-0.13-5.03,3.841-9.213,8.87-9.342
						c5.027-0.132,9.21,3.84,9.341,8.868c0.254,9.807,0.94,19.711,2.036,29.437c0.15,1.334,0.005,2.632-0.385,3.831
						C490.073,1108.144,487.161,1110.679,483.495,1111.091z M559.015,854.331c-5.897,7.816-11.527,15.984-16.731,24.279
						c-2.676,4.261-8.299,5.548-12.56,2.874c-4.264-2.675-5.526-8.287-2.872-12.559c5.481-8.734,11.409-17.336,17.621-25.566
						c3.03-4.015,8.742-4.815,12.759-1.784c3.185,2.403,4.347,6.494,3.179,10.088C560.106,852.598,559.64,853.5,559.015,854.331z
						 M481.513,1031.723c-4.997-0.569-8.588-5.085-8.018-10.084c1.17-10.238,2.797-20.562,4.831-30.684
						c0.97-4.942,5.795-8.125,10.727-7.135c4.931,0.992,8.125,5.794,7.135,10.727c-1.934,9.62-3.481,19.43-4.59,29.161
						c-0.071,0.621-0.205,1.219-0.391,1.79C489.896,1029.531,485.889,1032.223,481.513,1031.723z M519.722,920.872
						c-3.997,8.934-7.662,18.157-10.889,27.418c-1.654,4.753-6.847,7.261-11.599,5.605c-4.688-1.634-7.194-6.714-5.666-11.415
						c0.02-0.061,0.04-0.124,0.063-0.183c3.395-9.751,7.251-19.462,11.457-28.865c2.058-4.591,7.445-6.649,12.038-4.595
						c4.289,1.918,6.367,6.749,4.945,11.121C519.972,920.264,519.854,920.57,519.722,920.872z"/>
					<path style="fill:#BDD0FB;" d="M504.025,1167.506c0.555-1.706,0.614-3.593,0.055-5.441c-1.359-4.496-2.644-9.095-3.828-13.671
						c-1.257-4.87-6.227-7.801-11.096-6.543c-4.872,1.256-7.809,6.226-6.542,11.098c1.241,4.813,2.595,9.649,4.024,14.381
						c1.454,4.815,6.539,7.542,11.352,6.087C500.961,1172.523,503.134,1170.247,504.025,1167.506z"/>
				</g>
				<g style="opacity:0.3;">
					<path style="fill:#BDD0FB;" d="M681.767,1380.902c1.359-4.181-0.476-8.847-4.514-10.916c-4.18-2.139-8.387-4.403-12.499-6.727
						c-4.381-2.476-9.938-0.932-12.413,3.448c-2.485,4.398-0.93,9.939,3.448,12.413c4.33,2.446,8.76,4.831,13.161,7.085
						c4.478,2.292,9.967,0.521,12.26-3.957C681.435,1381.808,681.62,1381.357,681.767,1380.902z"/>
					<path style="fill:#BDD0FB;" d="M1175.026,1192.175c-1.787,4.703-7.049,7.066-11.755,5.277
						c-4.702-1.789-7.057-7.042-5.275-11.752c3.404-8.953,6.479-18.19,9.18-27.558c1.371-4.815,6.444-7.622,11.278-6.228
						c4.834,1.394,7.622,6.443,6.23,11.277c-1.17,4.059-2.403,8.083-3.699,12.069
						C1179.137,1180.946,1177.133,1186.638,1175.026,1192.175z M1184.84,1122.363c-4.976-0.727-8.422-5.352-7.694-10.329
						c1.394-9.558,2.402-19.276,2.99-28.888c0.292-5.016,4.626-8.843,9.649-8.537c5.019,0.307,8.841,4.628,8.533,9.648
						c-0.618,10.12-1.677,20.352-3.147,30.408c-0.076,0.522-0.195,1.027-0.352,1.511
						C1193.47,1120.32,1189.298,1123.014,1184.84,1122.363z M1154.248,1237.256c-4.863,8.892-10.173,17.698-15.786,26.172
						c-2.778,4.194-8.431,5.342-12.627,2.564c-4.193-2.778-5.335-8.426-2.563-12.625c5.333-8.047,10.374-16.407,14.99-24.852
						c2.415-4.414,7.949-6.036,12.365-3.622c3.904,2.135,5.622,6.714,4.294,10.799
						C1154.749,1236.224,1154.526,1236.748,1154.248,1237.256z M1189.554,1044.379c-5.015,0.385-9.396-3.371-9.778-8.387
						c-0.735-9.616-1.893-19.314-3.436-28.826c-0.809-4.97,2.563-9.645,7.532-10.451c4.965-0.807,9.643,2.565,10.449,7.53
						c1.626,10.017,2.844,20.231,3.62,30.356c0.092,1.224-0.057,2.409-0.415,3.509
						C1196.42,1041.517,1193.346,1044.089,1189.554,1044.379z M1108.293,1302.802c-6.695,7.6-13.81,15.019-21.148,22.053
						c-3.631,3.482-9.395,3.36-12.877-0.269c-3.485-3.632-3.361-9.399,0.27-12.88c6.969-6.683,13.728-13.729,20.085-20.947
						c3.327-3.775,9.084-4.139,12.858-0.813c2.813,2.478,3.731,6.305,2.642,9.655
						C1109.75,1300.748,1109.14,1301.841,1108.293,1302.802z M1049.077,1356.68c-8.215,5.967-16.777,11.656-25.448,16.911
						c-4.305,2.606-9.904,1.232-12.513-3.071c-2.61-4.31-1.235-9.909,3.072-12.51c8.239-4.994,16.376-10.4,24.183-16.069
						c4.071-2.957,9.767-2.053,12.724,2.017c1.78,2.453,2.16,5.497,1.289,8.175C1051.81,1353.9,1050.693,1355.507,1049.077,1356.68z
						 M979.523,1396.375c-9.324,4.038-18.923,7.728-28.525,10.966c-4.769,1.607-9.934-0.954-11.543-5.721
						c-1.61-4.773,0.956-9.936,5.721-11.542c9.127-3.076,18.244-6.583,27.106-10.421c4.616-2,9.981,0.122,11.978,4.738
						c0.919,2.121,0.969,4.397,0.306,6.434C983.786,1393.228,982.019,1395.293,979.523,1396.375z M902.968,1419.951
						c-9.98,1.902-20.158,3.399-30.25,4.449c-5.004,0.521-9.483-3.113-10.004-8.118c-0.52-4.996,3.116-9.48,8.119-10.001
						c9.581-0.997,19.244-2.419,28.725-4.226c4.942-0.942,9.71,2.3,10.651,7.242c0.297,1.561,0.177,3.103-0.282,4.515
						C908.935,1416.868,906.351,1419.306,902.968,1419.951z M823.062,1426.132c-10.129-0.343-20.378-1.125-30.464-2.324
						c-4.997-0.594-8.567-5.126-7.972-10.121c0.594-4.98,5.123-8.564,10.12-7.971c9.582,1.14,19.316,1.881,28.938,2.209
						c5.026,0.169,8.965,4.385,8.793,9.412c-0.03,0.875-0.181,1.719-0.439,2.512
						C830.814,1423.613,827.214,1426.274,823.062,1426.132z M743.831,1414.629c-7.23-1.872-14.492-3.99-21.582-6.295
						c-2.568-0.835-5.117-1.695-7.654-2.582c-4.747-1.659-7.366-6.827-5.593-11.603c1.656-4.75,6.853-7.255,11.604-5.596
						c2.409,0.841,4.836,1.662,7.276,2.455c6.741,2.192,13.641,4.205,20.516,5.985c4.87,1.26,7.796,6.231,6.534,11.101
						c-0.048,0.183-0.1,0.364-0.157,0.542C753.297,1413.179,748.517,1415.844,743.831,1414.629z"/>
					<path style="fill:#BDD0FB;" d="M1182.909,961.159c0.56-1.722,0.614-3.626,0.044-5.486c-1.449-4.714-3.026-9.486-4.686-14.185
						c-1.676-4.745-6.88-7.232-11.622-5.556c-4.743,1.677-7.234,6.875-5.556,11.622c1.576,4.463,3.073,8.997,4.45,13.472
						c1.476,4.807,6.573,7.508,11.382,6.03C1179.869,966.149,1182.024,963.883,1182.909,961.159z"/>
				</g>
				<g>
					<path style="fill:#BDD0FB;" d="M1044.981,887.92c-0.984-1.527-2.827-2.263-4.592-1.831l-50.333,12.315
						c-17.395-16.823-37.597-30.994-60.091-41.68l-6.131-51.421c-0.215-1.804-1.551-3.272-3.326-3.657l-60.745-13.162
						c-1.775-0.386-3.6,0.399-4.541,1.951l-26.866,44.271c-24.9,0.416-49.157,4.953-71.955,13.068l-40.721-32.044
						c-1.428-1.123-3.411-1.217-4.938-0.233l-52.261,33.646c-1.527,0.983-2.263,2.828-1.83,4.592l12.316,50.333
						c-16.824,17.394-30.995,37.597-41.68,60.092l-51.421,6.131c-1.804,0.215-3.272,1.55-3.657,3.326l-13.163,60.746
						c-0.384,1.776,0.4,3.599,1.953,4.541l44.272,26.866c0.416,24.9,4.953,49.156,13.069,71.954l-32.045,40.721
						c-1.123,1.427-1.218,3.41-0.234,4.938l33.646,52.261c0.983,1.527,2.828,2.262,4.591,1.831l50.335-12.316
						c17.394,16.824,37.596,30.994,60.091,41.679l6.132,51.421c0.214,1.804,1.55,3.273,3.325,3.657l60.746,13.162
						c1.775,0.385,3.599-0.399,4.541-1.952l26.866-44.271c24.9-0.416,49.157-4.953,71.955-13.068l40.721,32.044
						c1.427,1.124,3.409,1.218,4.938,0.234l52.261-33.647c1.527-0.983,2.262-2.827,1.831-4.591l-12.316-50.334
						c16.824-17.394,30.994-37.597,41.68-60.091l51.421-6.131c1.802-0.216,3.271-1.551,3.656-3.326l13.162-60.746
						c0.384-1.775-0.399-3.599-1.952-4.541l-44.27-26.865c-0.416-24.9-4.955-49.156-13.069-71.954l32.045-40.721
						c1.123-1.427,1.217-3.41,0.234-4.937L1044.981,887.92z"/>

						<linearGradient id="SVGID_00000080181062794341769250000004464465855700547763_" gradientUnits="userSpaceOnUse" x1="769.8323" y1="1061.7833" x2="894.8151" y2="1061.7833">
						<stop  offset="0" style="stop-color:#DAE3FE"/>
						<stop  offset="1" style="stop-color:#E9EFFD"/>
					</linearGradient>
					<path style="fill:url(#SVGID_00000080181062794341769250000004464465855700547763_);" d="M888.308,1089.557
						c-15.315,30.858-52.877,43.506-83.739,28.191c-14.95-7.417-26.115-20.214-31.438-36.03
						c-5.325-15.813-4.175-32.757,3.248-47.706c15.315-30.858,52.877-43.506,83.739-28.191
						c28.075,13.934,41.075,46.28,31.658,75.243C890.843,1083.934,889.688,1086.774,888.308,1089.557z M786.945,1077.067
						c4.083,12.127,12.642,21.937,24.106,27.626c23.658,11.74,52.462,2.045,64.203-21.615c11.753-23.663,2.045-52.463-21.616-64.205
						c-23.658-11.74-52.462-2.044-64.203,21.615c-1.064,2.146-1.958,4.342-2.685,6.578
						C783.591,1056.78,783.628,1067.211,786.945,1077.067z"/>

						<linearGradient id="SVGID_00000034052966795823003000000017592483336704124853_" gradientUnits="userSpaceOnUse" x1="677.5005" y1="1062.4225" x2="984.8303" y2="1062.4225">
						<stop  offset="0" style="stop-color:#DAE3FE"/>
						<stop  offset="1" style="stop-color:#E9EFFD"/>
					</linearGradient>
					<path style="fill:url(#SVGID_00000034052966795823003000000017592483336704124853_);" d="M977.198,1110.177
						c1.617-4.974,2.994-10.059,4.117-15.24l0,0c0.354-1.63,0.681-3.268,0.982-4.91c1.483-8.096,2.32-16.296,2.498-24.476
						c0.003-0.111,0.005-0.223,0.008-0.334c0.005-0.316,0.011-0.632,0.013-0.95c0.01-0.616,0.012-1.233,0.013-1.848
						c0.003-1.619-1.051-2.993-2.513-3.47c-0.355-0.115-0.735-0.177-1.128-0.178c-2.012-0.003-3.639,1.631-3.645,3.64
						c-0.01,10.355-1.139,20.778-3.352,30.98c-10.972,50.681-47.133,89.539-92.501,106.311
						c-25.233,9.332-53.317,11.827-81.503,5.718c-4.943-1.07-9.796-2.382-14.54-3.926c-31.93-10.385-59.09-31.261-77.51-59.873
						c-21.16-32.865-28.255-72.004-19.978-110.203c17.102-78.892,95.149-129.116,174.004-112.029
						c4.862,1.053,9.653,2.349,14.353,3.879c20.367,6.625,39.058,17.634,54.693,32.3c0.405,0.379,0.871,0.648,1.365,0.807
						c1.299,0.422,2.787,0.092,3.784-0.972c1.373-1.473,1.309-3.773-0.166-5.152c-16.415-15.398-36.038-26.958-57.42-33.913
						c-4.933-1.606-9.961-2.965-15.064-4.073c-82.792-17.94-164.739,34.845-182.673,117.607c-8.69,40.104-1.24,81.19,20.974,115.692
						c19.337,30.038,47.851,51.953,81.37,62.857c4.981,1.619,10.075,2.996,15.261,4.122c40.107,8.689,81.194,1.242,115.695-20.971
						C944.382,1172.23,966.298,1143.705,977.198,1110.177z"/>
				</g>
			</g>
			<g>
				<g style="opacity:0.3;">
					<path style="fill:#BDD0FB;" d="M1312.79,519.86c0.753-2.315-0.064-4.938-2.177-6.381c-3.942-2.697-8.02-5.311-12.12-7.768
						c-2.664-1.597-6.117-0.732-7.718,1.934c-1.611,2.663-0.73,6.121,1.934,7.718c3.907,2.342,7.794,4.833,11.557,7.406
						c2.561,1.754,6.062,1.095,7.82-1.467C1312.395,520.844,1312.628,520.36,1312.79,519.86z"/>
					<path style="fill:#BDD0FB;" d="M1274.769,499.351c-1.258,2.841-4.577,4.128-7.421,2.87c-7.174-3.167-14.594-6.004-22.051-8.428
						c-1.573-0.511-3.157-1.006-4.751-1.487c-2.971-0.9-4.655-4.038-3.757-7.013c0.961-2.779,4.038-4.655,7.017-3.759
						c1.667,0.505,3.325,1.023,4.971,1.558c7.817,2.541,15.597,5.515,23.119,8.84c2.663,1.174,3.96,4.167,3.078,6.879
						C1274.916,498.991,1274.845,499.17,1274.769,499.351z M1212.742,485.725c-9.369-1.622-18.922-2.68-28.393-3.138
						c-3.105-0.152-5.495-2.786-5.346-5.892c0.154-3.087,2.787-5.499,5.892-5.347c9.926,0.48,19.942,1.587,29.765,3.29
						c3.062,0.531,5.115,3.442,4.587,6.506c-0.047,0.268-0.115,0.532-0.198,0.785
						C1218.197,484.546,1215.532,486.207,1212.742,485.725z M1155.777,482.986c-9.466,0.721-18.986,2.046-28.301,3.937
						c-3.043,0.617-6.014-1.351-6.631-4.394c-0.618-3.055,1.344-6.017,4.393-6.634c9.767-1.984,19.756-3.37,29.681-4.13
						c3.098-0.235,5.805,2.084,6.04,5.181c0.055,0.755-0.039,1.487-0.259,2.166C1160.016,481.216,1158.118,482.806,1155.777,482.986
						z M1099.879,494.328c-9.014,3.026-17.925,6.64-26.469,10.74c-2.806,1.344-6.165,0.162-7.507-2.64
						c-1.339-2.795-0.164-6.16,2.637-7.506c8.967-4.301,18.304-8.088,27.759-11.263c2.945-0.99,6.137,0.6,7.126,3.545
						c0.394,1.188,0.376,2.415,0.016,3.523C1102.909,492.366,1101.637,493.738,1099.879,494.328z M1048.444,518.972
						c-8.004,5.125-15.763,10.792-23.069,16.846c-2.389,1.982-5.938,1.649-7.921-0.744c-1.984-2.393-1.657-5.941,0.744-7.922
						c7.655-6.345,15.791-12.285,24.177-17.659c2.618-1.673,6.097-0.912,7.771,1.703c0.947,1.478,1.116,3.231,0.613,4.778
						C1050.37,517.169,1049.583,518.241,1048.444,518.972z M1004.55,555.355c-6.51,6.911-12.648,14.292-18.244,21.945
						c-1.832,2.507-5.355,3.054-7.861,1.22c-2.506-1.835-3.053-5.343-1.222-7.865c5.867-8.024,12.308-15.769,19.137-23.018
						c2.132-2.259,5.692-2.367,7.951-0.237c1.636,1.543,2.145,3.835,1.494,5.839C1005.556,554.004,1005.141,554.73,1004.55,555.355z
						 M970.902,601.349c-4.601,8.271-8.744,16.942-12.309,25.775c-1.167,2.879-4.445,4.272-7.325,3.107
						c-2.881-1.161-4.231-4.42-3.113-7.326c3.744-9.257,8.086-18.349,12.911-27.024c1.512-2.715,4.938-3.692,7.654-2.182
						c2.388,1.328,3.431,4.143,2.616,6.651C971.226,600.689,971.083,601.024,970.902,601.349z M937.524,687.027
						c-3.078-0.429-5.223-3.269-4.794-6.348c1.187-8.52,2.862-17.121,4.97-25.541c0.313-1.282,0.645-2.552,0.983-3.823
						c0.713-3.009,3.889-4.784,6.896-3.972c3.002,0.806,4.778,3.89,3.975,6.894c-0.323,1.189-0.631,2.386-0.93,3.609
						c-2.02,8.059-3.618,16.263-4.751,24.387c-0.046,0.335-0.122,0.66-0.222,0.968C942.821,685.748,940.265,687.41,937.524,687.027z
						"/>
				</g>
				<g style="opacity:0.3;">
					<path style="fill:#BDD0FB;" d="M1403.456,792.463c-3.152,9.285-6.902,18.457-11.135,27.266
						c-1.348,2.797-4.708,3.978-7.511,2.631c-2.803-1.347-3.944-4.716-2.631-7.511c4.041-8.398,7.614-17.148,10.621-26.006
						c0.997-2.943,4.195-4.517,7.135-3.518c2.918,0.992,4.494,4.145,3.544,7.065L1403.456,792.463z M1404.571,768.384
						c-3.039-0.639-4.987-3.623-4.345-6.662c1.922-9.147,3.312-18.503,4.125-27.809c0.278-3.076,2.999-5.386,6.099-5.112
						c3.096,0.27,5.381,2.997,5.114,6.094c-0.854,9.752-2.308,19.557-4.327,29.142c-0.043,0.203-0.094,0.397-0.157,0.59
						C1410.202,767.323,1407.415,768.982,1404.571,768.384z M1377.942,845.458c-5.306,8.252-11.159,16.252-17.401,23.773
						c-1.985,2.391-5.535,2.721-7.923,0.737c-2.394-1.983-2.719-5.517-0.741-7.922c5.955-7.175,11.538-14.803,16.604-22.674
						c1.682-2.614,5.163-3.369,7.772-1.691c2.198,1.414,3.082,4.098,2.31,6.471C1378.417,844.601,1378.211,845.039,1377.942,845.458
						z M1410.899,711.245c-3.104,0.111-5.711-2.319-5.823-5.423c-0.332-9.34-1.242-18.75-2.708-27.974
						c-0.482-3.066,1.611-5.95,4.67-6.44c3.07-0.487,5.955,1.604,6.442,4.674c1.541,9.673,2.497,19.546,2.842,29.341
						c0.022,0.677-0.075,1.331-0.272,1.939C1415.339,709.546,1413.325,711.159,1410.899,711.245z M1340.39,890.7
						c-7.119,6.719-14.724,13.071-22.606,18.886c-2.501,1.845-6.025,1.311-7.869-1.189c-1.845-2.501-1.318-6.024,1.189-7.869
						c7.521-5.542,14.772-11.602,21.559-18.013c2.259-2.131,5.82-2.031,7.955,0.232c1.462,1.547,1.873,3.711,1.257,5.605
						C1341.594,889.216,1341.099,890.029,1340.39,890.7z M1293.073,925.618c-8.537,4.828-17.446,9.18-26.472,12.936
						c-2.867,1.194-6.158-0.162-7.351-3.031c-1.195-2.864,0.16-6.162,3.033-7.357c8.606-3.583,17.103-7.737,25.251-12.344
						c2.704-1.53,6.138-0.576,7.667,2.129c0.807,1.429,0.923,3.062,0.452,4.512C1295.233,923.753,1294.347,924.897,1293.073,925.618
						z M1238.753,948.204c-9.451,2.647-19.148,4.734-28.814,6.208c-3.075,0.467-5.942-1.643-6.41-4.716
						c-0.47-3.07,1.647-5.938,4.712-6.409c9.22-1.402,18.465-3.394,27.474-5.922c2.993-0.838,6.1,0.909,6.935,3.902
						c0.315,1.11,0.267,2.233-0.064,3.252C1242.024,946.248,1240.636,947.675,1238.753,948.204z"/>
					<path style="fill:#BDD0FB;" d="M1406.965,650.344c0.335-1.032,0.376-2.171,0.054-3.293c-1.332-4.628-2.81-9.236-4.385-13.7
						c-1.036-2.928-4.25-4.467-7.181-3.432c-2.921,1.041-4.461,4.249-3.432,7.181c1.505,4.256,2.912,8.654,4.186,13.069
						c0.86,2.986,3.981,4.708,6.964,3.847C1405.033,653.477,1406.407,652.06,1406.965,650.344z"/>
				</g>
				<g>
					<path style="fill:#BDD0FB;" d="M1313.883,597.349c-0.659-1.022-1.892-1.514-3.073-1.225l-33.681,8.241
						c-11.64-11.257-25.158-20.739-40.21-27.89l-4.103-34.409c-0.144-1.207-1.038-2.189-2.226-2.447l-40.648-8.807
						c-1.188-0.258-2.409,0.267-3.039,1.305l-17.977,29.625c-16.662,0.278-32.894,3.314-48.149,8.744l-27.249-21.442
						c-0.955-0.752-2.282-0.814-3.304-0.157l-34.97,22.515c-1.022,0.658-1.514,1.892-1.225,3.073l8.241,33.68
						c-11.258,11.64-20.74,25.159-27.891,40.211l-34.408,4.103c-1.207,0.144-2.19,1.037-2.447,2.225l-8.808,40.649
						c-0.257,1.188,0.268,2.408,1.306,3.038l29.625,17.978c0.278,16.662,3.314,32.894,8.745,48.148l-21.444,27.249
						c-0.751,0.955-0.815,2.282-0.156,3.303l22.515,34.971c0.658,1.021,1.892,1.513,3.072,1.225l33.682-8.241
						c11.639,11.258,25.157,20.74,40.21,27.89l4.103,34.408c0.143,1.207,1.037,2.189,2.225,2.447l40.649,8.808
						c1.188,0.257,2.408-0.267,3.038-1.307l17.977-29.624c16.662-0.279,32.894-3.315,48.149-8.745l27.249,21.443
						c0.955,0.752,2.281,0.814,3.304,0.157l34.97-22.515c1.022-0.658,1.514-1.892,1.225-3.073l-8.241-33.681
						c11.258-11.639,20.74-25.158,27.89-40.211l34.408-4.102c1.207-0.144,2.189-1.038,2.447-2.226l8.807-40.648
						c0.257-1.188-0.267-2.408-1.306-3.038l-29.624-17.977c-0.278-16.662-3.315-32.893-8.745-48.148l21.443-27.249
						c0.752-0.955,0.814-2.282,0.156-3.304L1313.883,597.349z"/>

						<linearGradient id="SVGID_00000029743552977976192470000002047298613853062330_" gradientUnits="userSpaceOnUse" x1="1129.052" y1="713.7036" x2="1214.173" y2="713.7036">
						<stop  offset="0" style="stop-color:#DAE3FE"/>
						<stop  offset="1" style="stop-color:#E9EFFD"/>
					</linearGradient>
					<path style="fill:url(#SVGID_00000029743552977976192470000002047298613853062330_);" d="M1209.717,732.605
						c-5.051,10.187-13.769,17.793-24.544,21.419c-10.77,3.628-22.312,2.843-32.495-2.213
						c-21.018-10.43-29.613-35.975-19.204-57.042c10.438-21.019,36.024-29.631,57.037-19.2c10.184,5.052,17.79,13.768,21.417,24.541
						c2.948,8.758,2.98,18.024,0.173,26.655C1211.457,728.748,1210.66,730.702,1209.717,732.605z M1157.677,741.731
						c7.492,3.719,15.981,4.297,23.909,1.629c7.922-2.667,14.334-8.264,18.052-15.753l0,0c3.708-7.495,4.294-15.98,1.625-23.907
						c-2.664-7.923-8.264-14.334-15.751-18.05c-15.462-7.673-34.282-1.338-41.959,14.122c-0.691,1.396-1.268,2.817-1.737,4.257
						C1137.098,718.54,1143.613,734.752,1157.677,741.731z"/>

						<linearGradient id="SVGID_00000016796020478726336970000001871288205219166868_" gradientUnits="userSpaceOnUse" x1="1064.793" y1="714.0925" x2="1276.8174" y2="714.0925">
						<stop  offset="0" style="stop-color:#DAE3FE"/>
						<stop  offset="1" style="stop-color:#E9EFFD"/>
					</linearGradient>
					<path style="fill:url(#SVGID_00000016796020478726336970000001871288205219166868_);" d="M1271.586,746.953
						c1.101-3.386,2.037-6.854,2.81-10.404c1.53-7.051,2.344-14.265,2.418-21.46c0.001-0.323,0.002-0.647,0.003-0.97
						c0.004-2.5-1.623-4.621-3.88-5.358c-0.548-0.178-1.135-0.274-1.742-0.275c-3.107-0.004-5.615,2.519-5.629,5.62
						c-0.006,6.718-0.738,13.464-2.169,20.053l-0.001,0.003c-0.077,0.362-0.161,0.724-0.242,1.082
						c-3.529,15.564-10.804,29.659-21.07,41.334c-5.573,6.337-12.035,11.961-19.27,16.712c-0.059,0.039-0.117,0.077-0.176,0.116
						c-0.183,0.117-0.36,0.236-0.542,0.35c-21.277,13.696-46.614,18.291-71.344,12.932c-3.201-0.691-6.34-1.541-9.412-2.54
						c-20.67-6.723-38.253-20.239-50.181-38.762c-13.697-21.277-18.286-46.613-12.927-71.34c5.364-24.711,20.028-45.893,41.3-59.594
						c21.276-13.696,46.614-18.291,71.344-12.932c3.147,0.679,6.248,1.52,9.289,2.509c13.188,4.29,25.286,11.415,35.406,20.91
						c0.625,0.585,1.344,1.001,2.108,1.246c2.006,0.652,4.304,0.143,5.844-1.5c2.119-2.272,2.015-5.825-0.256-7.955
						c-11.325-10.623-24.863-18.598-39.611-23.399c-3.407-1.108-6.874-2.047-10.393-2.81c-27.672-5.995-56.017-0.856-79.822,14.471
						c-23.8,15.326-40.226,38.982-46.205,66.668c-5.997,27.668-0.861,56.013,14.47,79.817
						c13.339,20.724,33.012,35.844,56.138,43.365c3.433,1.116,6.948,2.068,10.526,2.844
						C1201.937,829.291,1254.991,797.997,1271.586,746.953z"/>
				</g>
			</g>
		</g>
		<g>
			<g>

					<linearGradient id="SVGID_00000110442321163254234940000002175921348133898886_" gradientUnits="userSpaceOnUse" x1="1905.5405" y1="1516.1504" x2="1242.3536" y2="2833.2729">
					<stop  offset="0" style="stop-color:#E1473D"/>
					<stop  offset="1" style="stop-color:#E9605A"/>
				</linearGradient>

					<circle style="fill:url(#SVGID_00000110442321163254234940000002175921348133898886_);" cx="1684.035" cy="1956.072" r="378.238"/>

					<linearGradient id="SVGID_00000079463062785957544320000015597304011408266397_" gradientUnits="userSpaceOnUse" x1="2180.3186" y1="725.6383" x2="1673.6991" y2="1981.774">
					<stop  offset="0" style="stop-color:#FF928E"/>
					<stop  offset="1" style="stop-color:#FE7062"/>
				</linearGradient>

					<circle style="fill:url(#SVGID_00000079463062785957544320000015597304011408266397_);" cx="1683.396" cy="1957.73" r="366.397"/>
			</g>
			<g>
				<path style="fill:#FFFFFF;" d="M1851.815,2200.592c-13.212,0-26.329-5.625-35.481-16.542l-326.95-389.951
					c-16.418-19.583-13.854-48.763,5.729-65.183c19.585-16.416,48.768-13.854,65.183,5.729l326.95,389.951
					c16.418,19.583,13.854,48.763-5.729,65.183C1872.851,2197.045,1862.303,2200.592,1851.815,2200.592z"/>
				<path style="fill:#FFFFFF;" d="M1483.964,2197.746c-12.148,0-24.275-4.753-33.36-14.201
					c-17.71-18.417-17.136-47.71,1.283-65.418l385.769-370.923c18.424-17.721,47.712-17.139,65.422,1.283
					c17.71,18.417,17.136,47.71-1.283,65.418l-385.769,370.923C1507.054,2193.458,1495.5,2197.746,1483.964,2197.746z"/>
			</g>
		</g>
		<g>

				<linearGradient id="SVGID_00000025437373586187775760000001173131369873426621_" gradientUnits="userSpaceOnUse" x1="18121.5547" y1="2637.9783" x2="17669.9824" y2="2895.7285" gradientTransform="matrix(-1 0 0 1 19947.5723 0)">
				<stop  offset="0" style="stop-color:#FEBBBA"/>
				<stop  offset="1" style="stop-color:#FF928E"/>
			</linearGradient>
			<path style="fill:url(#SVGID_00000025437373586187775760000001173131369873426621_);" d="M1894.673,3058.171
				c0.533-0.205,286.959-501.806,325.664-549.01c6.512-7.939,16.589-11.983,26.786-10.768l79.946,9.527l93.92,203.183
				l-156.468-91.125c15.483,107.079-185.522,266.211-254.458,324.276c-6.996,5.893-7.57,16.448-1.252,23.061l27.521,28.81
				c-45.183,45.799-97.321,75.207-156.166,88.808L1894.673,3058.171z"/>

				<linearGradient id="SVGID_00000065772668763955117190000009482496576765695113_" gradientUnits="userSpaceOnUse" x1="-8191.9351" y1="-3208.9758" x2="-8226.6006" y2="-2677.4402" gradientTransform="matrix(0.8974 -0.4412 0.4412 0.8974 10652.2939 2161.1482)">
				<stop  offset="0" style="stop-color:#4F52FF"/>
				<stop  offset="1" style="stop-color:#4042E2"/>
			</linearGradient>
			<path style="fill:url(#SVGID_00000065772668763955117190000009482496576765695113_);" d="M2020.412,2980.579
				c0,0,17.565,5.674,23.512,21.318c2.845,7.485-0.222,15.962-6.731,20.625c-28.923,20.722-124.326,87.62-168.351,100.722
				c-3.609,1.074-7.042-2.191-6.23-5.867c2.259-10.227,9.567-30.651,33.111-60.55l-2.112,4.272
				c-2.673,5.407,3.215,11.037,8.467,8.072C1931.525,3052.549,1991.502,3016.166,2020.412,2980.579z"/>

				<linearGradient id="SVGID_00000058585395949563459030000008432336104909896589_" gradientUnits="userSpaceOnUse" x1="18077.8691" y1="2702.259" x2="19622.9199" y2="1735.0334" gradientTransform="matrix(-1 0 0 1 19947.5723 0)">
				<stop  offset="0" style="stop-color:#FEBBBA"/>
				<stop  offset="1" style="stop-color:#FF928E"/>
			</linearGradient>
			<path style="fill:url(#SVGID_00000058585395949563459030000008432336104909896589_);" d="M2006.238,3181.281
				c0.48-0.308,43.454-103.845,43.934-104.152c39.401-239.893,135.533-445.344,163.884-499.405
				c4.77-9.093,13.82-15.091,24.052-15.965l80.22-6.849l133.096,179.971l-171.671-57.573
				c36.833,101.729-127.808,298.248-183.567,369.063c-5.658,7.187-4.085,17.639,3.441,22.838l32.782,22.644
				c-34.979,53.995-80.087,93.345-134.961,118.574L2006.238,3181.281z"/>

				<linearGradient id="SVGID_00000108289789103418717990000004991929852590902931_" gradientUnits="userSpaceOnUse" x1="-6771.2939" y1="-5475.0034" x2="-6805.9575" y2="-4943.502" gradientTransform="matrix(0.7895 -0.6137 0.6137 0.7895 10669.8828 3191.1018)">
				<stop  offset="0" style="stop-color:#4F52FF"/>
				<stop  offset="1" style="stop-color:#4042E2"/>
			</linearGradient>
			<path style="fill:url(#SVGID_00000108289789103418717990000004991929852590902931_);" d="M2113.673,3079.847
				c0,0,18.35,2.002,27.34,16.119c4.301,6.754,3.013,15.677-2.418,21.561c-24.131,26.145-104.021,110.967-144.484,132.708
				c-3.317,1.783-7.34-0.72-7.289-4.485c0.143-10.473,3.166-31.954,20.172-65.998l-1.204,4.611
				c-1.523,5.837,5.382,10.158,9.925,6.191C2041.189,3168.316,2092.563,3120.549,2113.673,3079.847z"/>
			<g>

					<linearGradient id="SVGID_00000018943435396542886410000009122760305533180853_" gradientUnits="userSpaceOnUse" x1="9866.874" y1="2314.3472" x2="9495.4736" y2="2721.3606" gradientTransform="matrix(-1 0 0 1 12115.873 0)">
					<stop  offset="0" style="stop-color:#FF928E"/>
					<stop  offset="1" style="stop-color:#FE7062"/>
				</linearGradient>
				<path style="fill:url(#SVGID_00000018943435396542886410000009122760305533180853_);" d="M2693.829,2517.006
					c0,0,72.569,107.938,78.524,157.175c5.955,49.236-20.067,66.263-96.023,72.543c-226.032,18.685-337.457-49.058-337.457-49.058
					c-15.462-98.586-26.464-123.667-155.601-177.271c0,0,163.335,12.968,196.208,0.211
					C2412.353,2507.85,2693.829,2517.006,2693.829,2517.006z"/>
			</g>
			<g>

					<linearGradient id="SVGID_00000134247098673910170950000018377290496970813101_" gradientUnits="userSpaceOnUse" x1="-11039.9189" y1="-172.6089" x2="-10928.877" y2="105.9385" gradientTransform="matrix(0.9446 -0.3283 0.3283 0.9446 12812.0361 -1699.1722)">
					<stop  offset="0" style="stop-color:#09005D"/>
					<stop  offset="1" style="stop-color:#1A0F91"/>
				</linearGradient>
				<path style="fill:url(#SVGID_00000134247098673910170950000018377290496970813101_);" d="M2404.446,1912.27
					c0,0,50.544-59.802,104.279,13.57c9.732,13.289,47.113,2.326,60.816,30.141c7.075,14.361,22.358,22.52,38.102,19.616
					c39.211-7.233,103.303-7.841,134.947,53.605c24.154,46.902,5.505,74.35-18.64,89.999
					c-17.733,11.495-24.063,34.829-13.339,53.038c10.286,17.466,12.219,41.117-14.339,69.582
					c-59.516,63.787-177.331-40.48-177.331-40.48l-93.543-221.044L2404.446,1912.27z"/>

					<linearGradient id="SVGID_00000022545096581754136680000014286250608085917351_" gradientUnits="userSpaceOnUse" x1="3318.3467" y1="1677.4503" x2="2807.8184" y2="2099.4871">
					<stop  offset="0" style="stop-color:#FF928E"/>
					<stop  offset="1" style="stop-color:#FE7062"/>
				</linearGradient>
				<path style="fill:url(#SVGID_00000022545096581754136680000014286250608085917351_);" d="M2497.572,2502.717
					c0,0-84.507-80.468-126.106-133.767c-22.486-28.81-29.548-66.738-19.149-101.773c18.992-63.985,52.744-130.255,55.822-140.57
					c4.718-15.81,99.473-15.152,99.473-15.152s186.46,121.014,259.72,326.003l-82.277,25.614c0,0-48.685-81.677-96.788-133.606
					c0,0,83.236,109.957,86.167,154.971L2497.572,2502.717z"/>

					<linearGradient id="SVGID_00000183211779814791363610000015230656323966689964_" gradientUnits="userSpaceOnUse" x1="-8934.1816" y1="2489.4084" x2="-8484.3506" y2="2489.4084" gradientTransform="matrix(1 0 0 1 11551.1094 0)">
					<stop  offset="0" style="stop-color:#FEBBBA"/>
					<stop  offset="1" style="stop-color:#FF928E"/>
				</linearGradient>
				<path style="fill:url(#SVGID_00000183211779814791363610000015230656323966689964_);" d="M2336.558,2534.472l63.499-69.087
					l73.334,19.747c0,0,85.497,13.246,134.429,0c48.933-13.246,48.933-13.246,48.933-13.246l110.579-34.426l17.367,49.082
					c4.41,12.462-0.021,26.296-10.796,33.952c-9.567,6.798-20.781,14.269-27.928,17.396c-14.562,6.37-335.453,2.014-335.453,2.014
					L2336.558,2534.472z"/>

					<linearGradient id="SVGID_00000078007840333957482780000001860352379741968525_" gradientUnits="userSpaceOnUse" x1="-10911.2188" y1="1390.6837" x2="-10889.2295" y2="1229.8134" gradientTransform="matrix(0.9974 -0.0717 0.0717 0.9974 13216.9805 105.0094)">
					<stop  offset="0" style="stop-color:#FEBBBA"/>
					<stop  offset="1" style="stop-color:#FF928E"/>
				</linearGradient>
				<path style="fill:url(#SVGID_00000078007840333957482780000001860352379741968525_);" d="M2442.49,1997.528l63.685,118.425
					c-4.205,25.851-69.315,26.58-79.372,11.144c-1.024-1.571-1.609-3.388-1.998-5.222l-38.097-79.128
					c-1.636-7.716,19.517-33.715,26.479-37.421l25.313-13.474C2448.248,1986.663,2407.576,1986.255,2442.49,1997.528z"/>
				<g>

						<linearGradient id="SVGID_00000067939938129929522650000014639466561383466890_" gradientUnits="userSpaceOnUse" x1="-9968.2881" y1="-3470.7603" x2="-9761.2422" y2="-3839.2314" gradientTransform="matrix(0.5458 -0.8379 0.8379 0.5458 10797.9961 -4320.769)">
						<stop  offset="0" style="stop-color:#FEBBBA"/>
						<stop  offset="1" style="stop-color:#FF928E"/>
					</linearGradient>
					<path style="fill:url(#SVGID_00000067939938129929522650000014639466561383466890_);" d="M2313.601,1969.735
						c0,0-7.189,40.01,24.259,90.881c31.447,50.871,62.762,48.574,78.672,30.432c15.91-18.142,34.967-48.358,26.295-99.096
						C2434.157,1941.215,2324.464,1918.713,2313.601,1969.735z"/>

						<linearGradient id="SVGID_00000105385855620739384330000011070159738852923802_" gradientUnits="userSpaceOnUse" x1="-9923.7646" y1="-3791.6411" x2="-9820.2432" y2="-3531.9587" gradientTransform="matrix(0.5458 -0.8379 0.8379 0.5458 10797.9961 -4320.769)">
						<stop  offset="0" style="stop-color:#09005D"/>
						<stop  offset="1" style="stop-color:#1A0F91"/>
					</linearGradient>
					<path style="fill:url(#SVGID_00000105385855620739384330000011070159738852923802_);" d="M2404.758,1997.467
						c0,0-50.921-66.884-90.015-8.578l0.659,20.141c0,0-50.838-2.377-45.325-49.233c5.512-46.858,47.018-78.867,104.556-62.858
						c57.539,16.009,91.16,34.241,97.657,74.19c6.498,39.949-26.122,33.422-26.122,33.422s-12.459-27.565-27.506-29.447
						c-15.046-1.883-9.609,19.921-9.609,19.921L2404.758,1997.467z"/>

						<linearGradient id="SVGID_00000036247763324484203320000002193337498932011682_" gradientUnits="userSpaceOnUse" x1="-9924.2148" y1="-3445.9995" x2="-9717.1709" y2="-3814.4678" gradientTransform="matrix(0.5458 -0.8379 0.8379 0.5458 10797.9961 -4320.769)">
						<stop  offset="0" style="stop-color:#FEBBBA"/>
						<stop  offset="1" style="stop-color:#FF928E"/>
					</linearGradient>
					<path style="fill:url(#SVGID_00000036247763324484203320000002193337498932011682_);" d="M2416.444,1995.683
						c0,0-26.377-34.229-2.367-41.333c24.01-7.104,23.114,33.539,21.549,48.659L2416.444,1995.683z"/>
				</g>
			</g>
			<g>

					<linearGradient id="SVGID_00000101782129473665586540000001705038339003163531_" gradientUnits="userSpaceOnUse" x1="-9027.7051" y1="2095.7925" x2="-9263.0264" y2="2160.2876" gradientTransform="matrix(0.9988 -0.0494 0.0494 0.9988 11509.6406 -55.0328)">
					<stop  offset="0" style="stop-color:#09005D"/>
					<stop  offset="1" style="stop-color:#1A0F91"/>
				</linearGradient>
				<path style="fill:url(#SVGID_00000101782129473665586540000001705038339003163531_);" d="M2546.748,2561.815
					c-0.223,0.011-0.447,0.017-0.672,0.015l-292.068-0.319c-7.22-0.006-13.067-5.865-13.06-13.085
					c0.007-7.222,5.888-13.189,13.089-13.059l292.068,0.319c7.22,0.006,13.067,5.865,13.059,13.085
					C2559.156,2555.767,2553.656,2561.474,2546.748,2561.815z"/>

					<linearGradient id="SVGID_00000051343449725503344540000005088977470002007474_" gradientUnits="userSpaceOnUse" x1="2051.3733" y1="2325.8354" x2="2421.8289" y2="2664.8379">
					<stop  offset="0" style="stop-color:#09005D"/>
					<stop  offset="1" style="stop-color:#1A0F91"/>
				</linearGradient>
				<path style="fill:url(#SVGID_00000051343449725503344540000005088977470002007474_);" d="M1991.452,2296.635h243.236
					c17.944,0,34.276,10.355,41.929,26.584l112.448,238.439h-302.277c-11.563,0-21.953-7.065-26.203-17.82l-87.198-220.64
					C1968.349,2310.451,1977.744,2296.635,1991.452,2296.635z"/>

					<linearGradient id="SVGID_00000060727969543938622670000008906021166895988148_" gradientUnits="userSpaceOnUse" x1="-9374.2451" y1="2376.1355" x2="-9450.0068" y2="2490.2229" gradientTransform="matrix(1 0 0 1 11551.1094 0)">
					<stop  offset="0" style="stop-color:#4F52FF"/>
					<stop  offset="1" style="stop-color:#4042E2"/>
				</linearGradient>
				<path style="fill:url(#SVGID_00000060727969543938622670000008906021166895988148_);" d="M2162.815,2418.891
					c5.271,16.376,1.377,32.281-8.698,35.523c-10.075,3.243-22.514-7.404-27.785-23.781c-5.271-16.375-1.377-32.28,8.697-35.522
					C2145.104,2391.868,2157.543,2402.514,2162.815,2418.891z"/>
			</g>
		</g>
	</g>
</g>
</svg>
