<svg width="180" height="180" viewBox="0 0 180 180" fill="none" xmlns="http://www.w3.org/2000/svg">
<ellipse opacity="0.1" cx="90" cy="174.599" rx="90" ry="5.4" fill="black"/>
<path fill-rule="evenodd" clip-rule="evenodd" d="M125.011 29.4525C126.562 27.3418 129.53 26.8877 131.641 28.4383C133.751 29.9889 134.205 32.957 132.655 35.0678L126.879 42.9299C125.328 45.0406 122.36 45.4947 120.25 43.9441C118.139 42.3935 117.685 39.4254 119.235 37.3147L125.011 29.4525ZM129.509 31.3396C129.001 30.9661 128.286 31.0755 127.912 31.5839L122.137 39.446C121.763 39.9544 121.873 40.6694 122.381 41.0428C122.889 41.4163 123.604 41.307 123.978 40.7986L129.754 32.9364C130.127 32.428 130.018 31.7131 129.509 31.3396ZM39.4922 76.0369C39.4922 52.9815 58.1823 34.2914 81.2376 34.2914C104.293 34.2914 122.983 52.9815 122.983 76.0369C122.983 99.0922 104.293 117.782 81.2376 117.782C58.1823 117.782 39.4922 99.0922 39.4922 76.0369ZM81.2376 30.6914C56.1941 30.6914 35.8922 50.9933 35.8922 76.0369C35.8922 101.08 56.1941 121.382 81.2376 121.382C89.4704 121.382 97.1908 119.188 103.846 115.353L109.732 121.239C109.563 123.74 110.435 126.298 112.347 128.21L130.509 146.372C134.023 149.886 139.722 149.886 143.236 146.372L147.152 142.456C150.667 138.941 150.667 133.242 147.152 129.728L128.991 111.566C127.079 109.654 124.52 108.782 122.018 108.951L116.994 103.927C123.003 96.2349 126.583 86.554 126.583 76.0369C126.583 50.9933 106.281 30.6914 81.2376 30.6914ZM118.116 110.14L114.659 106.683C112.357 109.193 109.776 111.442 106.966 113.382L110.92 117.336C111.304 116.674 111.78 116.05 112.347 115.482L116.263 111.566C116.83 110.999 117.454 110.524 118.116 110.14ZM51.2608 76.0364C51.2608 59.4809 64.6817 46.06 81.2372 46.06C97.7927 46.06 111.214 59.4809 111.214 76.0364C111.214 92.5919 97.7927 106.013 81.2372 106.013C64.6817 106.013 51.2608 92.5919 51.2608 76.0364ZM81.2372 42.46C62.6934 42.46 47.6608 57.4927 47.6608 76.0364C47.6608 94.5801 62.6934 109.613 81.2372 109.613C99.7809 109.613 114.814 94.5801 114.814 76.0364C114.814 57.4927 99.7809 42.46 81.2372 42.46ZM145.002 46.8864C144.205 44.3913 141.537 43.014 139.042 43.8102L129.748 46.7759C127.253 47.5721 125.876 50.2403 126.672 52.7354C127.468 55.2305 130.136 56.6078 132.631 55.8116L141.925 52.8459C144.421 52.0497 145.798 49.3815 145.002 46.8864ZM140.137 47.2398C140.738 47.0481 141.38 47.3798 141.572 47.9808C141.764 48.5818 141.432 49.2245 140.831 49.4162L131.537 52.3819C130.936 52.5737 130.293 52.242 130.102 51.641C129.91 51.04 130.242 50.3973 130.843 50.2055L140.137 47.2398ZM23.6141 102.825C21.0996 103.558 19.6552 106.191 20.3879 108.705C21.1206 111.22 23.753 112.664 26.2675 111.931L35.6336 109.202C38.1481 108.469 39.5925 105.837 38.8598 103.322C38.1271 100.808 35.4947 99.3634 32.9802 100.096L23.6141 102.825ZM23.8441 107.698C23.6676 107.092 24.0156 106.458 24.6212 106.282L33.9873 103.552C34.593 103.376 35.2271 103.724 35.4035 104.329C35.58 104.935 35.2321 105.569 34.6265 105.746L25.2603 108.475C24.6547 108.651 24.0206 108.304 23.8441 107.698ZM33.136 127.583C31.0653 125.98 30.6865 123.001 32.2901 120.93L38.2632 113.217C39.8668 111.146 42.8454 110.768 44.9162 112.371C46.987 113.975 47.3657 116.953 45.7621 119.024L39.789 126.738C38.1854 128.808 35.2068 129.187 33.136 127.583ZM35.1364 123.135C34.7502 123.633 34.8414 124.351 35.3402 124.737C35.839 125.123 36.5564 125.032 36.9427 124.533L42.9158 116.82C43.302 116.321 43.2108 115.604 42.712 115.218C42.2133 114.831 41.4958 114.923 41.1095 115.421L35.1364 123.135Z" fill="#C0C0C0"/>
<path d="M68.2031 63L93.3906 88.5938" stroke="#C0C0C0" stroke-width="3" stroke-linecap="round"/>
<path d="M68 89L94 63" stroke="#C0C0C0" stroke-width="3" stroke-linecap="round"/>
</svg>
